{
.appVersion = "3343";
.formatVersion = 3;
DisplayStrings = (

glyphs = (
{
glyphname = A;
lastChange = "2025-07-02 14:00:07 +0000";
layers = (
{
anchors = (
{
name = bottom;
pos = (399,0);
},
{
name = ogonek;
pos = (676,3);
},
{
name = top;
pos = (367,680);
}
);
layerId = m01;
shapes = (
{
closed = 1;
nodes = (
(96,-7,o),
(111,-7,o),
(127,-7,cs),
(233,-7,o),
(256,-5,o),
(256,11,cs),
(256,26,o),
(242,33,o),
(227,40,cs),
(202,53,o),
(170,65,o),
(170,121,cs),
(170,137,o),
(173,156,o),
(181,180,cs),
(191,214,o),
(207,214,o),
(286,214,cs),
(403,214,o),
(448,212,o),
(461,175,cs),
(470,149,o),
(474,130,o),
(474,101,cs),
(474,40,o),
(417,50,o),
(416,15,cs),
(416,-6,o),
(444,-7,o),
(572,-7,cs),
(665,-7,o),
(691,-5,o),
(691,11,cs),
(691,23,o),
(686,29,o),
(656,45,cs),
(635,56,o),
(622,77,o),
(595,144,cs),
(578,184,o),
(533,328,o),
(492,455,c),
(430,646,ls),
(418,681,o),
(398,691,o),
(369,691,cs),
(343,691,o),
(325,677,o),
(313,657,cs),
(282,606,o),
(223,466,o),
(176,342,cs),
(127,214,o),
(79,101,o),
(59,79,cs),
(45,64,o),
(29,53,o),
(18,45,cs),
(3,36,o),
(-8,28,o),
(-5,16,cs),
(1,-5,o),
(34,-7,o),
(82,-7,cs)
);
},
{
closed = 1;
nodes = (
(233,271,o),
(220,271,o),
(220,288,cs),
(220,305,o),
(267,420,o),
(292,483,cs),
(308,523,o),
(319,541,o),
(333,541,cs),
(349,541,o),
(360,515,o),
(385,435,cs),
(423,317,ls),
(428,301,o),
(433,290,o),
(432,282,cs),
(431,276,o),
(425,271,o),
(372,271,cs),
(349,271,o),
(319,271,o),
(284,271,cs)
);
}
);
width = 696;
},
{
anchors = (
{
name = bottom;
pos = (411,0);
},
{
name = ogonek;
pos = (688,3);
},
{
name = top;
pos = (395,680);
}
);
associatedMasterId = m01;
layerId = "60E528F4-3E7B-499F-B64F-1EB201325B04";
name = "28 mai 25 à 16:49";
shapes = (
{
closed = 1;
nodes = (
(373,691,o),
(355,677,o),
(342,657,cs),
(308,606,o),
(245,466,o),
(191,342,cs),
(135,214,o),
(88,101,o),
(67,79,cs),
(52,64,o),
(36,53,o),
(24,45,cs),
(9,36,o),
(-2,28,o),
(0,16,cs),
(5,-5,o),
(38,-7,o),
(86,-7,cs),
(100,-7,o),
(115,-7,o),
(131,-7,cs),
(239,-7,o),
(261,-5,o),
(261,12,cs),
(261,26,o),
(248,33,o),
(233,40,cs),
(210,52,o),
(180,64,o),
(180,115,cs),
(180,132,o),
(184,153,o),
(194,180,cs),
(206,214,o),
(215,214,o),
(294,214,cs),
(411,214,o),
(455,212,o),
(464,175,cs),
(471,147,o),
(474,137,o),
(474,107,cs),
(474,39,o),
(404,50,o),
(411,15,cs),
(416,-7,o),
(438,-7,o),
(566,-7,cs),
(681,-7,o),
(706,-5,o),
(706,12,cs),
(706,23,o),
(701,32,o),
(672,45,cs),
(645,56,o),
(620,77,o),
(597,144,cs),
(582,184,o),
(544,328,o),
(510,455,cs),
(486,543,o),
(465,623,o),
(455,655,cs),
(446,684,o),
(429,691,o),
(399,691,cs)
);
},
{
closed = 1;
nodes = (
(438,292,o),
(439,288,o),
(439,285,cs),
(439,271,o),
(391,271,o),
(295,271,cs),
(244,271,o),
(232,271,o),
(232,288,cs),
(232,304,o),
(286,420,o),
(311,483,cs),
(327,523,o),
(342,543,o),
(360,543,cs),
(370,543,o),
(381,515,o),
(402,435,cs),
(437,297,ls)
);
}
);
width = 711;
}
);
metricLeft = "=|V";
metricRight = "=|V";
unicode = 65;
},
{
color = 4;
glyphname = AE;
lastChange = "2025-07-03 10:03:59 +0000";
layers = (
{
anchors = (
{
name = bottom;
pos = (388,0);
},
{
name = ogonek;
pos = (665,3);
},
{
name = top;
pos = (356,680);
},
{
name = topleft;
pos = (698,680);
}
);
background = {
shapes = (
{
closed = 1;
nodes = (
(93,-5,o),
(108,-5,o),
(124,-5,cs),
(232,-5,o),
(253,-3,o),
(253,14,cs),
(253,28,o),
(239,33,o),
(224,40,cs),
(200,52,o),
(170,64,o),
(167,115,cs),
(166,132,o),
(169,153,o),
(178,180,cs),
(188,214,o),
(204,214,o),
(283,214,cs),
(400,214,o),
(447,212,o),
(458,175,cs),
(466,147,o),
(470,137,o),
(471,107,cs),
(475,39,o),
(414,53,o),
(413,17,cs),
(413,-4,o),
(441,-5,o),
(569,-5,cs),
(664,-5,o),
(689,-3,o),
(688,14,cs),
(687,25,o),
(682,29,o),
(653,45,cs),
(632,56,o),
(619,77,o),
(592,144,cs),
(575,184,o),
(530,328,o),
(489,455,cs),
(460,543,o),
(435,623,o),
(424,655,cs),
(413,684,o),
(396,691,o),
(366,691,cs),
(340,691,o),
(322,677,o),
(310,657,cs),
(279,606,o),
(220,466,o),
(173,342,cs),
(124,214,o),
(76,101,o),
(56,79,cs),
(42,64,o),
(26,53,o),
(15,45,cs),
(0,36,o),
(-11,30,o),
(-8,18,cs),
(-2,-3,o),
(31,-5,o),
(79,-5,cs)
);
},
{
closed = 1;
nodes = (
(342,271,o),
(330,271,o),
(329,288,cs),
(328,304,o),
(379,420,o),
(401,483,cs),
(415,523,o),
(428,542,o),
(443,542,cs),
(456,542,o),
(469,515,o),
(494,435,cs),
(534,309,ls),
(539,294,o),
(541,287,o),
(541,282,cs),
(541,277,o),
(537,272,o),
(511,271,cs),
(487,270,o),
(445,271,o),
(393,271,cs)
);
}
);
};
layerId = m01;
shapes = (
{
closed = 1;
nodes = (
(119,-5,ls),
(235,-5,o),
(252,-3,o),
(252,18,cs),
(252,29,o),
(241,34,o),
(228,40,cs),
(208,51,o),
(184,61,o),
(184,100,cs),
(184,125,o),
(195,154,o),
(208,180,cs),
(225,214,o),
(241,214,o),
(320,214,cs),
(421,214,o),
(443,214,o),
(443,180,cs),
(442,82,o),
(405,62,o),
(382,49,cs),
(371,43,o),
(359,37,o),
(362,22,cs),
(368,-4,o),
(397,-5,o),
(488,-5,cs),
(706,-6,ls),
(767,-6,o),
(813,-10,o),
(865,-10,cs),
(890,-10,o),
(902,-2,o),
(905,19,cs),
(908,37,o),
(911,161,o),
(909,182,cs),
(908,199,o),
(899,213,o),
(885,213,cs),
(871,213,o),
(865,203,o),
(857,185,cs),
(822,96,o),
(760,51,o),
(687,51,cs),
(602,51,o),
(539,67,o),
(541,179,cs),
(543,289,ls),
(544,323,o),
(555,335,o),
(620,335,cs),
(676,335,o),
(688,299,o),
(699,267,cs),
(706,247,o),
(713,228,o),
(733,228,cs),
(776,228,o),
(773,384,o),
(762,440,cs),
(757,464,o),
(749,488,o),
(734,488,cs),
(721,488,o),
(716,475,o),
(711,461,cs),
(701,433,o),
(687,393,o),
(623,393,cs),
(558,393,o),
(545,414,o),
(545,450,cs),
(545,523,ls),
(545,601,o),
(569,627,o),
(692,627,cs),
(782,627,o),
(839,577,o),
(855,492,cs),
(859,473,o),
(866,465,o),
(879,465,cs),
(918,465,o),
(914,612,o),
(909,640,cs),
(905,658,o),
(907,670,o),
(865,677,cs),
(819,684,o),
(736,684,o),
(677,684,cs),
(459,684,ls),
(389,684,o),
(375,679,o),
(375,663,cs),
(375,644,o),
(402,642,o),
(402,627,cs),
(402,612,o),
(382,586,o),
(367,562,cs),
(330,505,o),
(280,420,o),
(235,342,cs),
(161,214,o),
(94,101,o),
(70,79,cs),
(53,64,o),
(36,53,o),
(22,45,cs),
(7,36,o),
(-5,30,o),
(-5,19,cs),
(-5,-3,o),
(28,-5,o),
(77,-5,cs)
);
},
{
closed = 1;
nodes = (
(278,271,o),
(264,271,o),
(268,288,cs),
(272,304,o),
(342,421,o),
(378,483,cs),
(401,523,o),
(416,552,o),
(431,552,cs),
(443,552,o),
(450,539,o),
(450,513,cs),
(449,322,ls),
(449,268,o),
(433,271,o),
(347,271,cs)
);
}
);
width = 962;
},
{
associatedMasterId = m01;
layerId = "AA5E9135-E235-40EF-AA82-8E8621C00C1A";
width = 862;
},
{
associatedMasterId = m01;
layerId = "DE5A2FB3-81BC-48EF-A7FA-90535F736B50";
width = 853;
}
);
metricLeft = A;
metricRight = E;
unicode = 198;
},
{
glyphname = B;
lastChange = "2025-06-01 21:24:14 +0000";
layers = (
{
backgroundImage = {
angle = 1.50767;
imagePath = "/Downloads/Images/B_-Regular.tif";
locked = 1;
pos = (24,-67);
scale = (2.9578,2.9881);
};
layerId = m01;
shapes = (
{
closed = 1;
nodes = (
(475,-8,o),
(620,58,o),
(620,188,cs),
(620,288,o),
(542,344,o),
(465,368,cs),
(449,372,o),
(445,373,o),
(445,379,cs),
(445,382,o),
(450,384,o),
(455,388,cs),
(527,434,o),
(577,496,o),
(577,556,cs),
(577,675,o),
(435,688,o),
(307,688,cs),
(130,688,ls),
(65,688,o),
(43,685,o),
(43,670,cs),
(43,652,o),
(56,646,o),
(68,639,cs),
(88,627,o),
(114,611,o),
(114,534,cs),
(112,188,ls),
(111,83,o),
(73,61,o),
(50,48,cs),
(40,43,o),
(30,37,o),
(30,26,cs),
(30,24,o),
(31,23,o),
(31,21,cs),
(36,-6,o),
(65,-6,o),
(156,-6,cs),
(347,-7,ls)
);
},
{
closed = 1;
nodes = (
(259,50,o),
(205,66,o),
(207,178,cs),
(208,256,ls),
(208,327,o),
(233,343,o),
(309,343,cs),
(432,343,o),
(498,287,o),
(498,196,cs),
(498,97,o),
(422,50,o),
(327,50,cs)
);
},
{
closed = 1;
nodes = (
(209,399,o),
(218,463,o),
(218,518,cs),
(221,604,o),
(246,631,o),
(318,631,cs),
(398,631,o),
(455,600,o),
(455,529,cs),
(455,454,o),
(362,399,o),
(279,399,cs)
);
}
);
width = 650;
}
);
metricLeft = I;
unicode = 66;
},
{
glyphname = C;
lastChange = "2025-07-02 13:49:42 +0000";
layers = (
{
anchors = (
{
name = bottom;
pos = (368,-2);
},
{
name = top;
pos = (364,680);
}
);
background = {
shapes = (
{
pos = (46,0);
ref = O;
}
);
};
layerId = m01;
shapes = (
{
closed = 1;
nodes = (
(514,-16,o),
(604,87,o),
(615,162,cs),
(623,219,o),
(578,229,o),
(552,229,cs),
(529,229,o),
(508,221,o),
(494,170,cs),
(476,105,o),
(445,49,o),
(369,49,cs),
(226,49,o),
(164,236,o),
(164,367,cs),
(164,505,o),
(234,634,o),
(334,634,cs),
(420,634,o),
(472,555,o),
(508,473,cs),
(519,449,o),
(526,430,o),
(544,430,cs),
(589,430,o),
(608,552,o),
(608,612,cs),
(608,661,o),
(595,694,o),
(570,694,cs),
(538,694,o),
(544,641,o),
(511,641,cs),
(478,641,o),
(449,696,o),
(354,696,cs),
(194,696,o),
(40,522,o),
(40,322,cs),
(40,154,o),
(147,-16,o),
(352,-16,cs)
);
}
);
width = 666;
},
{
associatedMasterId = m01;
background = {
shapes = (
{
ref = O;
}
);
};
layerId = "66813B1E-7ECF-4D25-8039-A35878D5DBCD";
name = "31 oct. 24 à 16:42";
shapes = (
{
closed = 1;
nodes = (
(564,442,o),
(608,612,o),
(608,660,cs),
(608,690,o),
(590,696,o),
(581,696,cs),
(558,696,o),
(555,656,o),
(518,656,cs),
(485,656,o),
(464,696,o),
(397,696,cs),
(225,696,o),
(41,438,o),
(41,235,cs),
(41,128,o),
(90,-15,o),
(259,-15,cs),
(439,-15,o),
(552,163,o),
(552,230,cs),
(552,268,o),
(526,272,o),
(507,272,cs),
(480,272,o),
(454,261,o),
(439,210,cs),
(420,144,o),
(383,41,o),
(309,41,cs),
(191,41,o),
(160,194,o),
(160,295,cs),
(160,427,o),
(249,639,o),
(367,639,cs),
(415,639,o),
(451,594,o),
(474,533,cs),
(499,472,o),
(495,442,o),
(519,442,cs)
);
}
);
width = 610;
},
{
anchors = (
{
name = bottom;
pos = (416,0);
},
{
name = top;
pos = (413,680);
}
);
associatedMasterId = m01;
background = {
shapes = (
{
pos = (59,0);
ref = O;
}
);
};
layerId = "A2D5459F-D5FB-484D-89EB-CAACC9B61422";
name = "28 mai 25 à 18:00";
shapes = (
{
closed = 1;
nodes = (
(607,430,o),
(626,552,o),
(626,612,cs),
(626,661,o),
(613,694,o),
(588,694,cs),
(556,694,o),
(562,641,o),
(529,641,cs),
(496,641,o),
(467,696,o),
(372,696,cs),
(202,696,o),
(45,522,o),
(45,322,cs),
(45,154,o),
(155,-16,o),
(370,-16,cs),
(537,-16,o),
(632,87,o),
(643,162,cs),
(651,219,o),
(606,229,o),
(580,229,cs),
(557,229,o),
(536,221,o),
(522,170,cs),
(504,105,o),
(470,49,o),
(387,49,cs),
(234,49,o),
(169,236,o),
(169,367,cs),
(169,505,o),
(242,634,o),
(352,634,cs),
(438,634,o),
(490,555,o),
(526,473,cs),
(537,449,o),
(544,430,o),
(562,430,cs)
);
}
);
width = 694;
}
);
metricLeft = O;
unicode = 67;
},
{
glyphname = D;
lastChange = "2025-07-02 12:47:16 +0000";
layers = (
{
anchors = (
{
name = bottom;
pos = (396,0);
},
{
name = center;
pos = (189,340);
},
{
name = top;
pos = (344,680);
}
);
layerId = m01;
shapes = (
{
closed = 1;
nodes = (
(557,-8,o),
(681,161,o),
(681,360,cs),
(681,484,o),
(621,680,o),
(279,680,cs),
(125,680,ls),
(60,680,o),
(38,677,o),
(38,662,cs),
(38,646,o),
(51,638,o),
(63,631,cs),
(84,618,o),
(108,603,o),
(108,526,cs),
(108,188,ls),
(108,83,o),
(71,61,o),
(49,48,cs),
(40,43,o),
(30,37,o),
(30,22,cs),
(30,-11,o),
(90,-7,o),
(112,-7,cs),
(134,-7,o),
(206,-8,o),
(228,-8,cs)
);
},
{
closed = 1;
nodes = (
(223,59,o),
(209,92,o),
(209,165,cs),
(209,508,ls),
(209,596,o),
(238,622,o),
(302,622,cs),
(517,622,o),
(556,450,o),
(556,339,cs),
(556,191,o),
(469,59,o),
(291,59,cs)
);
}
);
width = 721;
},
{
associatedMasterId = m01;
backgroundImage = {
angle = 0.5;
imagePath = "/Downloads/Images/D_-Regular.tif";
locked = 1;
pos = (-67,-113);
scale = (2.9729,2.9729);
};
layerId = "67F181E3-26C1-4545-BB55-32ED0CD3BDE4";
name = "19 nov. 24 à 17:13";
shapes = (
{
closed = 1;
nodes = (
(684,654,o),
(524,683,o),
(360,683,cs),
(196,683,ls),
(126,683,o),
(111,681,o),
(111,666,cs),
(111,631,o),
(179,655,o),
(156,534,cs),
(86,188,ls),
(53,26,o),
(-22,56,o),
(-22,22,cs),
(-22,0,o),
(-2,-2,o),
(99,-2,cs),
(183,-2,o),
(273,-2,o),
(377,40,cs),
(542,108,o),
(684,262,o),
(684,472,cs)
);
},
{
closed = 1;
nodes = (
(571,254,o),
(374,52,o),
(241,52,cs),
(204,52,o),
(165,57,o),
(165,120,cs),
(165,135,o),
(167,153,o),
(172,175,cs),
(200,296,o),
(212,343,o),
(249,516,cs),
(267,606,o),
(296,635,o),
(363,635,cs),
(474,635,o),
(571,582,o),
(571,461,cs)
);
}
);
width = 723;
}
);
metricLeft = I;
metricRight = O;
unicode = 68;
},
{
glyphname = E;
lastChange = "2025-07-02 13:28:40 +0000";
layers = (
{
anchors = (
{
name = bottom;
pos = (381,0);
},
{
name = ogonek;
pos = (545,0);
},
{
name = top;
pos = (331,680);
},
{
name = topleft;
pos = (13,680);
}
);
layerId = m01;
shapes = (
{
closed = 1;
nodes = (
(558,-10,o),
(572,-2,o),
(573,19,cs),
(575,37,o),
(582,162,o),
(577,184,cs),
(575,198,o),
(567,213,o),
(553,213,cs),
(539,213,o),
(533,203,o),
(525,185,cs),
(488,92,o),
(411,51,o),
(355,51,cs),
(270,51,o),
(207,67,o),
(209,179,cs),
(211,289,ls),
(212,323,o),
(223,335,o),
(288,335,cs),
(344,335,o),
(356,299,o),
(367,267,cs),
(374,247,o),
(381,228,o),
(401,228,cs),
(444,228,o),
(441,384,o),
(430,440,cs),
(425,464,o),
(417,488,o),
(402,488,cs),
(389,488,o),
(384,475,o),
(379,461,cs),
(369,433,o),
(355,393,o),
(291,393,cs),
(226,393,o),
(213,414,o),
(213,450,cs),
(214,523,ls),
(215,601,o),
(237,627,o),
(360,627,cs),
(450,627,o),
(507,577,o),
(523,492,cs),
(527,473,o),
(534,465,o),
(547,465,cs),
(586,465,o),
(582,612,o),
(577,640,cs),
(573,658,o),
(575,670,o),
(533,677,cs),
(487,684,o),
(404,684,o),
(345,684,cs),
(130,684,ls),
(59,684,o),
(40,683,o),
(43,661,cs),
(46,647,o),
(57,641,o),
(67,635,cs),
(88,623,o),
(115,608,o),
(114,530,cs),
(111,189,ls),
(110,82,o),
(73,62,o),
(50,49,cs),
(39,43,o),
(27,37,o),
(30,22,cs),
(36,-4,o),
(65,-5,o),
(156,-5,cs),
(374,-6,ls),
(435,-6,o),
(481,-10,o),
(533,-10,cs)
);
}
);
width = 630;
}
);
metricLeft = I;
unicode = 69;
},
{
glyphname = F;
lastChange = "2025-06-01 21:24:14 +0000";
layers = (
{
layerId = m01;
shapes = (
{
closed = 1;
nodes = (
(271,-5,o),
(296,-4,o),
(292,19,cs),
(289,34,o),
(279,39,o),
(267,46,cs),
(243,59,o),
(211,77,o),
(211,178,cs),
(211,261,ls),
(211,303,o),
(223,311,o),
(277,311,cs),
(353,311,o),
(366,270,o),
(376,240,cs),
(382,221,o),
(388,201,o),
(409,201,cs),
(452,201,o),
(450,355,o),
(438,413,cs),
(433,438,o),
(426,461,o),
(411,461,cs),
(398,461,o),
(394,448,o),
(389,434,cs),
(379,406,o),
(366,369,o),
(282,369,cs),
(224,369,o),
(213,387,o),
(213,423,cs),
(215,498,ls),
(217,604,o),
(237,631,o),
(332,631,cs),
(427,631,o),
(488,581,o),
(505,496,cs),
(509,477,o),
(520,469,o),
(531,469,cs),
(567,469,o),
(564,616,o),
(558,644,cs),
(555,661,o),
(556,674,o),
(515,681,cs),
(469,688,o),
(386,688,o),
(327,688,cs),
(131,688,ls),
(60,688,o),
(40,685,o),
(44,665,cs),
(47,651,o),
(58,645,o),
(68,639,cs),
(90,626,o),
(115,611,o),
(115,534,cs),
(112,188,ls),
(111,84,o),
(73,62,o),
(50,49,cs),
(39,43,o),
(28,37,o),
(31,22,cs),
(36,-5,o),
(65,-5,o),
(156,-5,cs)
);
}
);
width = 592;
}
);
metricLeft = I;
unicode = 70;
},
{
glyphname = G;
lastChange = "2025-07-02 12:49:24 +0000";
layers = (
{
anchors = (
{
name = bottom;
pos = (362,-20);
},
{
name = top;
pos = (379,685);
}
);
background = {
shapes = (
{
ref = C;
}
);
};
layerId = m01;
shapes = (
{
closed = 1;
nodes = (
(447,-16,o),
(490,35,o),
(512,35,cs),
(535,35,o),
(549,-16,o),
(576,-16,cs),
(606,-16,o),
(606,44,o),
(607,85,cs),
(608,178,ls),
(610,245,o),
(629,267,o),
(646,279,cs),
(661,289,o),
(669,291,o),
(669,303,cs),
(669,331,o),
(607,330,o),
(498,330,cs),
(427,330,o),
(401,330,o),
(401,307,cs),
(401,293,o),
(415,285,o),
(425,279,cs),
(445,267,o),
(518,252,o),
(518,183,cs),
(518,113,o),
(492,49,o),
(384,49,cs),
(235,49,o),
(164,237,o),
(164,360,cs),
(164,495,o),
(226,634,o),
(361,634,cs),
(446,634,o),
(498,525,o),
(522,473,cs),
(533,448,o),
(540,430,o),
(560,430,cs),
(603,430,o),
(622,553,o),
(622,616,cs),
(622,662,o),
(609,693,o),
(581,694,cs),
(555,694,o),
(557,641,o),
(525,641,cs),
(493,644,o),
(460,696,o),
(380,696,cs),
(185,696,o),
(40,504,o),
(40,309,cs),
(40,144,o),
(161,-16,o),
(363,-16,cs)
);
}
);
width = 694;
},
{
anchors = (
{
name = bottom;
pos = (291,-20);
},
{
name = top;
pos = (309,685);
}
);
associatedMasterId = m01;
layerId = "37CCE1DC-788D-4BFF-BB2B-F87A3A826D56";
name = "28 mai 25 à 15:37";
shapes = (
{
closed = 1;
nodes = (
(516,442,o),
(529,603,o),
(520,651,cs),
(514,682,o),
(501,701,o),
(479,701,cs),
(466,701,o),
(459,687,o),
(454,676,cs),
(448,662,o),
(441,647,o),
(424,647,cs),
(412,647,o),
(400,655,o),
(385,666,cs),
(364,681,o),
(336,701,o),
(295,701,cs),
(119,701,o),
(-18,449,o),
(23,234,cs),
(44,127,o),
(123,-1,o),
(276,-1,cs),
(330,-1,o),
(365,19,o),
(390,33,cs),
(404,42,o),
(413,47,o),
(421,47,cs),
(429,47,o),
(434,42,o),
(437,30,cs),
(454,-55,o),
(427,-182,o),
(324,-182,cs),
(271,-182,o),
(237,-154,o),
(208,-130,cs),
(188,-113,o),
(169,-97,o),
(148,-97,cs),
(109,-97,o),
(82,-132,o),
(90,-169,cs),
(102,-230,o),
(198,-249,o),
(269,-249,cs),
(473,-249,o),
(547,-101,o),
(543,65,cs),
(539,279,ls),
(538,311,o),
(524,342,o),
(484,342,cs),
(446,342,o),
(427,317,o),
(426,285,cs),
(425,273,o),
(427,251,o),
(428,228,cs),
(430,205,o),
(431,181,o),
(431,163,cs),
(431,114,o),
(389,84,o),
(328,84,cs),
(202,84,o),
(156,204,o),
(139,296,cs),
(113,427,o),
(163,634,o),
(276,634,cs),
(322,634,o),
(362,590,o),
(399,530,cs),
(410,513,o),
(417,500,o),
(424,486,cs),
(436,462,o),
(446,442,o),
(465,442,cs)
);
}
);
width = 621;
}
);
metricLeft = C;
unicode = 71;
},
{
glyphname = H;
lastChange = "2025-07-02 13:15:17 +0000";
layers = (
{
anchors = (
{
name = bottom;
pos = (219,0);
},
{
name = ogonek;
pos = (280,0);
},
{
name = top;
pos = (190,680);
},
{
name = topleft;
pos = (-28,680);
}
);
layerId = m01;
shapes = (
{
closed = 1;
nodes = (
(271,-6,o),
(295,-5,o),
(291,18,cs),
(288,33,o),
(277,38,o),
(264,45,cs),
(239,58,o),
(203,77,o),
(206,178,cs),
(208,256,ls),
(209,327,o),
(266,327,o),
(370,327,cs),
(504,327,o),
(564,314,o),
(562,238,cs),
(561,188,ls),
(560,81,o),
(523,61,o),
(500,48,cs),
(489,42,o),
(477,36,o),
(480,21,cs),
(485,-6,o),
(515,-6,o),
(606,-6,cs),
(721,-6,o),
(745,-5,o),
(741,18,cs),
(738,33,o),
(727,38,o),
(714,45,cs),
(688,59,o),
(654,77,o),
(656,178,cs),
(661,498,ls),
(663,605,o),
(711,627,o),
(738,639,cs),
(754,646,o),
(761,652,o),
(761,663,cs),
(761,690,o),
(699,690,o),
(590,690,cs),
(519,690,o),
(493,685,o),
(493,664,cs),
(493,652,o),
(507,645,o),
(517,639,cs),
(537,627,o),
(563,612,o),
(562,534,cs),
(562,460,ls),
(562,392,o),
(513,387,o),
(389,387,cs),
(268,387,o),
(211,385,o),
(211,474,cs),
(211,498,ls),
(211,605,o),
(261,627,o),
(288,639,cs),
(304,646,o),
(312,651,o),
(311,665,cs),
(309,690,o),
(249,690,o),
(140,690,cs),
(69,690,o),
(39,688,o),
(43,665,cs),
(46,651,o),
(57,645,o),
(67,639,cs),
(87,627,o),
(113,612,o),
(113,534,cs),
(111,188,ls),
(110,83,o),
(73,61,o),
(50,48,cs),
(39,42,o),
(27,36,o),
(30,21,cs),
(35,-6,o),
(65,-6,o),
(156,-6,cs)
);
}
);
width = 791;
}
);
metricLeft = I;
metricRight = I;
unicode = 72;
},
{
glyphname = I;
lastChange = "2025-07-02 13:18:31 +0000";
layers = (
{
anchors = (
{
name = bottom;
pos = (222,0);
},
{
name = ogonek;
pos = (283,0);
},
{
name = top;
pos = (179,680);
},
{
name = topleft;
pos = (-25,680);
}
);
layerId = m01;
shapes = (
{
closed = 1;
nodes = (
(275,-6,o),
(295,-2,o),
(295,18,cs),
(295,28,o),
(283,37,o),
(268,45,cs),
(242,59,o),
(212,78,o),
(212,178,cs),
(212,498,ls),
(217,605,o),
(260,627,o),
(287,639,cs),
(304,646,o),
(310,650,o),
(310,661,cs),
(310,690,o),
(248,690,o),
(139,690,cs),
(68,690,o),
(42,690,o),
(42,667,cs),
(42,653,o),
(56,645,o),
(66,639,cs),
(86,627,o),
(118,612,o),
(116,534,cs),
(116,188,ls),
(113,83,o),
(77,61,o),
(54,48,cs),
(43,42,o),
(30,35,o),
(30,20,cs),
(30,-5,o),
(69,-6,o),
(160,-6,cs)
);
}
);
width = 340;
}
);
unicode = 73;
},
{
glyphname = J;
lastChange = "2025-07-02 13:19:42 +0000";
layers = (
{
anchors = (
{
name = bottom;
pos = (325,0);
},
{
name = ogonek;
pos = (294,0);
},
{
name = top;
pos = (186,680);
},
{
name = topleft;
pos = (-14,680);
}
);
layerId = m01;
shapes = (
{
closed = 1;
nodes = (
(95,-189,o),
(223,9,o),
(223,161,cs),
(223,498,ls),
(223,605,o),
(271,627,o),
(298,639,cs),
(315,646,o),
(321,650,o),
(321,661,cs),
(321,690,o),
(259,690,o),
(150,690,cs),
(69,690,o),
(43,690,o),
(43,667,cs),
(43,653,o),
(57,645,o),
(67,639,cs),
(87,627,o),
(127,612,o),
(127,534,cs),
(127,208,ls),
(127,87,o),
(122,12,o),
(71,-40,cs),
(42,-69,o),
(9,-69,o),
(-29,-75,cs),
(-51,-79,o),
(-75,-95,o),
(-75,-138,cs),
(-75,-163,o),
(-62,-189,o),
(-26,-189,cs)
);
}
);
width = 351;
},
{
anchors = (
{
name = bottom;
pos = (314,0);
},
{
name = top;
pos = (278,680);
}
);
associatedMasterId = m01;
layerId = "A8F0E1E3-9006-4EA6-92DC-4287570DEFCC";
name = "28 mai 25 à 15:05";
shapes = (
{
closed = 1;
nodes = (
(272,-249,o),
(414,-79,o),
(410,60,cs),
(406,227,ls),
(406,249,o),
(412,254,o),
(431,254,cs),
(448,254,ls),
(475,254,o),
(494,287,o),
(489,316,cs),
(486,330,o),
(475,333,o),
(453,333,cs),
(434,333,ls),
(415,333,o),
(405,341,o),
(405,355,cs),
(402,425,o),
(397,486,o),
(410,539,cs),
(417,569,o),
(432,591,o),
(445,610,cs),
(458,629,o),
(471,648,o),
(467,666,cs),
(466,672,o),
(460,691,o),
(440,691,cs),
(428,691,o),
(409,685,o),
(387,678,cs),
(357,668,o),
(323,657,o),
(295,657,cs),
(255,657,o),
(227,671,o),
(203,683,cs),
(187,691,o),
(171,699,o),
(155,699,cs),
(94,699,o),
(-5,591,o),
(5,541,cs),
(9,527,o),
(19,522,o),
(29,522,cs),
(44,522,o),
(58,538,o),
(70,552,cs),
(84,568,o),
(99,586,o),
(118,586,cs),
(136,586,o),
(153,579,o),
(172,571,cs),
(192,563,o),
(213,554,o),
(238,554,cs),
(257,554,o),
(274,558,o),
(289,562,cs),
(301,566,o),
(310,568,o),
(318,568,cs),
(322,568,o),
(325,565,o),
(326,559,cs),
(330,538,o),
(323,508,o),
(315,474,cs),
(308,446,o),
(300,413,o),
(298,381,cs),
(294,341,o),
(293,333,o),
(275,333,cs),
(199,333,ls),
(173,333,o),
(145,313,o),
(153,277,cs),
(155,264,o),
(166,254,o),
(189,254,cs),
(272,254,ls),
(289,254,o),
(298,247,o),
(298,229,cs),
(301,191,o),
(304,128,o),
(303,80,cs),
(302,-130,o),
(234,-173,o),
(172,-173,cs),
(132,-173,o),
(109,-157,o),
(86,-141,cs),
(69,-129,o),
(52,-117,o),
(30,-117,cs),
(-1,-117,o),
(-17,-140,o),
(-11,-168,cs),
(1,-229,o),
(78,-249,o),
(139,-249,cs)
);
}
);
width = 566;
},
{
anchors = (
{
name = bottom;
pos = (314,0);
},
{
name = ogonek;
pos = (283,0);
},
{
name = top;
pos = (278,680);
},
{
name = topleft;
pos = (-25,680);
}
);
associatedMasterId = m01;
layerId = "0D5DB3DA-6CE3-403B-AEA1-DE36E2261652";
name = "28 mai 25 à 15:19";
shapes = (
{
closed = 1;
nodes = (
(-19,-155,o),
(-33,-144,o),
(-33,-130,cs),
(-33,-121,o),
(-27,-113,o),
(-17,-103,cs),
(75,-9,o),
(116,24,o),
(116,208,cs),
(116,534,ls),
(116,612,o),
(76,627,o),
(56,639,cs),
(46,645,o),
(32,653,o),
(32,667,cs),
(32,690,o),
(58,690,o),
(139,690,cs),
(248,690,o),
(310,690,o),
(310,661,cs),
(310,650,o),
(304,646,o),
(287,639,cs),
(260,627,o),
(212,605,o),
(212,498,cs),
(212,161,ls),
(212,9,o),
(111,-83,o),
(-2,-146,cs)
);
}
);
width = 330;
}
);
unicode = 74;
},
{
glyphname = K;
lastChange = "2025-07-02 13:19:52 +0000";
layers = (
{
anchors = (
{
name = bottom;
pos = (402,0);
},
{
name = ogonek;
pos = (301,0);
},
{
name = top;
pos = (303,680);
},
{
name = topleft;
pos = (-7,680);
}
);
layerId = m01;
shapes = (
{
closed = 1;
nodes = (
(643,-12,o),
(699,-8,o),
(694,19,cs),
(691,34,o),
(675,42,o),
(645,56,cs),
(638,59,o),
(630,63,o),
(622,67,cs),
(581,86,o),
(510,164,o),
(458,225,cs),
(445,240,o),
(433,254,o),
(422,266,cs),
(392,299,o),
(373,320,o),
(370,337,cs),
(366,357,o),
(376,375,o),
(405,408,cs),
(474,488,o),
(557,577,o),
(579,598,cs),
(595,615,o),
(611,625,o),
(622,632,cs),
(637,642,o),
(648,649,o),
(645,662,cs),
(640,690,o),
(585,685,o),
(515,685,cs),
(416,685,o),
(401,682,o),
(405,662,cs),
(407,652,o),
(416,648,o),
(426,642,cs),
(439,634,o),
(456,623,o),
(460,602,cs),
(468,561,o),
(400,494,o),
(362,454,cs),
(319,408,o),
(284,380,o),
(257,380,cs),
(235,380,o),
(211,395,o),
(211,431,cs),
(212,498,ls),
(214,605,o),
(259,626,o),
(288,639,cs),
(303,645,o),
(314,650,o),
(311,663,cs),
(306,689,o),
(250,690,o),
(141,690,cs),
(70,690,o),
(39,688,o),
(43,665,cs),
(46,651,o),
(57,645,o),
(67,639,cs),
(89,626,o),
(114,611,o),
(114,534,cs),
(111,188,ls),
(110,81,o),
(73,61,o),
(50,48,cs),
(39,42,o),
(28,36,o),
(31,21,cs),
(36,-6,o),
(65,-6,o),
(156,-6,cs),
(271,-6,o),
(296,-5,o),
(292,18,cs),
(289,31,o),
(278,38,o),
(265,45,cs),
(240,58,o),
(205,78,o),
(206,178,cs),
(207,262,ls),
(208,301,o),
(229,316,o),
(252,316,cs),
(284,316,o),
(334,246,o),
(401,145,cs),
(421,115,o),
(443,82,o),
(467,47,cs),
(495,7,o),
(531,-12,o),
(587,-12,cs)
);
}
);
width = 679;
},
{
associatedMasterId = m01;
layerId = "FC980D26-1BB5-4150-B636-6C47122F74E5";
name = "19 nov. 24 à 11:25";
shapes = (
{
alignment = -1;
ref = I;
},
{
closed = 1;
nodes = (
(486,492,o),
(574,580,o),
(600,602,cs),
(644,639,o),
(677,644,o),
(677,661,cs),
(677,684,o),
(625,680,o),
(555,680,cs),
(457,680,o),
(447,678,o),
(447,663,cs),
(447,646,o),
(490,643,o),
(490,593,cs),
(490,543,o),
(425,491,o),
(383,446,cs),
(336,396,o),
(288,372,o),
(260,372,cs),
(233,372,o),
(217,396,o),
(224,426,c),
(216,426,l),
(167,259,l),
(187,253,l),
(192,279,o),
(205,308,o),
(236,308,cs),
(285,308,o),
(338,110,o),
(371,50,cs),
(393,11,o),
(421,-7,o),
(476,-7,cs),
(531,-7,o),
(583,-3,o),
(583,18,cs),
(583,34,o),
(564,40,o),
(522,62,cs),
(484,82,o),
(422,157,o),
(391,222,cs),
(364,279,o),
(346,312,o),
(346,332,cs),
(346,357,o),
(375,378,o),
(408,412,cs)
);
}
);
width = 685;
}
);
metricLeft = I;
unicode = 75;
},
{
glyphname = L;
lastChange = "2025-07-02 13:21:30 +0000";
layers = (
{
anchors = (
{
name = bottom;
pos = (310,0);
},
{
name = center;
pos = (291,340);
},
{
name = top;
pos = (188,680);
},
{
name = topright;
pos = (492,680);
}
);
layerId = m01;
shapes = (
{
closed = 1;
nodes = (
(527,-11,o),
(541,-3,o),
(542,18,cs),
(544,36,o),
(551,161,o),
(547,183,cs),
(544,197,o),
(536,212,o),
(522,212,cs),
(508,212,o),
(502,202,o),
(495,184,cs),
(457,91,o),
(380,50,o),
(324,50,cs),
(259,50,o),
(198,66,o),
(201,178,cs),
(212,498,ls),
(216,605,o),
(261,625,o),
(289,638,cs),
(301,644,o),
(311,649,o),
(311,663,cs),
(311,689,o),
(250,690,o),
(141,690,cs),
(70,690,o),
(44,687,o),
(44,665,cs),
(44,652,o),
(57,645,o),
(68,639,cs),
(89,626,o),
(114,611,o),
(114,534,cs),
(111,188,ls),
(110,81,o),
(73,61,o),
(50,48,cs),
(39,42,o),
(28,36,o),
(31,21,cs),
(36,-6,o),
(65,-6,o),
(156,-6,cs),
(343,-7,ls),
(362,-7,o),
(402,-8,o),
(437,-9,cs),
(465,-10,o),
(492,-11,o),
(502,-11,cs)
);
}
);
width = 568;
}
);
metricLeft = I;
unicode = 76;
},
{
glyphname = M;
lastChange = "2025-06-01 21:24:14 +0000";
layers = (
{
layerId = m01;
shapes = (
{
closed = 1;
nodes = (
(255,-5,o),
(276,-2,o),
(272,16,cs),
(269,31,o),
(255,38,o),
(241,45,cs),
(218,57,o),
(189,73,o),
(180,120,cs),
(172,162,o),
(182,226,o),
(201,326,cs),
(211,382,o),
(220,424,o),
(225,446,cs),
(229,462,o),
(231,465,o),
(235,465,cs),
(240,465,o),
(246,454,o),
(253,441,cs),
(267,415,o),
(374,236,o),
(386,209,cs),
(396,188,o),
(403,173,o),
(421,173,cs),
(436,173,o),
(442,187,o),
(446,198,cs),
(447,202,o),
(448,204,o),
(450,208,cs),
(567,455,ls),
(577,476,o),
(583,485,o),
(595,485,cs),
(605,485,o),
(612,473,o),
(628,390,cs),
(643,312,o),
(650,204,o),
(653,146,cs),
(656,86,o),
(648,70,o),
(626,56,cs),
(617,51,ls),
(603,43,o),
(587,33,o),
(590,17,cs),
(594,-6,o),
(615,-5,o),
(734,-5,cs),
(853,-5,o),
(873,-2,o),
(869,19,cs),
(866,30,o),
(860,36,o),
(837,47,cs),
(813,58,o),
(792,74,o),
(773,143,cs),
(753,212,o),
(728,404,o),
(720,479,cs),
(718,498,o),
(714,521,o),
(714,544,cs),
(714,566,o),
(718,587,o),
(732,602,cs),
(739,610,o),
(748,617,o),
(757,624,cs),
(776,639,o),
(795,653,o),
(791,674,cs),
(789,686,o),
(778,696,o),
(760,696,cs),
(748,696,o),
(704,689,o),
(685,689,cs),
(668,689,o),
(656,690,o),
(644,691,cs),
(614,692,ls),
(587,692,o),
(565,675,o),
(570,646,cs),
(575,620,o),
(569,606,o),
(558,584,cs),
(450,370,ls),
(445,360,o),
(440,351,o),
(436,351,cs),
(430,351,o),
(426,357,o),
(413,379,cs),
(379,437,o),
(303,583,o),
(296,620,cs),
(294,630,o),
(296,638,o),
(298,647,cs),
(300,655,o),
(302,665,o),
(300,674,cs),
(298,685,o),
(289,696,o),
(275,696,cs),
(259,696,o),
(229,682,o),
(213,682,cs),
(193,682,o),
(150,692,o),
(132,692,cs),
(111,692,o),
(96,685,o),
(100,663,cs),
(103,649,o),
(116,640,o),
(131,630,cs),
(176,601,o),
(181,577,o),
(181,537,cs),
(181,492,o),
(156,384,o),
(147,340,cs),
(118,198,o),
(103,102,o),
(82,82,cs),
(66,65,o),
(51,55,o),
(39,47,cs),
(24,38,o),
(13,30,o),
(15,18,cs),
(21,-9,o),
(72,-5,o),
(138,-5,cs)
);
}
);
width = 894;
},
{
associatedMasterId = m01;
backgroundImage = {
imagePath = "/Downloads/Images/M_-Regular.tif";
locked = 1;
pos = (-117,-98);
scale = (2.9729,2.9729);
};
layerId = "1FFDA39D-98B4-4261-894B-40A6CDADF598";
name = "19 nov. 24 à 17:10";
shapes = (
{
closed = 1;
nodes = (
(606,687,o),
(587,672,o),
(587,647,cs),
(587,632,o),
(586,621,o),
(577,604,cs),
(568,587,o),
(452,377,o),
(445,366,cs),
(438,355,o),
(430,344,o),
(422,344,cs),
(413,344,o),
(409,352,o),
(398,374,cs),
(369,432,o),
(317,582,o),
(317,619,cs),
(317,640,o),
(329,655,o),
(329,669,cs),
(329,683,o),
(323,691,o),
(310,691,cs),
(296,691,o),
(268,677,o),
(242,677,cs),
(215,677,o),
(175,687,o),
(157,687,cs),
(144,687,o),
(126,680,o),
(126,664,cs),
(126,636,o),
(196,628,o),
(196,576,cs),
(196,509,o),
(173,477,o),
(140,339,cs),
(109,210,o),
(81,100,o),
(55,78,cs),
(11,41,o),
(-22,36,o),
(-22,19,cs),
(-22,-4,o),
(30,0,o),
(100,0,cs),
(218,0,o),
(239,2,o),
(239,15,cs),
(239,44,o),
(169,41,o),
(157,101,cs),
(149,141,o),
(154,215,o),
(185,327,cs),
(221,456,o),
(225,470,o),
(239,470,cs),
(250,470,o),
(257,446,o),
(265,428,cs),
(273,410,o),
(347,233,o),
(355,211,cs),
(363,189,o),
(366,178,o),
(382,178,cs),
(398,178,o),
(403,194,o),
(412,210,cs),
(421,226,o),
(537,440,o),
(548,457,cs),
(559,474,o),
(567,490,o),
(578,490,cs),
(593,490,o),
(599,474,o),
(603,378,cs),
(606,312,o),
(600,204,o),
(595,146,cs),
(590,88,o),
(579,70,o),
(552,55,cs),
(534,45,o),
(511,37,o),
(511,21,cs),
(511,3,o),
(530,3,o),
(657,3,cs),
(781,3,o),
(796,5,o),
(796,21,cs),
(796,29,o),
(790,35,o),
(769,45,cs),
(744,57,o),
(722,73,o),
(711,142,cs),
(700,211,o),
(690,401,o),
(696,479,cs),
(699,514,o),
(709,575,o),
(742,605,cs),
(769,630,o),
(814,647,o),
(814,666,cs),
(814,685,o),
(802,691,o),
(791,691,cs),
(780,691,o),
(741,683,o),
(708,683,cs),
(675,683,o),
(647,687,o),
(627,687,cs)
);
}
);
width = 843;
}
);
unicode = 77;
},
{
glyphname = N;
lastChange = "2025-07-02 13:22:34 +0000";
layers = (
{
anchors = (
{
name = bottom;
pos = (430,0);
},
{
name = top;
pos = (401,680);
}
);
layerId = m01;
shapes = (
{
closed = 1;
nodes = (
(612,-14,o),
(631,3,o),
(632,38,cs),
(634,93,o),
(638,193,o),
(642,281,cs),
(642,300,o),
(643,318,o),
(644,336,cs),
(649,465,o),
(648,562,o),
(673,596,cs),
(685,612,o),
(700,620,o),
(713,627,cs),
(727,635,o),
(740,641,o),
(737,657,cs),
(732,685,o),
(678,681,o),
(610,681,cs),
(528,681,o),
(470,681,o),
(475,653,cs),
(478,640,o),
(493,634,o),
(507,628,cs),
(529,618,o),
(557,605,o),
(570,572,cs),
(586,533,o),
(590,461,o),
(585,348,cs),
(583,306,o),
(582,266,o),
(582,239,cs),
(582,222,o),
(581,208,o),
(581,201,cs),
(579,186,o),
(578,178,o),
(571,178,cs),
(564,178,o),
(557,190,o),
(546,207,cs),
(542,214,o),
(293,533,o),
(284,548,cs),
(268,576,o),
(260,592,o),
(260,610,cs),
(260,624,o),
(265,638,o),
(265,655,cs),
(265,685,o),
(236,689,o),
(158,689,cs),
(71,689,o),
(20,688,o),
(25,661,cs),
(29,643,o),
(48,636,o),
(68,628,cs),
(95,618,o),
(121,609,o),
(127,577,cs),
(142,503,o),
(131,396,o),
(131,339,cs),
(131,210,o),
(129,110,o),
(101,76,cs),
(89,61,o),
(74,51,o),
(62,44,cs),
(50,37,o),
(38,29,o),
(40,18,cs),
(45,-10,o),
(99,-5,o),
(167,-5,cs),
(281,-5,o),
(306,-3,o),
(303,16,cs),
(300,30,o),
(284,38,o),
(268,46,cs),
(246,57,o),
(220,70,o),
(207,103,cs),
(191,142,o),
(190,214,o),
(190,327,cs),
(190,369,o),
(192,445,o),
(192,457,cs),
(192,469,o),
(194,474,o),
(199,474,cs),
(204,474,o),
(206,471,o),
(215,457,cs),
(238,412,o),
(493,86,o),
(528,38,cs),
(549,6,o),
(569,-14,o),
(590,-14,cs)
);
}
);
width = 762;
},
{
associatedMasterId = m01;
backgroundImage = {
angle = -0.1;
imagePath = "/Downloads/Images/N_-Regular.tif";
locked = 1;
pos = (-125,-76);
scale = (2.9729,2.9729);
};
layerId = "094D8AAA-205C-4BB1-B28D-6C53FD9BA588";
name = "31 oct. 24 à 17:00";
shapes = (
{
closed = 1;
nodes = (
(131,218,o),
(121,164,o),
(47,125,cs),
(-19,90,o),
(-31,70,o),
(-31,40,cs),
(-31,10,o),
(-9,-16,o),
(28,-16,cs),
(77,-16,o),
(140,6,o),
(180,195,cs),
(220,384,o),
(230,431,o),
(236,457,cs),
(239,470,o),
(242,478,o),
(250,478,cs),
(257,478,o),
(260,473,o),
(266,459,cs),
(271,448,o),
(429,72,o),
(445,40,cs),
(461,8,o),
(480,-9,o),
(500,-9,cs),
(520,-9,o),
(539,5,o),
(547,38,cs),
(571,139,o),
(631,400,o),
(645,438,cs),
(688,555,o),
(825,544,o),
(825,628,cs),
(825,672,o),
(798,696,o),
(760,696,cs),
(702,696,o),
(652,656,o),
(616,524,cs),
(580,392,o),
(547,236,o),
(537,201,cs),
(533,186,o),
(528,173,o),
(516,173,cs),
(506,173,o),
(502,181,o),
(495,201,cs),
(488,221,o),
(358,521,o),
(349,547,cs),
(340,573,o),
(336,590,o),
(336,602,cs),
(336,629,o),
(353,643,o),
(353,661,cs),
(353,677,o),
(342,684,o),
(251,684,cs),
(162,684,o),
(115,683,o),
(115,662,cs),
(115,628,o),
(204,637,o),
(204,578,cs),
(204,519,o),
(193,481,o),
(164,358,cs)
);
}
);
width = 765;
},
{
associatedMasterId = m01;
backgroundImage = {
angle = -0.1;
imagePath = "/Downloads/Images/N_-Regular.tif";
locked = 1;
pos = (-125,-76);
scale = (2.9729,2.9729);
};
layerId = "94269BE9-8899-4D92-9D9C-964E061F7703";
name = "31 oct. 24 à 17:02";
shapes = (
{
closed = 1;
nodes = (
(227,409,o),
(232,438,o),
(236,457,cs),
(239,470,o),
(242,478,o),
(250,478,cs),
(257,478,o),
(260,473,o),
(266,459,cs),
(271,448,o),
(429,72,o),
(445,40,cs),
(461,8,o),
(480,-9,o),
(500,-9,cs),
(520,-9,o),
(539,5,o),
(547,38,cs),
(571,139,o),
(635,401,o),
(645,438,cs),
(698,635,o),
(825,544,o),
(825,628,cs),
(825,672,o),
(798,696,o),
(760,696,cs),
(702,696,o),
(652,656,o),
(616,524,cs),
(580,392,o),
(547,236,o),
(537,201,cs),
(533,186,o),
(528,173,o),
(516,173,cs),
(506,173,o),
(502,181,o),
(495,201,cs),
(488,221,o),
(358,521,o),
(349,547,cs),
(340,573,o),
(336,590,o),
(336,602,cs),
(336,629,o),
(353,643,o),
(353,661,cs),
(353,677,o),
(342,684,o),
(251,684,cs),
(162,684,o),
(115,683,o),
(115,662,cs),
(115,628,o),
(204,637,o),
(204,578,cs),
(204,498,o),
(177,399,o),
(162,339,cs),
(131,210,o),
(103,100,o),
(77,78,cs),
(33,41,o),
(0,36,o),
(0,19,cs),
(0,-4,o),
(52,0,o),
(122,0,cs),
(240,0,o),
(261,2,o),
(261,15,cs),
(261,44,o),
(191,41,o),
(179,101,cs),
(171,141,o),
(179,214,o),
(207,327,cs)
);
}
);
width = 765;
},
{
associatedMasterId = m01;
backgroundImage = {
angle = -0.1;
imagePath = "/Downloads/Images/N_-Regular.tif";
locked = 1;
pos = (-148,-76);
scale = (2.9729,2.9729);
};
layerId = "E9E54F51-0507-4C41-9FCF-BA3FE8B30AB9";
name = "19 nov. 24 à 17:09";
shapes = (
{
closed = 1;
nodes = (
(636,465,o),
(664,575,o),
(690,597,cs),
(734,634,o),
(767,639,o),
(767,656,cs),
(767,679,o),
(715,675,o),
(645,675,cs),
(527,675,o),
(506,673,o),
(506,660,cs),
(506,631,o),
(576,634,o),
(588,574,cs),
(596,534,o),
(588,461,o),
(560,348,cs),
(544,281,o),
(529,220,o),
(524,201,cs),
(520,186,o),
(515,173,o),
(503,173,cs),
(493,173,o),
(489,181,o),
(482,201,cs),
(475,221,o),
(335,521,o),
(326,547,cs),
(317,573,o),
(313,590,o),
(313,602,cs),
(313,629,o),
(330,643,o),
(330,661,cs),
(330,677,o),
(319,684,o),
(228,684,cs),
(139,684,o),
(92,683,o),
(92,662,cs),
(92,628,o),
(181,637,o),
(181,578,cs),
(181,498,o),
(151,399,o),
(139,339,cs),
(113,210,o),
(81,100,o),
(55,78,cs),
(11,41,o),
(-22,36,o),
(-22,19,cs),
(-22,-4,o),
(30,0,o),
(100,0,cs),
(218,0,o),
(239,2,o),
(239,15,cs),
(239,44,o),
(169,41,o),
(157,101,cs),
(149,141,o),
(159,214,o),
(184,327,cs),
(202,409,o),
(209,438,o),
(213,457,cs),
(216,470,o),
(221,479,o),
(229,479,cs),
(236,479,o),
(241,474,o),
(247,460,cs),
(252,449,o),
(420,73,o),
(436,41,cs),
(452,9,o),
(467,-9,o),
(487,-9,cs),
(507,-9,o),
(526,5,o),
(534,38,cs),
(550,104,o),
(581,241,o),
(605,336,cs)
);
}
);
width = 726;
}
);
unicode = 78;
},
{
glyphname = O;
lastChange = "2025-07-02 13:35:20 +0000";
layers = (
{
anchors = (
{
name = bottom;
pos = (430,0);
},
{
name = center;
pos = (382,340);
},
{
name = ogonek;
pos = (705,10);
},
{
name = top;
pos = (375,680);
},
{
name = topleft;
pos = (8,680);
},
{
name = topright;
pos = (660,680);
}
);
layerId = m01;
shapes = (
{
closed = 1;
nodes = (
(620,-16,o),
(722,163,o),
(722,329,cs),
(722,516,o),
(592,696,o),
(366,696,cs),
(127,696,o),
(40,496,o),
(40,349,cs),
(40,162,o),
(180,-16,o),
(400,-16,cs)
);
},
{
closed = 1;
nodes = (
(279,52,o),
(166,214,o),
(166,385,cs),
(166,506,o),
(223,628,o),
(352,628,cs),
(493,628,o),
(584,484,o),
(584,306,cs),
(584,180,o),
(539,52,o),
(417,52,cs)
);
}
);
width = 762;
},
{
anchors = (
{
name = bottom;
pos = (435,0);
},
{
name = center;
pos = (387,340);
},
{
name = ogonek;
pos = (710,10);
},
{
name = top;
pos = (336,680);
},
{
name = topleft;
pos = (13,680);
},
{
name = topright;
pos = (665,680);
}
);
associatedMasterId = m01;
layerId = "E92ABA1A-1606-4CDD-BD57-3F0C51487616";
name = "28 mai 25 à 17:34";
shapes = (
{
closed = 1;
nodes = (
(623,-16,o),
(727,163,o),
(727,330,cs),
(727,516,o),
(601,696,o),
(362,696,cs),
(137,696,o),
(45,496,o),
(45,351,cs),
(45,162,o),
(181,-16,o),
(410,-16,cs)
);
},
{
closed = 1;
nodes = (
(272,50,o),
(160,255,o),
(160,417,cs),
(160,519,o),
(216,632,o),
(329,632,cs),
(515,632,o),
(601,411,o),
(601,246,cs),
(601,157,o),
(557,50,o),
(446,50,cs)
);
}
);
width = 772;
},
{
anchors = (
{
name = bottom;
pos = (435,0);
},
{
name = center;
pos = (387,340);
},
{
name = ogonek;
pos = (710,10);
},
{
name = top;
pos = (336,680);
},
{
name = topleft;
pos = (13,680);
},
{
name = topright;
pos = (665,680);
}
);
associatedMasterId = m01;
layerId = "1AF4EA83-A45C-439D-B76D-D2B9CA342E7F";
name = "29 mai 25 à 17:10";
shapes = (
{
closed = 1;
nodes = (
(623,-16,o),
(727,163,o),
(727,330,cs),
(727,516,o),
(601,696,o),
(362,696,cs),
(137,696,o),
(45,496,o),
(45,351,cs),
(45,162,o),
(181,-16,o),
(410,-16,cs)
);
},
{
closed = 1;
nodes = (
(274,51,o),
(165,234,o),
(165,407,cs),
(165,526,o),
(228,631,o),
(349,631,cs),
(523,619,o),
(595,424,o),
(595,265,cs),
(595,158,o),
(549,51,o),
(439,51,cs)
);
}
);
width = 772;
}
);
unicode = 79;
},
{
glyphname = OE;
lastChange = "2025-07-02 13:30:05 +0000";
layers = (
{
anchors = (
{
name = bottom;
pos = (430,0);
},
{
name = center;
pos = (382,340);
},
{
name = ogonek;
pos = (705,10);
},
{
name = top;
pos = (372,680);
},
{
name = topleft;
pos = (8,680);
},
{
name = topright;
pos = (660,680);
}
);
background = {
guides = (
{
pos = (173,710);
},
{
pos = (173,710);
}
);
shapes = (
{
pos = (411,0);
ref = E;
}
);
};
layerId = m01;
shapes = (
{
closed = 1;
nodes = (
(454,-16,o),
(512,-5,o),
(567,-5,cs),
(785,-6,ls),
(852,-6,o),
(890,-10,o),
(944,-10,cs),
(969,-10,o),
(983,-2,o),
(984,19,cs),
(986,37,o),
(993,162,o),
(988,184,cs),
(986,198,o),
(978,213,o),
(964,213,cs),
(950,213,o),
(944,203,o),
(936,185,cs),
(899,92,o),
(822,51,o),
(766,51,cs),
(681,51,o),
(618,67,o),
(620,179,cs),
(622,289,ls),
(623,323,o),
(634,335,o),
(699,335,cs),
(755,335,o),
(767,299,o),
(778,267,cs),
(785,247,o),
(792,228,o),
(812,228,cs),
(855,228,o),
(852,384,o),
(841,440,cs),
(836,464,o),
(828,488,o),
(813,488,cs),
(800,488,o),
(795,475,o),
(790,461,cs),
(780,433,o),
(766,393,o),
(702,393,cs),
(637,393,o),
(624,414,o),
(624,450,cs),
(625,523,ls),
(626,601,o),
(648,627,o),
(771,627,cs),
(861,627,o),
(918,577,o),
(934,492,cs),
(938,473,o),
(945,465,o),
(958,465,cs),
(997,465,o),
(993,612,o),
(988,640,cs),
(984,658,o),
(986,670,o),
(944,677,cs),
(898,684,o),
(815,685,o),
(756,684,cs),
(592,681,ls),
(505,680,o),
(476,696,o),
(374,696,cs),
(127,696,o),
(40,496,o),
(40,349,cs),
(40,162,o),
(180,-16,o),
(400,-16,cs)
);
},
{
closed = 1;
nodes = (
(279,48,o),
(166,214,o),
(166,385,cs),
(166,506,o),
(223,628,o),
(362,628,cs),
(453,628,o),
(526,590,o),
(525,475,cs),
(522,189,ls),
(521,99,o),
(490,48,o),
(417,48,cs)
);
}
);
width = 1041;
}
);
metricLeft = O;
metricRight = E;
unicode = 338;
},
{
glyphname = P;
lastChange = "2025-06-01 21:24:14 +0000";
layers = (
{
layerId = m01;
shapes = (
{
closed = 1;
nodes = (
(124,-5,o),
(139,-5,o),
(155,-5,cs),
(176,-5,o),
(195,-5,o),
(209,-5,cs),
(276,-6,o),
(292,-4,o),
(292,10,cs),
(292,28,o),
(278,34,o),
(265,42,cs),
(238,58,o),
(207,78,o),
(207,165,cs),
(207,208,ls),
(207,256,o),
(230,265,o),
(283,265,cs),
(458,265,o),
(562,397,o),
(562,486,cs),
(562,635,o),
(433,688,o),
(295,688,cs),
(131,688,ls),
(67,688,o),
(44,684,o),
(44,667,cs),
(44,650,o),
(57,646,o),
(68,639,cs),
(89,627,o),
(116,612,o),
(115,534,cs),
(111,188,ls),
(110,84,o),
(74,60,o),
(50,45,cs),
(38,37,o),
(28,31,o),
(31,16,cs),
(35,-6,o),
(55,-6,o),
(113,-5,cs)
);
},
{
closed = 1;
nodes = (
(228,321,o),
(208,339,o),
(211,383,cs),
(211,518,ls),
(216,603,o),
(246,631,o),
(305,631,cs),
(394,631,o),
(443,565,o),
(443,491,cs),
(443,381,o),
(347,321,o),
(273,321,cs)
);
}
);
width = 592;
}
);
metricLeft = I;
unicode = 80;
},
{
glyphname = Q;
lastChange = "2025-06-01 21:24:14 +0000";
layers = (
{
background = {
shapes = (
{
pos = (5,0);
ref = O;
}
);
};
layerId = m01;
shapes = (
{
closed = 1;
nodes = (
(672,-251,o),
(793,-144,o),
(793,-108,cs),
(793,-93,o),
(783,-86,o),
(772,-86,cs),
(744,-86,o),
(717,-154,o),
(645,-154,cs),
(599,-154,o),
(520,-104,o),
(440,-94,cs),
(404,-89,o),
(382,-85,o),
(380,-75,cs),
(376,-55,o),
(408,-41,o),
(453,-22,cs),
(602,43,o),
(722,140,o),
(722,329,cs),
(722,516,o),
(592,696,o),
(366,696,cs),
(127,696,o),
(40,496,o),
(40,349,cs),
(40,231,o),
(69,131,o),
(254,14,cs),
(291,-9,o),
(316,-24,o),
(316,-47,cs),
(316,-73,o),
(279,-94,o),
(238,-116,cs),
(199,-136,o),
(158,-157,o),
(158,-187,cs),
(158,-208,o),
(175,-218,o),
(190,-218,cs),
(198,-218,o),
(213,-211,o),
(228,-204,cs),
(256,-191,o),
(293,-175,o),
(328,-175,cs),
(365,-175,o),
(431,-202,o),
(465,-217,cs),
(507,-235,o),
(544,-251,o),
(585,-251,cs)
);
},
{
closed = 1;
nodes = (
(249,55,o),
(166,234,o),
(166,385,cs),
(166,506,o),
(223,628,o),
(352,628,cs),
(493,628,o),
(584,484,o),
(584,306,cs),
(584,184,o),
(524,55,o),
(414,55,cs)
);
}
);
width = 764;
},
{
associatedMasterId = m01;
backgroundImage = {
imagePath = "/Downloads/Images/Q_-Regular.tif";
locked = 1;
pos = (-87,-310);
scale = (2.9729,2.9729);
};
layerId = "A2E6EB28-5777-483A-98A5-4BE7ED707151";
name = "31 oct. 24 à 12:31";
shapes = (
{
ref = O;
},
{
closed = 1;
nodes = (
(209,1,o),
(217,-13,o),
(217,-24,cs),
(217,-79,o),
(19,-163,o),
(19,-199,cs),
(19,-216,o),
(36,-229,o),
(47,-229,cs),
(59,-229,o),
(171,-164,o),
(234,-164,cs),
(329,-164,o),
(362,-275,o),
(446,-275,cs),
(541,-275,o),
(693,-160,o),
(693,-122,cs),
(693,-106,o),
(684,-103,o),
(675,-103,cs),
(656,-103,o),
(591,-157,o),
(536,-157,cs),
(481,-157,o),
(426,-90,o),
(360,-90,cs),
(294,-90,o),
(265,-109,o),
(253,-109,cs),
(242,-109,o),
(239,-103,o),
(239,-97,cs),
(239,-70,o),
(372,-12,o),
(413,1,c),
(354,18,l),
(183,13,l)
);
}
);
width = 643;
},
{
associatedMasterId = m01;
backgroundImage = {
imagePath = "/Downloads/Images/Q_-Regular.tif";
locked = 1;
pos = (-87,-310);
scale = (2.9729,2.9729);
};
layerId = "F84C6CB8-DA1B-42CA-9577-F4152897EDD8";
name = "31 oct. 24 à 15:26";
shapes = (
{
ref = O;
},
{
closed = 1;
nodes = (
(571,-246,o),
(713,-134,o),
(713,-106,cs),
(713,-97,o),
(707,-92,o),
(698,-92,cs),
(679,-92,o),
(611,-146,o),
(556,-146,cs),
(499,-146,o),
(446,-85,o),
(380,-85,cs),
(324,-85,o),
(286,-108,o),
(272,-108,cs),
(262,-108,o),
(259,-103,o),
(259,-97,cs),
(259,-70,o),
(392,-12,o),
(433,1,c),
(374,18,l),
(203,13,l),
(229,1,o),
(237,-13,o),
(237,-24,cs),
(237,-79,o),
(39,-163,o),
(39,-199,cs),
(39,-216,o),
(52,-221,o),
(63,-221,cs),
(85,-221,o),
(191,-153,o),
(254,-153,cs),
(349,-153,o),
(402,-246,o),
(476,-246,cs)
);
}
);
width = 732;
},
{
associatedMasterId = m01;
backgroundImage = {
imagePath = "/Downloads/Images/Q_-Regular.tif";
locked = 1;
pos = (-87,-310);
scale = (2.9729,2.9729);
};
layerId = "EB461433-BCF2-4877-B41B-5F56C7B427EF";
name = "31 oct. 24 à 15:45";
shapes = (
{
ref = O;
},
{
closed = 1;
nodes = (
(571,-246,o),
(713,-134,o),
(713,-106,cs),
(713,-97,o),
(707,-92,o),
(698,-92,cs),
(679,-92,o),
(611,-146,o),
(556,-146,cs),
(499,-146,o),
(446,-85,o),
(380,-85,cs),
(324,-85,o),
(306,-98,o),
(292,-98,cs),
(282,-98,o),
(279,-93,o),
(279,-87,cs),
(279,-60,o),
(392,-12,o),
(433,1,c),
(374,18,l),
(203,13,l),
(229,1,o),
(237,-13,o),
(237,-24,cs),
(237,-79,o),
(39,-163,o),
(39,-199,cs),
(39,-216,o),
(52,-221,o),
(63,-221,cs),
(85,-221,o),
(191,-153,o),
(254,-153,cs),
(349,-153,o),
(402,-246,o),
(476,-246,cs)
);
}
);
width = 732;
},
{
associatedMasterId = m01;
backgroundImage = {
imagePath = "/Downloads/Images/Q_-Regular.tif";
locked = 1;
pos = (-87,-310);
scale = (2.9729,2.9729);
};
layerId = "CB18FBB1-69DB-48B8-ADBD-5ABD8838F757";
name = "31 oct. 24 à 16:15";
shapes = (
{
ref = O;
},
{
closed = 1;
nodes = (
(561,-246,o),
(710,-124,o),
(710,-103,cs),
(710,-96,o),
(707,-91,o),
(699,-91,cs),
(677,-91,o),
(621,-153,o),
(566,-153,cs),
(509,-153,o),
(446,-85,o),
(380,-85,cs),
(324,-85,o),
(306,-98,o),
(292,-98,cs),
(282,-98,o),
(279,-93,o),
(279,-87,cs),
(279,-60,o),
(370,-12,o),
(433,2,c),
(374,18,l),
(203,15,l),
(229,1,o),
(251,-13,o),
(251,-34,cs),
(251,-99,o),
(45,-163,o),
(45,-203,cs),
(45,-216,o),
(52,-221,o),
(63,-221,cs),
(85,-221,o),
(191,-154,o),
(254,-154,cs),
(349,-154,o),
(402,-246,o),
(476,-246,cs)
);
}
);
width = 732;
},
{
associatedMasterId = m01;
layerId = "CC97EA85-1CE1-4B9F-82D1-D6759A01FCEA";
name = "8 janv. 25 à 12:16";
shapes = (
{
closed = 1;
nodes = (
(216,42,o),
(159,220,o),
(159,342,cs),
(159,484,o),
(209,640,o),
(349,640,cs),
(483,640,o),
(536,471,o),
(536,342,cs),
(536,215,o),
(496,42,o),
(356,42,cs)
);
},
{
closed = 1;
nodes = (
(567,-246,o),
(696,-144,o),
(696,-113,cs),
(696,-106,o),
(693,-91,o),
(675,-91,cs),
(653,-91,o),
(607,-151,o),
(550,-151,cs),
(495,-151,o),
(442,-116,o),
(366,-103,cs),
(320,-95,o),
(285,-93,o),
(285,-76,cs),
(285,-37,o),
(411,0,o),
(446,14,cs),
(574,71,o),
(659,232,o),
(659,404,cs),
(659,566,o),
(563,694,o),
(386,694,cs),
(165,694,o),
(43,497,o),
(43,285,cs),
(43,168,o),
(96,60,o),
(195,12,c),
(219,-2,o),
(237,-21,o),
(237,-41,cs),
(237,-106,o),
(51,-133,o),
(51,-193,cs),
(51,-206,o),
(62,-213,o),
(73,-213,cs),
(95,-213,o),
(178,-159,o),
(240,-172,cs),
(335,-192,o),
(389,-246,o),
(462,-246,cs)
);
}
);
width = 718;
}
);
metricLeft = O;
unicode = 81;
},
{
glyphname = R;
lastChange = "2025-07-02 13:42:29 +0000";
layers = (
{
anchors = (
{
name = bottom;
pos = (409,0);
},
{
name = top;
pos = (319,680);
}
);
layerId = m01;
shapes = (
{
closed = 1;
nodes = (
(657,-12,o),
(713,-8,o),
(708,19,cs),
(705,34,o),
(689,42,o),
(659,56,cs),
(652,59,o),
(644,63,o),
(636,67,cs),
(582,92,o),
(507,177,o),
(465,228,cs),
(435,265,o),
(416,286,o),
(416,302,cs),
(416,319,o),
(427,330,o),
(452,345,cs),
(520,384,o),
(583,457,o),
(583,538,cs),
(583,659,o),
(446,688,o),
(325,688,cs),
(131,688,ls),
(59,688,o),
(41,682,o),
(45,659,cs),
(47,649,o),
(57,644,o),
(65,640,cs),
(86,630,o),
(116,616,o),
(115,534,cs),
(111,188,ls),
(110,81,o),
(74,59,o),
(50,45,cs),
(39,39,o),
(28,33,o),
(31,18,cs),
(36,-9,o),
(65,-9,o),
(156,-9,cs),
(271,-9,o),
(296,-8,o),
(292,15,cs),
(289,30,o),
(279,35,o),
(267,42,cs),
(243,55,o),
(208,74,o),
(206,178,cs),
(205,235,ls),
(204,269,o),
(216,286,o),
(253,286,cs),
(313,286,o),
(360,202,o),
(413,125,cs),
(459,59,o),
(488,-12,o),
(601,-12,cs)
);
},
{
closed = 1;
nodes = (
(237,348,o),
(219,370,o),
(219,406,cs),
(219,518,ls),
(219,603,o),
(242,631,o),
(335,631,cs),
(423,631,o),
(456,577,o),
(456,513,cs),
(456,416,o),
(370,348,o),
(295,348,cs)
);
}
);
width = 703;
},
{
associatedMasterId = m01;
layerId = "D5FA4BF8-2D32-465B-B72B-CB4BA4F1F8C5";
name = "9 janv. 25 à 11:46";
shapes = (
{
closed = 1;
nodes = (
(531,-7,o),
(583,-3,o),
(583,18,cs),
(583,34,o),
(564,40,o),
(522,62,cs),
(484,82,o),
(412,157,o),
(381,212,cs),
(350,267,o),
(346,282,o),
(346,291,cs),
(346,309,o),
(355,316,o),
(425,349,cs),
(522,395,o),
(593,490,o),
(593,565,cs),
(593,666,o),
(460,683,o),
(366,683,cs),
(202,683,ls),
(132,683,o),
(117,677,o),
(117,660,cs),
(117,635,o),
(185,655,o),
(162,534,cs),
(130,380,l),
(206,380,l),
(167,259,l),
(187,253,l),
(192,279,o),
(199,291,o),
(214,291,cs),
(255,291,o),
(338,110,o),
(371,50,cs),
(393,11,o),
(421,-7,o),
(476,-7,cs)
);
},
{
alignment = -1;
pos = (-20,0);
ref = "cap-empat-bas";
},
{
closed = 1;
nodes = (
(243,343,o),
(223,368,o),
(230,400,cs),
(234,427,o),
(244,474,o),
(253,518,cs),
(271,605,o),
(301,636,o),
(367,636,cs),
(429,636,o),
(473,606,o),
(473,547,cs),
(473,429,o),
(355,343,o),
(270,343,cs)
);
}
);
width = 625;
}
);
metricLeft = I;
unicode = 82;
},
{
glyphname = S;
lastChange = "2025-07-02 13:49:20 +0000";
layers = (
{
anchors = (
{
name = bottom;
pos = (317,-2);
},
{
name = top;
pos = (281,680);
}
);
layerId = m01;
shapes = (
{
closed = 1;
nodes = (
(436,-16,o),
(548,66,o),
(548,191,cs),
(548,293,o),
(474,331,o),
(344,399,cs),
(260,443,o),
(191,468,o),
(191,549,cs),
(191,605,o),
(224,643,o),
(281,643,cs),
(354,643,o),
(404,579,o),
(440,506,cs),
(455,476,o),
(459,461,o),
(477,461,cs),
(517,461,o),
(533,538,o),
(533,607,cs),
(533,642,o),
(529,696,o),
(494,696,cs),
(460,696,o),
(472,647,o),
(445,647,cs),
(417,647,o),
(373,696,o),
(283,696,cs),
(172,696,o),
(77,620,o),
(77,518,cs),
(77,409,o),
(185,354,o),
(256,322,cs),
(342,283,o),
(437,251,o),
(437,163,cs),
(437,101,o),
(391,39,o),
(304,39,cs),
(241,39,o),
(177,71,o),
(177,133,cs),
(177,170,o),
(203,186,o),
(203,211,cs),
(203,234,o),
(180,261,o),
(140,261,cs),
(89,261,o),
(45,216,o),
(45,152,cs),
(45,42,o),
(168,-16,o),
(290,-16,cs)
);
}
);
width = 608;
},
{
anchors = (
{
name = bottom;
pos = (324,-17);
},
{
name = top;
pos = (312,680);
}
);
associatedMasterId = m01;
layerId = "6CCAB6F3-ADAC-48CC-8C87-3193C9CE42AF";
name = "28 mai 25 à 15:49";
shapes = (
{
closed = 1;
nodes = (
(187,269,o),
(164,291,o),
(134,291,cs),
(77,291,o),
(43,235,o),
(43,184,cs),
(43,177,o),
(44,170,o),
(45,164,cs),
(62,74,o),
(166,-16,o),
(317,-16,cs),
(424,-16,o),
(542,44,o),
(542,170,cs),
(542,293,o),
(457,353,o),
(346,415,cs),
(278,452,o),
(198,484,o),
(198,563,cs),
(198,607,o),
(230,643,o),
(269,643,cs),
(324,643,o),
(372,591,o),
(407,531,cs),
(419,511,o),
(427,494,o),
(434,480,cs),
(447,454,o),
(456,437,o),
(473,437,cs),
(515,437,o),
(530,539,o),
(530,608,cs),
(530,627,o),
(529,644,o),
(527,655,cs),
(522,680,o),
(508,701,o),
(489,701,cs),
(473,701,o),
(467,686,o),
(462,674,cs),
(455,660,o),
(449,647,o),
(432,647,cs),
(419,647,o),
(408,654,o),
(394,663,cs),
(370,679,o),
(337,696,o),
(271,696,cs),
(179,696,o),
(84,640,o),
(84,544,cs),
(84,439,o),
(170,397,o),
(263,345,cs),
(352,295,o),
(431,249,o),
(431,147,cs),
(431,83,o),
(392,39,o),
(327,39,cs),
(240,39,o),
(166,91,o),
(166,164,cs),
(166,184,o),
(173,196,o),
(180,208,cs),
(186,218,o),
(192,229,o),
(192,242,cs),
(192,245,o),
(191,247,o),
(191,250,cs)
);
}
);
width = 607;
},
{
anchors = (
{
name = bottom;
pos = (331,-17);
},
{
name = top;
pos = (319,680);
}
);
associatedMasterId = m01;
layerId = "FEAEEBF7-8013-49D4-A3FD-5B4BF4808BE0";
name = "28 mai 25 à 16:34";
shapes = (
{
closed = 1;
nodes = (
(174,271,o),
(141,271,cs),
(84,271,o),
(50,215,o),
(50,164,cs),
(50,60,o),
(175,-16,o),
(304,-16,cs),
(441,-16,o),
(552,80,o),
(552,206,cs),
(552,319,o),
(464,350,o),
(353,412,cs),
(285,449,o),
(195,464,o),
(195,553,cs),
(195,607,o),
(237,643,o),
(276,643,cs),
(331,643,o),
(379,591,o),
(414,531,cs),
(426,511,o),
(434,494,o),
(441,480,cs),
(454,454,o),
(463,437,o),
(480,437,cs),
(522,437,o),
(537,539,o),
(537,608,cs),
(537,627,o),
(536,644,o),
(534,655,cs),
(529,680,o),
(515,701,o),
(496,701,cs),
(480,701,o),
(474,686,o),
(469,674,cs),
(462,660,o),
(456,647,o),
(439,647,cs),
(426,647,o),
(415,654,o),
(401,663,cs),
(377,679,o),
(344,696,o),
(278,696,cs),
(176,696,o),
(81,620,o),
(81,524,cs),
(81,419,o),
(177,374,o),
(270,332,cs),
(363,290,o),
(441,265,o),
(441,173,cs),
(441,119,o),
(399,39,o),
(305,39,cs),
(247,39,o),
(173,71,o),
(173,144,cs),
(173,180,o),
(199,195,o),
(199,222,cs),
(199,244,o)
);
}
);
width = 622;
},
{
anchors = (
{
name = bottom;
pos = (335,-17);
},
{
name = top;
pos = (323,680);
}
);
associatedMasterId = m01;
layerId = "20C3E642-92A3-45B6-9E41-254475F5BED1";
name = "28 mai 25 à 17:26";
shapes = (
{
closed = 1;
nodes = (
(188,261,o),
(155,261,cs),
(98,261,o),
(55,206,o),
(55,155,cs),
(55,41,o),
(189,-16,o),
(298,-16,cs),
(445,-16,o),
(556,66,o),
(556,192,cs),
(556,305,o),
(458,340,o),
(347,402,cs),
(279,439,o),
(199,464,o),
(199,553,cs),
(199,607,o),
(241,643,o),
(290,643,cs),
(362,643,o),
(413,553,o),
(448,482,cs),
(461,456,o),
(467,437,o),
(484,437,cs),
(526,437,o),
(541,539,o),
(541,608,cs),
(541,645,o),
(537,696,o),
(500,696,cs),
(468,696,o),
(483,647,o),
(449,647,cs),
(430,647,o),
(378,696,o),
(292,696,cs),
(180,696,o),
(85,620,o),
(85,524,cs),
(85,419,o),
(171,364,o),
(264,322,cs),
(357,280,o),
(445,251,o),
(445,159,cs),
(445,105,o),
(403,39,o),
(309,39,cs),
(261,39,o),
(187,71,o),
(187,134,cs),
(187,170,o),
(213,185,o),
(213,212,cs),
(213,234,o)
);
}
);
width = 626;
}
);
unicode = 83;
},
{
glyphname = T;
lastChange = "2025-07-02 13:50:54 +0000";
layers = (
{
anchors = (
{
name = bottom;
pos = (352,0);
},
{
name = center;
pos = (369,340);
},
{
name = top;
pos = (354,680);
}
);
layerId = m01;
shapes = (
{
closed = 1;
nodes = (
(448,-5,o),
(468,-3,o),
(468,19,cs),
(468,34,o),
(454,39,o),
(443,45,cs),
(419,59,o),
(387,76,o),
(383,178,cs),
(380,261,o),
(383,409,o),
(390,496,cs),
(399,596,o),
(428,615,o),
(486,615,cs),
(555,615,o),
(581,579,o),
(596,502,cs),
(600,481,o),
(609,469,o),
(624,469,cs),
(669,469,o),
(690,610,o),
(680,662,cs),
(675,685,o),
(663,693,o),
(640,693,cs),
(624,693,o),
(598,691,o),
(568,689,cs),
(512,684,o),
(426,678,o),
(339,678,cs),
(244,678,o),
(170,685,o),
(127,689,cs),
(105,691,o),
(86,693,o),
(72,693,cs),
(14,693,o),
(5,557,o),
(12,519,cs),
(15,502,o),
(25,490,o),
(40,490,cs),
(63,490,o),
(75,515,o),
(87,540,cs),
(106,578,o),
(127,622,o),
(198,622,cs),
(244,622,o),
(284,604,o),
(287,532,cs),
(292,450,o),
(288,241,o),
(288,188,cs),
(287,82,o),
(251,62,o),
(227,49,cs),
(216,43,o),
(205,36,o),
(208,19,cs),
(212,-4,o),
(242,-5,o),
(333,-5,cs)
);
}
);
width = 697;
},
{
associatedMasterId = m01;
backgroundImage = {
angle = -0.1;
imagePath = "/Downloads/Images/T_-Regular.tif";
locked = 1;
pos = (-105,-27);
scale = (2.9729,2.9729);
};
layerId = "E3ACF2BF-85BC-4168-8FBC-EEDB7F8B8569";
name = "31 oct. 24 à 16:21";
shapes = (
{
closed = 1;
nodes = (
(368,380,l),
(379,419,o),
(388,459,o),
(399,498,cs),
(429,605,o),
(448,635,o),
(525,635,cs),
(612,635,o),
(624,605,o),
(624,519,cs),
(624,503,o),
(629,496,o),
(638,496,cs),
(667,496,o),
(722,669,o),
(722,706,cs),
(722,715,o),
(717,720,o),
(708,720,cs),
(664,720,o),
(598,675,o),
(479,675,cs),
(437,675,o),
(395,674,o),
(355,674,cs),
(153,674,o),
(156,730,o),
(119,730,cs),
(80,730,o),
(40,569,o),
(40,538,cs),
(40,527,o),
(44,517,o),
(55,517,cs),
(62,517,o),
(72,517,o),
(89,544,cs),
(125,602,o),
(157,642,o),
(218,642,cs),
(293,642,o),
(324,610,o),
(315,534,cs),
(310,491,o),
(298,449,o),
(284,380,c)
);
},
{
alignment = -1;
pos = (134,0);
ref = "cap-empat-bas";
}
);
width = 678;
}
);
unicode = 84;
},
{
glyphname = U;
lastChange = "2025-07-02 13:51:34 +0000";
layers = (
{
anchors = (
{
name = bottom;
pos = (437,0);
},
{
name = ogonek;
pos = (439,-12);
},
{
name = top;
pos = (364,680);
},
{
name = topright;
pos = (661,680);
}
);
layerId = m01;
shapes = (
{
closed = 1;
nodes = (
(598,-16,o),
(639,153,o),
(632,337,cs),
(626,458,o),
(617,559,o),
(651,606,cs),
(660,618,o),
(672,628,o),
(680,634,cs),
(691,642,o),
(701,650,o),
(699,662,cs),
(694,685,o),
(658,688,o),
(579,688,cs),
(492,688,o),
(451,683,o),
(455,661,cs),
(458,649,o),
(471,641,o),
(485,632,cs),
(504,620,o),
(529,603,o),
(539,574,cs),
(557,523,o),
(556,354,o),
(558,318,cs),
(563,138,o),
(506,68,o),
(392,68,cs),
(296,68,o),
(234,125,o),
(218,208,cs),
(203,285,o),
(200,432,o),
(200,498,cs),
(201,603,o),
(235,625,o),
(255,638,cs),
(264,644,o),
(274,649,o),
(271,663,cs),
(266,689,o),
(207,690,o),
(108,690,cs),
(47,690,o),
(16,687,o),
(21,665,cs),
(23,652,o),
(35,644,o),
(45,638,cs),
(66,626,o),
(92,612,o),
(96,534,cs),
(99,483,o),
(92,272,o),
(109,185,cs),
(131,72,o),
(199,-16,o),
(364,-16,cs)
);
}
);
width = 719;
}
);
unicode = 85;
},
{
glyphname = V;
lastChange = "2025-06-01 21:24:14 +0000";
layers = (
{
layerId = m01;
shapes = (
{
closed = 1;
nodes = (
(401,-14,o),
(434,-2,o),
(458,58,cs),
(648,527,ls),
(666,571,o),
(673,593,o),
(689,608,cs),
(711,629,o),
(747,637,o),
(747,662,cs),
(747,690,o),
(686,685,o),
(616,685,cs),
(508,685,o),
(498,682,o),
(498,661,cs),
(498,650,o),
(512,644,o),
(525,638,cs),
(546,628,o),
(572,617,o),
(572,587,cs),
(572,565,o),
(571,549,o),
(562,522,cs),
(448,196,ls),
(429,140,o),
(418,134,o),
(404,134,cs),
(389,134,o),
(382,147,o),
(370,178,cs),
(230,535,ls),
(209,587,o),
(229,606,o),
(253,621,cs),
(267,631,o),
(289,637,o),
(289,660,cs),
(289,683,o),
(263,682,o),
(135,682,cs),
(22,682,o),
(5,681,o),
(5,658,cs),
(5,647,o),
(17,640,o),
(40,630,cs),
(66,619,o),
(81,602,o),
(107,536,cs),
(298,44,ls),
(318,-7,o),
(345,-14,o),
(375,-14,cs)
);
}
);
width = 742;
}
);
unicode = 86;
},
{
glyphname = W;
lastChange = "2025-07-02 13:52:33 +0000";
layers = (
{
anchors = (
{
name = bottom;
pos = (614,0);
},
{
name = top;
pos = (586,680);
}
);
layerId = m01;
shapes = (
{
closed = 1;
nodes = (
(398,-11,o),
(419,1,o),
(428,23,cs),
(541,309,ls),
(547,324,o),
(555,326,o),
(559,326,cs),
(564,326,o),
(570,322,o),
(576,304,cs),
(667,29,ls),
(678,-4,o),
(699,-11,o),
(729,-11,cs),
(755,-11,o),
(776,1,o),
(790,37,cs),
(974,503,ls),
(985,530,o),
(1003,578,o),
(1024,598,cs),
(1039,614,o),
(1090,640,o),
(1090,662,cs),
(1090,685,o),
(1039,685,o),
(959,685,cs),
(850,685,o),
(830,682,o),
(830,661,cs),
(830,650,o),
(844,644,o),
(857,638,cs),
(878,628,o),
(909,617,o),
(909,582,cs),
(909,543,o),
(897,507,o),
(882,465,cs),
(787,190,ls),
(778,163,o),
(770,157,o),
(762,157,cs),
(749,157,o),
(743,170,o),
(734,201,cs),
(641,514,ls),
(631,549,o),
(631,557,o),
(631,565,cs),
(631,618,o),
(711,638,o),
(711,662,cs),
(711,686,o),
(650,685,o),
(580,685,cs),
(471,685,o),
(450,681,o),
(450,662,cs),
(450,634,o),
(529,628,o),
(529,552,cs),
(529,541,o),
(532,489,o),
(514,437,cs),
(431,197,ls),
(420,166,o),
(412,154,o),
(402,154,cs),
(387,154,o),
(382,166,o),
(376,181,cs),
(249,510,ls),
(233,551,o),
(233,563,o),
(233,574,cs),
(233,629,o),
(300,632,o),
(300,660,cs),
(300,680,o),
(274,682,o),
(146,682,cs),
(22,682,o),
(5,681,o),
(5,660,cs),
(5,648,o),
(17,640,o),
(40,630,cs),
(66,619,o),
(89,601,o),
(114,536,cs),
(310,31,ls),
(323,-3,o),
(342,-11,o),
(372,-11,cs)
);
}
);
width = 1085;
}
);
metricLeft = V;
metricRight = V;
unicode = 87;
},
{
glyphname = X;
lastChange = "2025-06-01 21:24:14 +0000";
layers = (
{
layerId = m01;
shapes = (
{
closed = 1;
nodes = (
(101,-6,ls),
(200,-6,o),
(222,-3,o),
(222,13,cs),
(222,41,o),
(172,37,o),
(172,71,cs),
(172,103,o),
(256,206,o),
(291,252,cs),
(306,272,o),
(313,280,o),
(321,280,cs),
(329,280,o),
(339,267,o),
(369,222,cs),
(422,141,ls),
(439,116,o),
(449,98,o),
(449,85,cs),
(449,50,o),
(417,42,o),
(417,23,cs),
(417,-3,o),
(450,-5,o),
(564,-5,cs),
(666,-5,o),
(681,-3,o),
(681,17,cs),
(681,29,o),
(667,38,o),
(640,51,cs),
(611,65,o),
(598,74,o),
(545,142,cs),
(522,172,o),
(460,254,o),
(421,322,cs),
(410,342,o),
(406,347,o),
(406,356,cs),
(406,366,o),
(415,376,o),
(429,395,cs),
(484,472,o),
(575,585,o),
(658,630,cs),
(676,640,o),
(687,648,o),
(687,662,cs),
(687,681,o),
(650,686,o),
(602,685,cs),
(574,685,ls),
(476,685,o),
(453,684,o),
(453,666,cs),
(453,652,o),
(464,645,o),
(474,639,cs),
(486,632,o),
(496,627,o),
(496,610,cs),
(496,573,o),
(425,494,o),
(388,442,cs),
(378,429,o),
(375,425,o),
(369,425,cs),
(362,425,o),
(357,431,o),
(342,452,cs),
(283,538,ls),
(266,563,o),
(260,581,o),
(260,594,cs),
(260,627,o),
(298,631,o),
(298,652,cs),
(298,688,o),
(226,684,o),
(190,684,cs),
(144,684,ls),
(53,684,o),
(28,679,o),
(28,663,cs),
(28,642,o),
(49,638,o),
(63,632,cs),
(93,620,o),
(113,603,o),
(163,538,cs),
(180,516,o),
(238,443,o),
(273,380,cs),
(278,371,o),
(284,362,o),
(284,355,cs),
(284,346,o),
(283,342,o),
(262,310,cs),
(179,183,o),
(86,103,o),
(61,80,cs),
(44,65,o),
(30,53,o),
(18,45,cs),
(5,37,o),
(-7,29,o),
(-5,17,cs),
(0,-7,o),
(34,-7,o),
(77,-6,cs)
);
}
);
width = 702;
},
{
associatedMasterId = m01;
layerId = "081D17CC-9D10-4E0F-9BE9-EDA99AFCC3AE";
name = "19 nov. 24 à 17:03";
shapes = (
{
closed = 1;
nodes = (
(478,471,o),
(586,580,o),
(616,602,cs),
(668,639,o),
(704,641,o),
(704,661,cs),
(704,685,o),
(663,680,o),
(600,680,cs),
(495,680,o),
(481,679,o),
(481,662,cs),
(481,641,o),
(515,645,o),
(515,616,cs),
(515,554,o),
(298,347,o),
(308,353,c),
(340,310,l)
);
},
{
closed = 1;
nodes = (
(309,273,o),
(340,183,o),
(353,143,cs),
(371,85,o),
(363,67,o),
(343,52,cs),
(330,42,o),
(316,34,o),
(316,18,cs),
(317,0,o),
(340,0,o),
(454,0,cs),
(572,0,o),
(580,0,o),
(579,15,cs),
(579,27,o),
(570,32,o),
(547,42,cs),
(521,54,o),
(496,70,o),
(466,139,cs),
(450,170,o),
(416,260,o),
(378,357,cs),
(355,422,o),
(329,500,o),
(317,536,cs),
(299,594,o),
(308,612,o),
(327,627,cs),
(338,636,o),
(354,643,o),
(354,656,cs),
(353,682,o),
(312,679,o),
(210,679,cs),
(110,679,o),
(96,677,o),
(97,662,cs),
(97,648,o),
(111,642,o),
(123,637,cs),
(149,625,o),
(174,609,o),
(205,540,cs),
(219,512,o),
(249,434,o),
(282,348,cs)
);
},
{
closed = 1;
nodes = (
(148,197,o),
(41,102,o),
(13,77,cs),
(-27,40,o),
(-62,35,o),
(-62,18,cs),
(-62,-6,o),
(-19,-1,o),
(35,-1,cs),
(141,-1,o),
(153,1,o),
(153,17,cs),
(153,38,o),
(115,35,o),
(115,70,cs),
(115,132,o),
(374,384,o),
(333,337,c),
(290,378,l)
);
}
);
width = 632;
}
);
unicode = 88;
},
{
glyphname = Y;
lastChange = "2025-07-02 13:53:01 +0000";
layers = (
{
anchors = (
{
name = bottom;
pos = (566,0);
},
{
name = ogonek;
pos = (457,0);
},
{
name = top;
pos = (356,678);
},
{
name = topleft;
pos = (152,680);
}
);
layerId = m01;
shapes = (
{
closed = 1;
nodes = (
(449,-6,o),
(469,-5,o),
(469,18,cs),
(469,33,o),
(455,38,o),
(442,45,cs),
(416,59,o),
(386,78,o),
(386,178,cs),
(386,216,ls),
(386,247,o),
(394,265,o),
(426,319,cs),
(571,561,ls),
(584,582,o),
(594,596,o),
(605,606,cs),
(632,628,o),
(675,637,o),
(675,662,cs),
(675,686,o),
(638,686,o),
(594,685,cs),
(586,685,o),
(576,685,o),
(566,685,cs),
(460,685,o),
(445,680,o),
(445,663,cs),
(445,641,o),
(488,643,o),
(488,608,cs),
(488,601,o),
(486,586,o),
(478,570,cs),
(377,360,ls),
(370,346,o),
(364,343,o),
(358,343,cs),
(351,343,o),
(343,355,o),
(337,366,cs),
(245,538,ls),
(215,593,o),
(221,609,o),
(236,623,cs),
(245,632,o),
(259,640,o),
(259,656,cs),
(259,679,o),
(208,684,o),
(106,684,cs),
(19,684,o),
(5,677,o),
(5,661,cs),
(5,644,o),
(26,637,o),
(39,631,cs),
(65,620,o),
(74,602,o),
(98,571,cs),
(141,515,o),
(244,325,o),
(279,262,cs),
(284,253,o),
(290,244,o),
(290,207,cs),
(290,188,ls),
(290,83,o),
(251,61,o),
(228,48,cs),
(217,42,o),
(204,36,o),
(204,21,cs),
(204,-4,o),
(243,-6,o),
(334,-6,cs)
);
}
);
width = 670;
},
{
anchors = (
{
name = bottom;
pos = (392,0);
},
{
name = top;
pos = (363,678);
},
{
name = topleft;
pos = (-22,680);
}
);
associatedMasterId = m01;
layerId = "4035AEAC-6A29-4712-A573-0D8F4DFB216C";
name = "28 mai 25 à 15:34";
shapes = (
{
closed = 1;
nodes = (
(452,-5,o),
(477,-4,o),
(473,19,cs),
(470,34,o),
(460,40,o),
(450,46,cs),
(428,59,o),
(398,77,o),
(388,179,cs),
(381,245,o),
(383,310,o),
(398,362,cs),
(437,495,o),
(470,586,o),
(525,586,cs),
(550,586,o),
(561,571,o),
(571,557,cs),
(580,544,o),
(590,529,o),
(611,529,cs),
(653,529,o),
(705,579,o),
(697,622,cs),
(693,641,o),
(665,697,o),
(591,697,cs),
(456,697,o),
(409,560,o),
(376,483,cs),
(373,475,o),
(371,470,o),
(368,463,cs),
(361,447,o),
(358,441,o),
(355,441,cs),
(349,441,o),
(348,444,o),
(345,456,cs),
(330,517,o),
(294,691,o),
(143,691,cs),
(52,691,o),
(-5,589,o),
(-1,564,c),
(3,550,o),
(12,543,o),
(24,543,cs),
(34,543,o),
(42,553,o),
(50,562,cs),
(63,578,o),
(81,599,o),
(114,599,cs),
(228,599,o),
(275,448,o),
(286,254,cs),
(288,214,ls),
(294,84,o),
(252,61,o),
(232,48,cs),
(221,42,o),
(211,37,o),
(214,22,cs),
(219,-5,o),
(248,-5,o),
(337,-5,cs)
);
}
);
width = 676;
},
{
anchors = (
{
name = bottom;
pos = (549,0);
},
{
name = ogonek;
pos = (440,0);
},
{
name = top;
pos = (520,678);
},
{
name = topleft;
pos = (135,680);
}
);
associatedMasterId = m01;
layerId = "397331AB-8F90-434C-8C3A-F84F37B23C7E";
name = "28 mai 25 à 17:19";
shapes = (
{
closed = 1;
nodes = (
(369,307,o),
(375,317,o),
(391,339,cs),
(460,436,o),
(558,579,o),
(580,598,cs),
(599,614,o),
(617,623,o),
(630,630,cs),
(648,640,o),
(661,648,o),
(659,662,cs),
(654,686,o),
(622,686,o),
(574,685,cs),
(566,685,o),
(556,685,o),
(546,685,cs),
(440,685,o),
(421,684,o),
(425,661,cs),
(427,650,o),
(437,644,o),
(446,639,cs),
(457,633,o),
(466,628,o),
(468,615,cs),
(475,580,o),
(399,446,o),
(360,392,cs),
(350,379,o),
(347,375,o),
(341,375,cs),
(334,375,o),
(325,378,o),
(314,402,cs),
(255,538,ls),
(230,595,o),
(231,609,o),
(246,623,cs),
(248,625,o),
(250,627,o),
(254,630,cs),
(262,636,o),
(272,644,o),
(269,657,cs),
(262,687,o),
(218,684,o),
(116,684,cs),
(15,684,o),
(-5,683,o),
(1,661,cs),
(5,644,o),
(22,637,o),
(35,632,cs),
(65,620,o),
(84,602,o),
(134,537,cs),
(151,515,o),
(227,357,o),
(262,294,c),
(267,285,o),
(273,276,o),
(273,239,c),
(273,188,ls),
(273,83,o),
(234,61,o),
(211,48,cs),
(200,42,o),
(187,36,o),
(187,21,cs),
(187,-4,o),
(226,-6,o),
(317,-6,cs),
(432,-6,o),
(452,-5,o),
(452,18,cs),
(452,33,o),
(438,38,o),
(425,45,cs),
(399,59,o),
(369,78,o),
(369,178,cs),
(369,286,ls)
);
}
);
width = 659;
}
);
unicode = 89;
},
{
glyphname = Z;
lastChange = "2025-07-02 13:53:27 +0000";
layers = (
{
anchors = (
{
name = bottom;
pos = (373,0);
},
{
name = center;
pos = (325,340);
},
{
name = top;
pos = (341,680);
}
);
layerId = m01;
shapes = (
{
closed = 1;
nodes = (
(101,-7,o),
(187,-4,o),
(293,-4,cs),
(466,-4,o),
(488,-8,o),
(522,-7,cs),
(591,-5,o),
(583,211,o),
(583,229,cs),
(583,260,o),
(567,270,o),
(556,269,cs),
(550,269,o),
(540,269,o),
(527,241,cs),
(478,135,o),
(437,58,o),
(317,58,cs),
(223,58,o),
(201,76,o),
(201,97,cs),
(201,116,o),
(216,133,o),
(234,156,cs),
(490,482,ls),
(541,547,o),
(582,598,o),
(582,644,cs),
(582,668,o),
(568,684,o),
(529,684,cs),
(507,684,o),
(411,684,o),
(327,684,cs),
(207,684,o),
(181,688,o),
(156,687,cs),
(78,684,o),
(67,572,o),
(67,477,cs),
(67,456,o),
(74,438,o),
(95,439,cs),
(101,439,o),
(112,447,o),
(125,475,cs),
(171,572,o),
(233,624,o),
(333,624,cs),
(372,624,o),
(431,627,o),
(431,589,cs),
(431,571,o),
(415,544,o),
(380,500,cs),
(132,190,ls),
(80,124,o),
(35,79,o),
(35,37,cs),
(35,15,o),
(51,-7,o),
(79,-7,cs)
);
}
);
width = 648;
},
{
associatedMasterId = m01;
layerId = "7117604B-1B00-4541-9644-1E7103E64AF6";
name = "19 nov. 24 à 12:51";
shapes = (
{
closed = 1;
nodes = (
(200,303,o),
(8,95,o),
(8,15,cs),
(8,3,o),
(15,-5,o),
(31,-5,cs),
(63,-5,o),
(151,21,o),
(257,21,cs),
(420,21,o),
(439,-14,o),
(473,-12,cs),
(512,-10,o),
(546,173,o),
(545,204,cs),
(544,215,o),
(539,225,o),
(528,224,cs),
(522,224,o),
(512,224,o),
(496,196,cs),
(438,90,o),
(405,68,o),
(285,68,cs),
(211,68,o),
(168,82,o),
(168,116,cs),
(168,164,o),
(232,209,o),
(340,332,cs),
(454,462,o),
(587,600,o),
(587,690,cs),
(587,704,o),
(585,713,o),
(566,713,cs),
(534,713,o),
(432,677,o),
(348,677,cs),
(218,677,o),
(196,722,o),
(171,721,cs),
(113,718,o),
(82,535,o),
(83,504,cs),
(84,493,o),
(89,483,o),
(100,484,cs),
(106,484,o),
(116,484,o),
(132,512,cs),
(186,609,o),
(223,632,o),
(330,632,cs),
(389,632,o),
(430,627,o),
(430,593,cs),
(430,543,o),
(340,455,o),
(252,359,cs)
);
}
);
width = 604;
},
{
associatedMasterId = m01;
layerId = "ECE207DC-CA54-40F4-9625-9CA65FACFDBF";
name = "19 nov. 24 à 16:02";
shapes = (
{
closed = 1;
nodes = (
(400,385,o),
(647,605,o),
(647,667,cs),
(647,673,o),
(645,688,o),
(627,688,cs),
(598,688,o),
(513,654,o),
(459,654,cs),
(382,654,o),
(350,696,o),
(301,696,cs),
(237,696,o),
(108,579,o),
(108,533,cs),
(108,522,o),
(114,518,o),
(123,518,cs),
(144,518,o),
(187,585,o),
(234,585,cs),
(278,585,o),
(328,550,o),
(379,550,cs),
(416,550,o),
(455,563,o),
(473,563,cs),
(483,563,o),
(488,559,o),
(488,550,cs),
(488,519,o),
(378,441,o),
(291,353,cs),
(254,316,o),
(-22,68,o),
(-22,13,cs),
(-22,0,o),
(-14,-10,o),
(0,-10,cs),
(29,-10,o),
(103,26,o),
(167,26,cs),
(244,26,o),
(323,-16,o),
(362,-16,cs),
(426,-16,o),
(563,101,o),
(566,147,cs),
(567,158,o),
(562,162,o),
(553,162,cs),
(532,162,o),
(490,95,o),
(437,95,cs),
(393,95,o),
(306,130,o),
(255,130,cs),
(218,130,o),
(177,117,o),
(158,117,cs),
(149,117,o),
(145,121,o),
(145,130,cs),
(147,161,o),
(274,264,o),
(354,341,cs)
);
},
{
closed = 1;
nodes = (
(444,311,ls),
(468,311,o),
(488,332,o),
(488,359,cs),
(488,376,o),
(484,378,o),
(463,378,cs),
(356,378,l),
(196,378,ls),
(172,378,o),
(144,362,o),
(144,333,cs),
(144,316,o),
(151,311,o),
(172,311,cs),
(254,311,l)
);
}
);
width = 625;
},
{
anchors = (
{
name = bottom;
pos = (366,0);
},
{
name = center;
pos = (318,340);
},
{
name = top;
pos = (400,680);
}
);
associatedMasterId = m01;
layerId = "8C116AA5-B078-49BB-8F34-16649EFCEBB3";
name = "28 mai 25 à 15:23";
shapes = (
{
closed = 1;
nodes = (
(38,4,o),
(46,-15,o),
(68,-15,cs),
(80,-15,o),
(99,-9,o),
(120,-2,cs),
(150,8,o),
(190,21,o),
(229,21,cs),
(268,21,o),
(310,8,o),
(348,-4,cs),
(378,-13,o),
(404,-21,o),
(424,-21,cs),
(497,-21,o),
(613,93,o),
(609,146,cs),
(608,156,o),
(602,167,o),
(590,167,cs),
(577,167,o),
(566,155,o),
(554,142,cs),
(536,122,o),
(516,100,o),
(483,100,cs),
(464,100,o),
(436,107,o),
(404,115,cs),
(367,124,o),
(324,135,o),
(291,135,cs),
(269,135,o),
(246,130,o),
(227,126,cs),
(216,124,o),
(206,122,o),
(201,122,cs),
(194,122,o),
(191,125,o),
(190,129,cs),
(186,153,o),
(252,221,o),
(315,290,cs),
(327,304,o),
(333,306,o),
(352,306,cs),
(440,306,ls),
(477,306,o),
(509,333,o),
(503,360,cs),
(500,378,o),
(485,383,o),
(463,383,cs),
(416,383,ls),
(407,383,o),
(402,385,o),
(402,386,cs),
(400,396,o),
(430,431,o),
(469,477,cs),
(525,542,o),
(596,626,o),
(588,668,cs),
(587,674,o),
(581,693,o),
(558,693,cs),
(545,693,o),
(526,687,o),
(502,680,cs),
(470,671,o),
(430,659,o),
(395,659,cs),
(359,659,o),
(330,671,o),
(302,683,cs),
(280,692,o),
(259,701,o),
(238,701,cs),
(161,701,o),
(56,582,o),
(65,532,c),
(69,518,o),
(78,513,o),
(86,513,cs),
(99,513,o),
(110,525,o),
(122,539,cs),
(140,559,o),
(159,580,o),
(189,580,cs),
(206,580,o),
(226,573,o),
(248,565,cs),
(275,555,o),
(303,545,o),
(333,545,cs),
(353,545,o),
(372,549,o),
(390,553,cs),
(403,556,o),
(415,559,o),
(424,559,cs),
(431,559,o),
(434,558,o),
(435,553,cs),
(438,539,o),
(419,516,o),
(390,481,cs),
(384,474,o),
(378,467,o),
(372,460,cs),
(365,451,o),
(360,444,o),
(355,438,cs),
(326,401,o),
(318,391,o),
(296,391,cs),
(196,391,ls),
(170,391,o),
(133,362,o),
(139,332,cs),
(143,315,o),
(153,314,o),
(175,314,cs),
(224,314,ls),
(234,314,o),
(237,312,o),
(238,309,cs),
(239,302,o),
(228,288,o),
(208,266,cs),
(204,261,o),
(200,257,o),
(194,250,cs),
(155,205,o),
(28,56,o),
(37,11,cs)
);
}
);
width = 625;
}
);
unicode = 90;
},
{
glyphname = T_h;
lastChange = "2025-07-03 16:35:12 +0000";
layers = (
{
anchors = (
{
name = bottom;
pos = (352,0);
},
{
name = center;
pos = (369,340);
},
{
name = top;
pos = (354,680);
}
);
layerId = m01;
shapes = (
{
closed = 1;
nodes = (
(448,-5,o),
(468,-3,o),
(468,19,cs),
(468,34,o),
(454,39,o),
(443,45,cs),
(419,59,o),
(387,76,o),
(383,178,cs),
(380,261,o),
(382,409,o),
(390,502,cs),
(399,596,o),
(428,615,o),
(516,615,cs),
(593,615,o),
(631,600,o),
(631,507,cs),
(631,173,ls),
(631,62,o),
(575,64,o),
(575,25,cs),
(575,-2,o),
(601,0,o),
(630,0,cs),
(708,0,ls),
(756,0,o),
(773,4,o),
(773,26,cs),
(773,64,o),
(717,62,o),
(717,174,cs),
(717,222,ls),
(717,332,o),
(767,389,o),
(827,389,cs),
(885,389,o),
(906,332,o),
(906,241,cs),
(906,173,ls),
(906,62,o),
(850,64,o),
(850,25,cs),
(850,-2,o),
(876,0,o),
(905,0,cs),
(983,0,ls),
(1031,0,o),
(1048,4,o),
(1048,26,cs),
(1048,64,o),
(992,62,o),
(992,174,cs),
(992,331,ls),
(992,422,o),
(963,481,o),
(885,481,cs),
(806,481,o),
(759,412,o),
(733,412,cs),
(721,412,o),
(717,422,o),
(717,444,cs),
(717,571,ls),
(717,663,o),
(707,736,o),
(675,736,cs),
(641,736,o),
(626,704,o),
(580,691,cs),
(529,676,o),
(426,678,o),
(339,678,cs),
(244,678,o),
(170,685,o),
(127,689,cs),
(105,691,o),
(86,693,o),
(72,693,cs),
(14,693,o),
(5,557,o),
(12,519,cs),
(15,502,o),
(25,490,o),
(40,490,cs),
(63,490,o),
(75,515,o),
(87,540,cs),
(106,578,o),
(127,622,o),
(198,622,cs),
(244,622,o),
(284,604,o),
(287,532,cs),
(292,450,o),
(290,241,o),
(288,188,cs),
(284,82,o),
(251,62,o),
(227,49,cs),
(216,43,o),
(205,36,o),
(208,19,cs),
(212,-4,o),
(242,-5,o),
(333,-5,cs)
);
}
);
width = 1073;
}
);
metricLeft = T;
metricRight = h;
},
{
glyphname = a;
lastChange = "2025-07-03 10:02:09 +0000";
layers = (
{
anchors = (
{
name = bottom;
pos = (235,0);
},
{
name = ogonek;
pos = (173,1);
},
{
name = top;
pos = (233,470);
}
);
layerId = m01;
shapes = (
{
closed = 1;
nodes = (
(208,-16,o),
(238,25,o),
(278,25,cs),
(318,25,o),
(335,-16,o),
(389,-16,cs),
(430,-16,o),
(444,16,o),
(444,40,cs),
(444,72,o),
(408,59,o),
(387,91,cs),
(361,131,o),
(376,217,o),
(376,305,cs),
(376,408,o),
(353,479,o),
(253,479,cs),
(153,479,o),
(53,397,o),
(53,332,cs),
(53,299,o),
(77,283,o),
(112,283,cs),
(174,283,o),
(151,414,o),
(233,414,cs),
(266,414,o),
(291,383,o),
(291,346,cs),
(291,305,o),
(261,276,o),
(215,256,cs),
(137,222,o),
(34,175,o),
(34,89,cs),
(34,24,o),
(84,-16,o),
(137,-16,cs)
);
},
{
closed = 1;
nodes = (
(154,61,o),
(135,80,o),
(135,109,cs),
(135,154,o),
(201,199,o),
(248,199,cs),
(275,199,o),
(290,183,o),
(290,155,cs),
(290,111,o),
(243,61,o),
(192,61,cs)
);
}
);
width = 469;
},
{
associatedMasterId = m01;
layerId = "FDBF8774-BA88-4276-8C79-3E0B641C403C";
width = 449;
},
{
associatedMasterId = m01;
layerId = "332B2801-7E37-46AF-862E-8EB769657E66";
name = "28 mai 25 à 15:00";
shapes = (
{
closed = 1;
nodes = (
(213,-16,o),
(243,27,o),
(283,27,cs),
(323,27,o),
(340,-16,o),
(394,-16,cs),
(435,-16,o),
(449,16,o),
(449,40,cs),
(449,72,o),
(413,59,o),
(392,91,cs),
(366,131,o),
(388,217,o),
(388,305,cs),
(388,408,o),
(365,479,o),
(265,479,cs),
(165,479,o),
(66,390,o),
(66,325,cs),
(66,292,o),
(90,273,o),
(125,273,cs),
(201,273,o),
(163,414,o),
(245,414,cs),
(278,414,o),
(298,383,o),
(298,346,cs),
(298,228,o),
(35,222,o),
(35,89,cs),
(35,24,o),
(89,-16,o),
(142,-16,cs)
);
},
{
closed = 1;
nodes = (
(166,61,o),
(147,80,o),
(147,109,cs),
(147,156,o),
(202,203,o),
(249,203,cs),
(276,203,o),
(295,183,o),
(295,155,cs),
(295,111,o),
(255,61,o),
(204,61,cs)
);
}
);
width = 479;
},
{
associatedMasterId = m01;
layerId = "18F115EF-F4AB-4B9F-A31E-1D6764296CFB";
name = "29 mai 25 à 11:20";
shapes = (
{
closed = 1;
nodes = (
(213,-16,o),
(243,27,o),
(283,27,cs),
(323,27,o),
(340,-16,o),
(394,-16,cs),
(435,-16,o),
(449,16,o),
(449,40,cs),
(449,72,o),
(413,59,o),
(392,91,cs),
(366,131,o),
(381,217,o),
(381,305,cs),
(381,408,o),
(358,479,o),
(258,479,cs),
(158,479,o),
(59,390,o),
(59,325,cs),
(59,292,o),
(83,276,o),
(118,276,cs),
(181,276,o),
(156,414,o),
(238,414,cs),
(271,414,o),
(291,383,o),
(291,346,cs),
(291,228,o),
(35,222,o),
(35,89,cs),
(35,24,o),
(89,-16,o),
(142,-16,cs)
);
},
{
closed = 1;
nodes = (
(159,61,o),
(140,80,o),
(140,109,cs),
(140,156,o),
(202,202,o),
(249,202,cs),
(276,202,o),
(295,183,o),
(295,155,cs),
(295,111,o),
(248,61,o),
(197,61,cs)
);
}
);
width = 479;
}
);
unicode = 97;
},
{
glyphname = ae;
lastChange = "2025-06-01 21:24:14 +0000";
layers = (
{
background = {
shapes = (
{
closed = 1;
nodes = (
(213,-16,o),
(254,35,o),
(318,35,cs),
(368,35,o),
(379,-14,o),
(474,-14,cs),
(556,-14,o),
(623,40,o),
(623,66,cs),
(623,75,o),
(617,84,o),
(606,84,cs),
(587,84,o),
(567,62,o),
(511,62,cs),
(427,62,o),
(380,138,o),
(380,227,cs),
(380,265,o),
(394,280,o),
(418,280,cs),
(451,280,o),
(505,276,o),
(544,276,cs),
(602,276,o),
(642,318,o),
(642,375,cs),
(642,422,o),
(594,479,o),
(514,479,cs),
(468,479,o),
(424,467,o),
(387,445,cs),
(376,438,o),
(370,435,o),
(364,435,cs),
(358,435,o),
(353,438,o),
(346,446,cs),
(327,467,o),
(299,479,o),
(258,479,cs),
(158,479,o),
(58,397,o),
(58,332,cs),
(58,299,o),
(82,283,o),
(117,283,cs),
(179,283,o),
(156,414,o),
(238,414,cs),
(271,414,o),
(296,383,o),
(296,346,cs),
(296,305,o),
(266,276,o),
(220,256,cs),
(142,222,o),
(39,175,o),
(39,89,cs),
(39,24,o),
(89,-16,o),
(142,-16,cs)
);
},
{
closed = 1;
nodes = (
(159,61,o),
(140,80,o),
(140,109,cs),
(140,154,o),
(206,199,o),
(253,199,cs),
(280,199,o),
(295,183,o),
(295,155,cs),
(295,111,o),
(248,61,o),
(197,61,cs)
);
},
{
closed = 1;
nodes = (
(427,330,o),
(405,337,o),
(405,360,cs),
(405,390,o),
(439,420,o),
(481,420,cs),
(517,420,o),
(542,400,o),
(542,367,cs),
(542,332,o),
(506,330,o),
(455,330,cs)
);
}
);
};
layerId = m01;
shapes = (
{
closed = 1;
nodes = (
(208,-16,o),
(249,35,o),
(313,35,cs),
(363,35,o),
(374,-14,o),
(469,-14,cs),
(551,-14,o),
(618,40,o),
(618,66,cs),
(618,75,o),
(612,84,o),
(601,84,cs),
(582,84,o),
(562,62,o),
(506,62,cs),
(422,62,o),
(369,138,o),
(369,227,cs),
(369,265,o),
(389,280,o),
(413,280,cs),
(446,280,o),
(500,276,o),
(539,276,cs),
(597,276,o),
(637,318,o),
(637,375,cs),
(637,422,o),
(589,479,o),
(509,479,cs),
(415,479,o),
(383,435,o),
(361,435,cs),
(339,435,o),
(328,479,o),
(253,479,cs),
(153,479,o),
(53,397,o),
(53,332,cs),
(53,299,o),
(77,283,o),
(112,283,cs),
(174,283,o),
(151,414,o),
(233,414,cs),
(269,414,o),
(298,389,o),
(298,346,cs),
(298,305,o),
(261,276,o),
(215,256,cs),
(137,222,o),
(34,175,o),
(34,89,cs),
(34,24,o),
(84,-16,o),
(137,-16,cs)
);
},
{
closed = 1;
nodes = (
(154,61,o),
(135,80,o),
(135,109,cs),
(135,154,o),
(204,199,o),
(253,199,cs),
(282,199,o),
(297,181,o),
(297,155,cs),
(297,106,o),
(242,61,o),
(192,61,cs)
);
},
{
closed = 1;
nodes = (
(419,330,o),
(394,337,o),
(394,360,cs),
(394,390,o),
(434,420,o),
(476,420,cs),
(512,420,o),
(537,400,o),
(537,367,cs),
(537,332,o),
(498,330,o),
(447,330,cs)
);
}
);
width = 667;
}
);
metricLeft = a;
metricRight = e;
unicode = 230;
},
{
glyphname = b;
lastChange = "2025-06-01 21:24:14 +0000";
layers = (
{
anchors = (
{
name = bottom;
pos = (260,0);
},
{
name = center;
pos = (260,233);
},
{
name = top;
pos = (260,465);
}
);
layerId = m01;
shapes = (
{
closed = 1;
nodes = (
(384,-15,o),
(484,86,o),
(484,228,cs),
(484,392,o),
(379,480,o),
(308,480,cs),
(237,480,o),
(222,437,o),
(190,437,cs),
(173,437,o),
(166,448,o),
(166,468,cs),
(166,560,ls),
(166,666,o),
(159,736,o),
(124,736,cs),
(95,736,o),
(79,703,o),
(55,676,cs),
(30,648,o),
(15,643,o),
(15,620,cs),
(15,585,o),
(80,592,o),
(80,495,cs),
(80,203,ls),
(80,70,o),
(57,84,o),
(57,35,cs),
(57,12,o),
(70,-7,o),
(96,-7,cs),
(125,-7,o),
(136,26,o),
(166,26,cs),
(199,26,o),
(221,-15,o),
(282,-15,cs)
);
},
{
closed = 1;
nodes = (
(228,48,o),
(168,128,o),
(168,241,cs),
(168,332,o),
(197,394,o),
(251,394,cs),
(319,394,o),
(381,325,o),
(381,197,cs),
(381,104,o),
(353,48,o),
(293,48,cs)
);
}
);
width = 519;
},
{
associatedMasterId = m01;
layerId = "B41EF51E-852F-40DB-B3D2-8BF743F4B2D8";
name = "28 mai 25 à 13:49";
shapes = (
{
alignment = -1;
angle = 180;
pos = (582,467);
ref = panse;
},
{
pos = (-6,255);
ref = "empattement-haut";
},
{
pos = (-55,2);
ref = "fut-long";
},
{
closed = 1;
nodes = (
(172,183,l),
(172,71,o),
(167,-16,o),
(109,-16,cs),
(73,-16,o),
(57,3,o),
(57,33,cs),
(57,75,o),
(79,95,o),
(79,197,c)
);
}
);
width = 529;
},
{
associatedMasterId = m01;
layerId = "F85A2FF7-DFD3-43C3-BE69-2869B6195F28";
name = "29 mai 25 à 11:32";
shapes = (
{
closed = 1;
nodes = (
(118,-16,o),
(121,1,o),
(136,11,cs),
(145,17,o),
(160,26,o),
(180,26,cs),
(213,26,o),
(231,-11,o),
(292,-11,cs),
(394,-11,o),
(484,86,o),
(484,228,cs),
(484,392,o),
(379,480,o),
(308,480,cs),
(237,480,o),
(226,437,o),
(188,437,cs),
(173,437,o),
(166,448,o),
(166,468,cs),
(166,483,o),
(166,505,o),
(166,560,cs),
(166,666,o),
(159,736,o),
(124,736,cs),
(95,736,o),
(79,703,o),
(55,676,cs),
(30,648,o),
(15,643,o),
(15,620,cs),
(15,585,o),
(80,592,o),
(80,495,cs),
(80,203,ls),
(80,110,o),
(48,75,o),
(48,33,cs),
(48,3,o),
(64,-16,o),
(93,-16,cs)
);
},
{
closed = 1;
nodes = (
(218,48,o),
(168,138,o),
(168,251,cs),
(168,332,o),
(197,394,o),
(251,394,cs),
(319,394,o),
(381,325,o),
(381,197,cs),
(381,104,o),
(343,48,o),
(283,48,cs)
);
}
);
width = 514;
}
);
metricLeft = l;
metricRight = o;
unicode = 98;
},
{
glyphname = c;
lastChange = "2025-06-01 21:24:14 +0000";
layers = (
{
anchors = (
{
name = bottom;
pos = (288,0);
},
{
name = top;
pos = (241,465);
}
);
layerId = m01;
shapes = (
{
closed = 1;
nodes = (
(320,-14,o),
(385,40,o),
(385,66,cs),
(385,75,o),
(380,83,o),
(370,83,cs),
(352,83,o),
(329,64,o),
(288,64,cs),
(211,64,o),
(144,146,o),
(144,259,cs),
(144,349,o),
(176,410,o),
(231,410,cs),
(287,410,o),
(306,326,o),
(344,326,cs),
(369,326,o),
(402,364,o),
(402,403,cs),
(402,452,o),
(339,479,o),
(284,479,cs),
(144,479,o),
(35,368,o),
(35,232,cs),
(35,89,o),
(127,-14,o),
(251,-14,cs)
);
}
);
width = 417;
}
);
metricLeft = o;
unicode = 99;
},
{
glyphname = d;
lastChange = "2025-06-01 21:24:14 +0000";
layers = (
{
anchors = (
{
name = bottom;
pos = (271,0);
},
{
name = center;
pos = (271,233);
},
{
name = top;
pos = (271,720);
},
{
name = topright;
pos = (527,720);
}
);
layerId = m01;
shapes = (
{
closed = 1;
nodes = (
(283,-16,o),
(324,34,o),
(355,34,cs),
(383,34,o),
(381,-13,o),
(413,-13,cs),
(435,-13,o),
(446,2,o),
(470,29,cs),
(495,57,o),
(506,74,o),
(506,95,cs),
(506,142,o),
(442,102,o),
(442,191,cs),
(442,396,ls),
(442,476,o),
(441,515,o),
(441,537,cs),
(441,635,o),
(435,735,o),
(399,735,cs),
(370,735,o),
(354,702,o),
(330,675,cs),
(305,647,o),
(290,642,o),
(290,619,cs),
(290,584,o),
(356,591,o),
(356,521,cs),
(356,502,ls),
(356,466,o),
(353,445,o),
(331,445,cs),
(303,445,o),
(288,478,o),
(227,478,cs),
(125,478,o),
(35,381,o),
(35,239,cs),
(35,75,o),
(140,-16,o),
(211,-16,cs)
);
},
{
closed = 1;
nodes = (
(200,73,o),
(138,142,o),
(138,270,cs),
(138,352,o),
(168,406,o),
(228,406,cs),
(293,406,o),
(351,329,o),
(351,216,cs),
(351,135,o),
(322,73,o),
(268,73,cs)
);
}
);
width = 542;
},
{
associatedMasterId = m01;
layerId = "5B78D76A-E61E-46A0-A668-407A68AA9E57";
name = "28 mai 25 à 13:51";
shapes = (
{
pos = (-53,0);
ref = panse;
},
{
pos = (265,254);
ref = "empattement-haut";
},
{
closed = 1;
nodes = (
(443,553,o),
(444,476,o),
(444,396,cs),
(444,285,o),
(443,185,o),
(464,153,c),
(322,43,l),
(372,229,l),
(341,440,l),
(350,440,o),
(355,449,o),
(355,462,cs),
(355,479,o),
(351,523,o),
(346,545,c),
(443,580,l)
);
},
{
angle = 180;
pos = (533,481);
ref = "empattement-haut";
}
);
width = 542;
},
{
associatedMasterId = m01;
layerId = "02CF4EEE-9BBF-4040-A2CC-9CFF528AEEE9";
name = "29 mai 25 à 11:25";
shapes = (
{
closed = 1;
nodes = (
(277,-13,o),
(293,36,o),
(335,36,cs),
(348,36,o),
(356,32,o),
(363,20,cs),
(370,8,o),
(383,-13,o),
(400,-13,cs),
(422,-13,o),
(438,33,o),
(462,60,cs),
(487,88,o),
(502,93,o),
(502,116,cs),
(502,151,o),
(437,144,o),
(437,211,cs),
(437,396,ls),
(437,476,o),
(436,515,o),
(436,537,cs),
(436,635,o),
(430,735,o),
(394,735,cs),
(365,735,o),
(349,702,o),
(325,675,cs),
(300,647,o),
(285,642,o),
(285,619,cs),
(285,584,o),
(351,594,o),
(351,524,cs),
(351,500,o),
(351,490,o),
(351,482,cs),
(351,466,o),
(351,445,o),
(329,445,cs),
(301,445,o),
(283,478,o),
(222,478,cs),
(120,478,o),
(30,381,o),
(30,239,cs),
(30,75,o),
(135,-13,o),
(206,-13,cs)
);
},
{
closed = 1;
nodes = (
(195,73,o),
(133,142,o),
(133,270,cs),
(133,363,o),
(171,419,o),
(231,419,cs),
(296,419,o),
(346,329,o),
(346,216,cs),
(346,135,o),
(317,73,o),
(263,73,cs)
);
}
);
width = 542;
},
{
associatedMasterId = m01;
layerId = "C0A3E711-5F1F-4626-A758-1A2FA64C6DB2";
name = "29 mai 25 à 11:27";
shapes = (
{
closed = 1;
nodes = (
(278,-16,o),
(305,33,o),
(336,33,cs),
(364,33,o),
(370,-13,o),
(402,-13,cs),
(424,-13,o),
(438,33,o),
(462,60,cs),
(487,88,o),
(502,93,o),
(502,116,cs),
(502,151,o),
(437,144,o),
(437,231,cs),
(437,396,ls),
(437,476,o),
(436,515,o),
(436,537,cs),
(436,635,o),
(430,735,o),
(394,735,cs),
(365,735,o),
(349,702,o),
(325,675,cs),
(300,647,o),
(285,642,o),
(285,619,cs),
(285,584,o),
(351,591,o),
(351,521,cs),
(351,502,ls),
(351,466,o),
(348,445,o),
(326,445,cs),
(298,445,o),
(283,478,o),
(222,478,cs),
(120,478,o),
(30,381,o),
(30,239,cs),
(30,75,o),
(135,-16,o),
(206,-16,cs)
);
},
{
closed = 1;
nodes = (
(195,73,o),
(133,142,o),
(133,270,cs),
(133,363,o),
(171,419,o),
(231,419,cs),
(296,419,o),
(346,329,o),
(346,216,cs),
(346,135,o),
(317,73,o),
(263,73,cs)
);
}
);
width = 542;
},
{
associatedMasterId = m01;
layerId = "23431D23-D348-469D-A42C-B838F4975AA7";
name = "29 mai 25 à 11:31";
shapes = (
{
closed = 1;
nodes = (
(278,-16,o),
(319,34,o),
(350,34,cs),
(378,34,o),
(372,-13,o),
(404,-13,cs),
(426,-13,o),
(440,-1,o),
(464,26,cs),
(489,54,o),
(500,71,o),
(500,92,cs),
(500,129,o),
(437,104,o),
(437,191,cs),
(437,396,ls),
(437,476,o),
(436,515,o),
(436,537,cs),
(436,635,o),
(430,735,o),
(394,735,cs),
(365,735,o),
(349,702,o),
(325,675,cs),
(300,647,o),
(285,642,o),
(285,619,cs),
(285,584,o),
(351,591,o),
(351,521,cs),
(351,502,ls),
(351,466,o),
(348,445,o),
(326,445,cs),
(298,445,o),
(283,478,o),
(222,478,cs),
(120,478,o),
(30,381,o),
(30,239,cs),
(30,75,o),
(135,-16,o),
(206,-16,cs)
);
},
{
closed = 1;
nodes = (
(195,73,o),
(133,142,o),
(133,270,cs),
(133,363,o),
(171,419,o),
(231,419,cs),
(296,419,o),
(346,329,o),
(346,216,cs),
(346,135,o),
(317,73,o),
(263,73,cs)
);
}
);
width = 542;
}
);
metricLeft = o;
unicode = 100;
},
{
glyphname = e;
lastChange = "2025-07-03 10:12:43 +0000";
layers = (
{
associatedMasterId = m01;
backgroundImage = {
imagePath = "/Downloads/Images/e-3 avr. 25 à 17:39.tif";
locked = 1;
pos = (-6,-72);
scale = (2.933,2.933);
};
layerId = "906E022D-4558-4CA1-93D2-9614A5904600";
name = "3 avr. 25 à 17:39";
shapes = (
{
closed = 1;
nodes = (
(339,434,o),
(306,458,o),
(257,458,cs),
(190,458,o),
(141,372,o),
(141,280,cs),
(141,148,o),
(227,67,o),
(312,67,cs),
(339,67,o),
(395,88,o),
(416,88,cs),
(424,88,o),
(430,82,o),
(430,72,cs),
(430,44,o),
(348,-14,o),
(271,-14,cs),
(132,-14,o),
(35,103,o),
(35,252,cs),
(35,391,o),
(159,516,o),
(308,516,cs),
(397,516,o),
(451,454,o),
(451,404,cs),
(451,352,o),
(417,316,o),
(383,316,cs),
(349,316,o),
(218,313,o),
(189,313,cs),
(160,313,o),
(143,291,o),
(137,245,c),
(124,311,o),
(128,393,o),
(175,412,c),
(170,380,o),
(175,364,o),
(234,364,cs),
(293,364,o),
(339,366,o),
(339,400,cs)
);
}
);
width = 491;
},
{
associatedMasterId = m01;
layerId = "DA4248B5-0E26-476E-BA75-657560BE3EEA";
name = "3 avr. 25 à 18:42";
shapes = (
{
closed = 1;
nodes = (
(353,-14,o),
(443,47,o),
(443,81,cs),
(443,91,o),
(437,100,o),
(425,100,cs),
(400,100,o),
(376,67,o),
(313,67,cs),
(225,67,o),
(153,131,o),
(153,238,cs),
(153,289,o),
(168,305,o),
(199,305,cs),
(253,305,o),
(301,301,o),
(356,301,cs),
(409,301,o),
(456,343,o),
(456,404,cs),
(456,454,o),
(402,516,o),
(313,516,cs),
(156,516,o),
(32,381,o),
(32,242,cs),
(32,93,o),
(127,-14,o),
(276,-14,cs)
);
},
{
closed = 1;
nodes = (
(184,416,o),
(226,450,o),
(272,450,cs),
(313,450,o),
(344,430,o),
(344,396,cs),
(344,362,o),
(303,360,o),
(229,360,cs),
(190,360,o),
(184,372,o),
(184,385,cs)
);
}
);
width = 486;
},
{
anchors = (
{
name = bottom;
pos = (300,0);
},
{
name = ogonek;
pos = (248,0);
},
{
name = top;
pos = (252,465);
}
);
layerId = m01;
name = Regular;
shapes = (
{
closed = 1;
nodes = (
(324,-14,o),
(391,40,o),
(391,66,cs),
(391,75,o),
(385,84,o),
(374,84,cs),
(355,84,o),
(335,62,o),
(279,62,cs),
(195,62,o),
(148,138,o),
(148,227,cs),
(148,265,o),
(162,280,o),
(186,280,cs),
(219,280,o),
(273,276,o),
(312,276,cs),
(370,276,o),
(410,318,o),
(410,375,cs),
(410,422,o),
(362,479,o),
(282,479,cs),
(150,479,o),
(35,379,o),
(35,224,cs),
(35,86,o),
(124,-14,o),
(242,-14,cs)
);
},
{
closed = 1;
nodes = (
(195,330,o),
(173,337,o),
(173,360,cs),
(173,390,o),
(207,420,o),
(249,420,cs),
(285,420,o),
(310,400,o),
(310,367,cs),
(310,332,o),
(274,330,o),
(223,330,cs)
);
}
);
width = 440;
},
{
associatedMasterId = m01;
layerId = "1EDF7279-21BE-4FD4-A092-D48FCEB58231";
name = "28 mai 25 à 15:04";
shapes = (
{
closed = 1;
nodes = (
(319,-14,o),
(386,40,o),
(386,66,cs),
(386,75,o),
(380,84,o),
(369,84,cs),
(350,84,o),
(319,60,o),
(270,60,cs),
(192,60,o),
(143,146,o),
(143,230,cs),
(143,268,o),
(156,284,o),
(178,284,cs),
(213,284,o),
(268,280,o),
(312,280,cs),
(361,280,o),
(405,318,o),
(405,375,cs),
(405,422,o),
(355,479,o),
(281,479,cs),
(149,479,o),
(30,379,o),
(30,224,cs),
(30,86,o),
(119,-14,o),
(237,-14,cs)
);
},
{
closed = 1;
nodes = (
(168,390,o),
(202,420,o),
(244,420,cs),
(280,420,o),
(305,400,o),
(305,367,cs),
(305,334,o),
(269,332,o),
(218,332,cs),
(190,332,o),
(168,339,o),
(168,360,cs)
);
}
);
width = 445;
}
);
metricLeft = o;
unicode = 101;
},
{
glyphname = f;
lastChange = "2025-06-01 21:24:14 +0000";
layers = (
{
anchors = (
{
name = bottom;
pos = (168,0);
},
{
name = top;
pos = (168,720);
}
);
backgroundImage = {
imagePath = "../../../../Downloads/Nuisibles Regular/Images/f-Regular.tif";
locked = 1;
pos = (-43,-107);
scale = (2.933,2.933);
};
layerId = m01;
shapes = (
{
closed = 1;
nodes = (
(175,0,ls),
(223,0,o),
(244,4,o),
(244,26,cs),
(244,64,o),
(179,62,o),
(179,174,cs),
(179,324,ls),
(179,375,o),
(205,382,o),
(221,382,cs),
(233,382,o),
(248,379,o),
(265,379,cs),
(312,379,o),
(345,419,o),
(345,453,cs),
(345,473,o),
(334,481,o),
(315,481,cs),
(296,481,o),
(264,466,o),
(233,466,cs),
(212,466,o),
(193,467,o),
(193,525,cs),
(193,587,o),
(232,644,o),
(267,644,cs),
(312,644,o),
(328,611,o),
(369,611,cs),
(410,611,o),
(430,657,o),
(430,690,cs),
(430,719,o),
(409,736,o),
(351,736,cs),
(193,736,o),
(134,596,o),
(99,534,cs),
(58,462,o),
(20,458,o),
(20,427,cs),
(20,380,o),
(93,408,o),
(93,300,cs),
(93,173,ls),
(93,62,o),
(37,58,o),
(37,23,cs),
(37,0,o),
(63,0,o),
(92,0,cs)
);
}
);
width = 335;
},
{
associatedMasterId = m01;
backgroundImage = {
imagePath = "../../../../Downloads/Nuisibles Regular/Images/f-Regular.tif";
locked = 1;
pos = (-43,-107);
scale = (2.933,2.933);
};
layerId = "34513D4E-5561-4D1F-A481-EB9BAB72EB28";
name = "29 mai 25 à 12:04";
shapes = (
{
closed = 1;
nodes = (
(184,324,l),
(184,375,o),
(212,382,o),
(228,382,cs),
(234,382,o),
(253,379,o),
(270,379,cs),
(317,379,o),
(350,419,o),
(350,453,cs),
(350,473,o),
(339,481,o),
(320,481,cs),
(301,481,o),
(269,466,o),
(238,466,cs),
(217,466,o),
(198,467,o),
(198,525,cs),
(198,587,o),
(237,644,o),
(272,644,cs),
(317,644,o),
(333,611,o),
(374,611,cs),
(415,611,o),
(435,657,o),
(435,690,cs),
(435,719,o),
(414,736,o),
(356,736,cs),
(198,736,o),
(139,596,o),
(104,534,cs),
(63,462,o),
(25,458,o),
(25,427,cs),
(25,380,o),
(98,412,o),
(98,294,c)
);
},
{
alignment = -1;
pos = (11,0);
ref = "empattement-bas";
},
{
pos = (11,0);
ref = fut;
}
);
width = 345;
}
);
unicode = 102;
},
{
glyphname = g;
lastChange = "2025-06-01 21:24:14 +0000";
layers = (
{
associatedMasterId = m01;
backgroundImage = {
imagePath = "/Downloads/scan-nuisibles-regular 6.jpeg";
locked = 1;
pos = (-143,-338);
scale = (2.7998,2.7998);
};
layerId = "B9AC5F62-3CE0-4489-A0AB-F862994A9E78";
name = "17 avr. 25 à 14:51";
shapes = (
{
closed = 1;
nodes = (
(147,468,o),
(125,434,o),
(125,387,cs),
(125,300,o),
(188,275,o),
(219,275,cs),
(250,275,o),
(277,297,o),
(277,351,cs),
(277,411,o),
(248,468,o),
(186,468,cs)
);
},
{
closed = 1;
nodes = (
(256,517,o),
(284,487,o),
(326,487,cs),
(400,487,o),
(417,573,o),
(450,573,cs),
(480,573,o),
(504,525,o),
(487,478,cs),
(468,426,o),
(385,434,o),
(362,411,cs),
(343,392,o),
(381,327,o),
(305,262,cs),
(248,213,o),
(173,238,o),
(143,238,cs),
(107,238,o),
(96,196,o),
(119,177,cs),
(164,141,o),
(308,182,o),
(391,140,cs),
(446,112,o),
(448,61,o),
(448,34,cs),
(448,-18,o),
(348,-185,o),
(193,-185,cs),
(51,-185,o),
(2,-109,o),
(2,-28,cs),
(2,52,o),
(61,88,o),
(61,128,cs),
(61,161,o),
(40,163,o),
(40,195,cs),
(40,227,o),
(65,252,o),
(65,278,cs),
(65,304,o),
(38,320,o),
(38,368,cs),
(38,416,o),
(87,517,o),
(199,517,cs)
);
}
);
width = 436;
},
{
associatedMasterId = m01;
backgroundImage = {
imagePath = "/Downloads/scan-nuisibles-regular 6.jpeg";
locked = 1;
pos = (-125,-338);
scale = (2.7998,2.7998);
};
layerId = "21F23420-570A-44A2-B2B5-D7FA2153C603";
name = "17 avr. 25 à 15:16";
shapes = (
{
closed = 1;
nodes = (
(172,429,o),
(139,391,o),
(139,336,cs),
(139,261,o),
(198,214,o),
(251,214,cs),
(284,214,o),
(315,247,o),
(315,304,cs),
(315,367,o),
(279,429,o),
(213,429,cs)
);
},
{
closed = 1;
nodes = (
(158,45,l),
(112,16,o),
(81,-21,o),
(81,-67,cs),
(81,-126,o),
(158,-154,o),
(227,-154,cs),
(323,-154,o),
(363,-119,o),
(363,-69,cs),
(363,-26,o),
(320,-17,o),
(238,-5,cs),
(146,8,o),
(32,19,o),
(32,95,cs),
(32,146,o),
(85,156,o),
(85,185,cs),
(85,211,o),
(47,238,o),
(47,322,cs),
(47,383,o),
(112,481,o),
(230,481,cs),
(290,481,o),
(320,454,o),
(364,456,cs),
(420,458,o),
(419,505,o),
(455,505,cs),
(480,505,o),
(504,478,o),
(504,443,cs),
(504,389,o),
(454,405,o),
(420,388,cs),
(394,375,o),
(401,348,o),
(401,322,cs),
(401,242,o),
(327,153,o),
(244,153,cs),
(188,153,o),
(179,166,o),
(157,166,cs),
(145,166,o),
(136,157,o),
(136,141,cs),
(136,99,o),
(195,98,o),
(274,84,cs),
(342,72,o),
(447,71,o),
(447,-26,cs),
(447,-138,o),
(346,-246,o),
(190,-246,cs),
(57,-246,o),
(-17,-179,o),
(-17,-98,cs),
(-17,-40,o),
(61,29,o),
(110,51,c)
);
}
);
width = 504;
},
{
associatedMasterId = m01;
backgroundImage = {
imagePath = "/Downloads/scan-nuisibles-regular 6.jpeg";
locked = 1;
pos = (-125,-338);
scale = (2.7998,2.7998);
};
layerId = "9FA2A0C0-FF27-407B-A4B6-BF28414E8F99";
name = "17 avr. 25 à 15:20";
shapes = (
{
closed = 1;
nodes = (
(346,-246,o),
(447,-138,o),
(447,-26,cs),
(447,61,o),
(342,72,o),
(274,84,cs),
(195,98,o),
(136,99,o),
(136,141,cs),
(136,157,o),
(145,166,o),
(157,166,cs),
(179,166,o),
(188,153,o),
(244,153,cs),
(327,153,o),
(401,242,o),
(401,322,cs),
(401,348,o),
(394,375,o),
(420,388,cs),
(454,405,o),
(504,389,o),
(504,443,cs),
(504,478,o),
(480,505,o),
(455,505,cs),
(419,505,o),
(420,458,o),
(364,456,cs),
(320,454,o),
(290,481,o),
(230,481,cs),
(112,481,o),
(47,383,o),
(47,322,cs),
(47,238,o),
(85,211,o),
(85,185,cs),
(85,156,o),
(32,146,o),
(32,95,cs),
(32,62,o),
(66,48,o),
(66,32,cs),
(66,22,o),
(59,17,o),
(42,2,cs),
(15,-22,o),
(-17,-61,o),
(-17,-98,cs),
(-17,-179,o),
(57,-246,o),
(190,-246,cs)
);
},
{
closed = 1;
nodes = (
(198,214,o),
(139,261,o),
(139,336,cs),
(139,391,o),
(172,429,o),
(213,429,cs),
(279,429,o),
(315,367,o),
(315,304,cs),
(315,247,o),
(284,214,o),
(251,214,cs)
);
},
{
closed = 1;
nodes = (
(81,-25,o),
(102,7,o),
(137,7,cs),
(175,7,o),
(198,2,o),
(238,-5,cs),
(320,-20,o),
(363,-31,o),
(363,-69,cs),
(363,-119,o),
(320,-157,o),
(234,-157,cs),
(155,-157,o),
(81,-116,o),
(81,-57,cs)
);
}
);
width = 504;
},
{
associatedMasterId = m01;
backgroundImage = {
imagePath = "/Downloads/scan-nuisibles-regular 6.jpeg";
locked = 1;
pos = (-125,-338);
scale = (2.7998,2.7998);
};
layerId = "8DA45CF3-2E75-4FC5-AC8F-0276E0B42712";
name = "17 avr. 25 à 15:26";
shapes = (
{
closed = 1;
nodes = (
(346,-246,o),
(437,-138,o),
(437,-37,cs),
(437,61,o),
(342,72,o),
(274,84,cs),
(195,98,o),
(136,99,o),
(136,141,cs),
(136,157,o),
(145,166,o),
(157,166,cs),
(179,166,o),
(188,153,o),
(244,153,cs),
(327,153,o),
(401,242,o),
(401,322,cs),
(401,348,o),
(394,375,o),
(420,388,cs),
(454,405,o),
(504,389,o),
(504,443,cs),
(504,478,o),
(480,505,o),
(455,505,cs),
(419,505,o),
(420,458,o),
(364,456,cs),
(320,454,o),
(290,481,o),
(230,481,cs),
(112,481,o),
(47,383,o),
(47,322,cs),
(47,238,o),
(85,211,o),
(85,185,cs),
(85,156,o),
(32,146,o),
(32,95,cs),
(32,62,o),
(66,48,o),
(66,32,cs),
(66,22,o),
(59,17,o),
(42,2,cs),
(15,-22,o),
(-17,-61,o),
(-17,-98,cs),
(-17,-179,o),
(57,-246,o),
(190,-246,cs)
);
},
{
closed = 1;
nodes = (
(198,214,o),
(139,261,o),
(139,336,cs),
(139,391,o),
(172,429,o),
(213,429,cs),
(279,429,o),
(315,367,o),
(315,304,cs),
(315,247,o),
(284,214,o),
(251,214,cs)
);
},
{
closed = 1;
nodes = (
(81,-25,o),
(102,7,o),
(137,7,cs),
(175,7,o),
(198,2,o),
(238,-5,cs),
(320,-20,o),
(353,-39,o),
(353,-80,cs),
(353,-119,o),
(320,-158,o),
(234,-158,cs),
(155,-158,o),
(81,-116,o),
(81,-57,cs)
);
}
);
width = 504;
},
{
associatedMasterId = m01;
backgroundImage = {
imagePath = "/Downloads/scan-nuisibles-regular 6.jpeg";
locked = 1;
pos = (-125,-338);
scale = (2.7998,2.7998);
};
layerId = "DE6DB1E7-7BDB-465B-930A-0986E5893CC8";
name = "17 avr. 25 à 15:31";
shapes = (
{
closed = 1;
nodes = (
(346,-246,o),
(437,-148,o),
(437,-47,cs),
(437,51,o),
(342,62,o),
(274,74,cs),
(195,88,o),
(136,89,o),
(136,131,cs),
(136,147,o),
(145,156,o),
(157,156,cs),
(179,156,o),
(188,143,o),
(244,143,cs),
(327,143,o),
(403,219,o),
(403,302,cs),
(403,322,o),
(400,333,o),
(400,345,cs),
(400,358,o),
(405,370,o),
(422,378,cs),
(456,395,o),
(504,379,o),
(504,433,cs),
(504,468,o),
(480,495,o),
(455,495,cs),
(419,495,o),
(420,448,o),
(364,446,cs),
(320,444,o),
(290,481,o),
(230,481,cs),
(109,481,o),
(47,373,o),
(47,312,cs),
(47,228,o),
(85,201,o),
(85,175,cs),
(85,146,o),
(32,136,o),
(32,85,cs),
(32,52,o),
(66,38,o),
(66,22,cs),
(66,12,o),
(58,7,o),
(41,-8,cs),
(14,-32,o),
(-17,-61,o),
(-17,-108,cs),
(-17,-189,o),
(57,-246,o),
(190,-246,cs)
);
},
{
closed = 1;
nodes = (
(199,204,o),
(142,250,o),
(142,323,cs),
(142,376,o),
(174,413,o),
(213,413,cs),
(277,413,o),
(312,353,o),
(312,292,cs),
(312,236,o),
(282,204,o),
(250,204,cs)
);
},
{
closed = 1;
nodes = (
(81,-39,o),
(102,-7,o),
(137,-7,cs),
(175,-7,o),
(198,-12,o),
(238,-19,cs),
(320,-34,o),
(352,-51,o),
(352,-90,cs),
(352,-129,o),
(310,-158,o),
(234,-158,cs),
(155,-158,o),
(81,-126,o),
(81,-67,cs)
);
}
);
width = 504;
},
{
associatedMasterId = m01;
backgroundImage = {
imagePath = "/Downloads/scan-nuisibles-regular 6.jpeg";
locked = 1;
pos = (-113,-338);
scale = (2.7998,2.7998);
};
layerId = "5DC9789A-DEF9-41D7-A7E3-2227CB70931F";
name = "17 avr. 25 à 16:34";
shapes = (
{
closed = 1;
nodes = (
(358,-246,o),
(449,-148,o),
(449,-47,cs),
(449,48,o),
(354,57,o),
(286,67,cs),
(197,80,o),
(148,84,o),
(148,126,cs),
(148,142,o),
(157,151,o),
(169,151,cs),
(191,151,o),
(200,143,o),
(256,143,cs),
(339,143,o),
(415,219,o),
(415,302,cs),
(415,322,o),
(412,333,o),
(412,345,cs),
(412,358,o),
(417,370,o),
(434,378,cs),
(468,395,o),
(516,379,o),
(516,433,cs),
(516,468,o),
(492,495,o),
(467,495,cs),
(431,495,o),
(432,448,o),
(376,446,cs),
(332,444,o),
(302,481,o),
(242,481,cs),
(121,481,o),
(59,373,o),
(59,312,cs),
(59,228,o),
(97,201,o),
(97,175,cs),
(97,146,o),
(44,136,o),
(44,85,cs),
(44,52,o),
(78,38,o),
(78,22,cs),
(78,12,o),
(70,7,o),
(53,-8,cs),
(26,-32,o),
(-5,-61,o),
(-5,-108,cs),
(-5,-189,o),
(69,-246,o),
(202,-246,cs)
);
},
{
closed = 1;
nodes = (
(211,204,o),
(154,250,o),
(154,323,cs),
(154,376,o),
(186,413,o),
(225,413,cs),
(289,413,o),
(324,353,o),
(324,292,cs),
(324,236,o),
(294,204,o),
(262,204,cs)
);
},
{
closed = 1;
nodes = (
(93,-39,o),
(114,-11,o),
(149,-11,cs),
(187,-11,o),
(210,-16,o),
(250,-23,cs),
(332,-38,o),
(364,-51,o),
(364,-90,cs),
(364,-129,o),
(322,-158,o),
(246,-158,cs),
(167,-158,o),
(93,-126,o),
(93,-67,cs)
);
}
);
width = 516;
},
{
associatedMasterId = m01;
backgroundImage = {
imagePath = "/Downloads/scan-nuisibles-regular 6.jpeg";
locked = 1;
pos = (-108,-338);
scale = (2.7998,2.7998);
};
layerId = "B87ED104-E712-4C67-91FB-4219E83FCCBD";
name = "28 mai 25 à 13:30";
shapes = (
{
closed = 1;
nodes = (
(363,-246,o),
(454,-148,o),
(454,-47,cs),
(454,35,o),
(359,44,o),
(291,54,cs),
(202,67,o),
(153,84,o),
(153,126,cs),
(153,142,o),
(162,151,o),
(174,151,cs),
(196,151,o),
(205,143,o),
(261,143,cs),
(344,143,o),
(415,223,o),
(413,302,cs),
(413,321,o),
(410,332,o),
(410,343,cs),
(410,356,o),
(415,367,o),
(432,375,cs),
(464,391,o),
(502,376,o),
(502,428,cs),
(502,461,o),
(486,477,o),
(464,477,cs),
(428,477,o),
(410,442,o),
(376,440,cs),
(332,444,o),
(317,481,o),
(247,481,cs),
(126,481,o),
(69,374,o),
(69,313,cs),
(69,229,o),
(107,202,o),
(107,176,cs),
(107,147,o),
(49,136,o),
(49,85,cs),
(49,52,o),
(89,38,o),
(89,22,cs),
(89,12,o),
(81,7,o),
(64,-8,cs),
(37,-32,o),
(10,-61,o),
(10,-108,cs),
(10,-189,o),
(95,-246,o),
(207,-246,cs)
);
},
{
closed = 1;
nodes = (
(215,203,o),
(156,248,o),
(156,324,cs),
(156,379,o),
(189,419,o),
(229,419,cs),
(296,419,o),
(332,355,o),
(332,291,cs),
(332,233,o),
(301,203,o),
(268,203,cs)
);
},
{
closed = 1;
nodes = (
(99,-39,o),
(120,-10,o),
(157,-10,cs),
(196,-10,o),
(214,-15,o),
(256,-23,cs),
(341,-38,o),
(374,-52,o),
(374,-92,cs),
(374,-133,o),
(331,-171,o),
(252,-171,cs),
(176,-171,o),
(99,-130,o),
(99,-68,cs)
);
}
);
width = 517;
},
{
associatedMasterId = m01;
backgroundImage = {
imagePath = "/Downloads/scan-nuisibles-regular 6.jpeg";
locked = 1;
pos = (-109,-338);
scale = (2.7998,2.7998);
};
layerId = "BB539A73-3B46-4919-A455-9AAFFB8DFF3D";
name = "28 mai 25 à 17:50";
shapes = (
{
closed = 1;
nodes = (
(362,-246,o),
(453,-148,o),
(453,-47,cs),
(453,45,o),
(358,54,o),
(290,64,cs),
(201,77,o),
(152,84,o),
(152,126,cs),
(152,142,o),
(161,151,o),
(173,151,cs),
(195,151,o),
(204,143,o),
(260,143,cs),
(343,143,o),
(417,219,o),
(417,302,cs),
(417,322,o),
(414,333,o),
(414,345,cs),
(414,358,o),
(419,370,o),
(436,378,cs),
(470,395,o),
(512,379,o),
(512,433,cs),
(512,468,o),
(494,487,o),
(471,487,cs),
(433,487,o),
(414,448,o),
(378,446,cs),
(334,444,o),
(306,481,o),
(246,481,cs),
(125,481,o),
(68,374,o),
(68,313,cs),
(68,229,o),
(106,202,o),
(106,176,cs),
(106,147,o),
(48,136,o),
(48,85,cs),
(48,52,o),
(88,38,o),
(88,22,cs),
(88,12,o),
(80,7,o),
(63,-8,cs),
(36,-32,o),
(5,-61,o),
(5,-108,cs),
(5,-189,o),
(79,-246,o),
(206,-246,cs)
);
},
{
closed = 1;
nodes = (
(214,200,o),
(155,248,o),
(155,324,cs),
(155,379,o),
(188,417,o),
(228,417,cs),
(295,417,o),
(331,355,o),
(331,291,cs),
(331,233,o),
(300,200,o),
(267,200,cs)
);
},
{
closed = 1;
nodes = (
(98,-39,o),
(119,-10,o),
(156,-10,cs),
(195,-10,o),
(213,-15,o),
(255,-23,cs),
(340,-38,o),
(373,-52,o),
(373,-92,cs),
(373,-133,o),
(330,-172,o),
(251,-172,cs),
(175,-172,o),
(98,-130,o),
(98,-68,cs)
);
}
);
width = 517;
},
{
anchors = (
{
name = bottom;
pos = (253,-230);
},
{
name = top;
pos = (253,465);
}
);
backgroundImage = {
imagePath = "/Downloads/scan-nuisibles-regular 6.jpeg";
locked = 1;
pos = (-109,-338);
scale = (2.7998,2.7998);
};
layerId = m01;
name = Regular;
shapes = (
{
closed = 1;
nodes = (
(357,-246,o),
(448,-148,o),
(448,-47,cs),
(448,28,o),
(353,53,o),
(285,63,cs),
(196,76,o),
(147,84,o),
(147,126,cs),
(147,142,o),
(163,164,o),
(177,164,cs),
(198,164,o),
(207,156,o),
(261,156,cs),
(340,156,o),
(414,229,o),
(414,309,cs),
(414,328,o),
(411,339,o),
(411,350,cs),
(411,363,o),
(416,374,o),
(432,382,cs),
(465,398,o),
(500,385,o),
(500,437,cs),
(500,471,o),
(483,487,o),
(461,487,cs),
(426,487,o),
(411,449,o),
(376,448,cs),
(334,446,o),
(305,481,o),
(247,481,cs),
(131,481,o),
(71,377,o),
(71,319,cs),
(71,238,o),
(108,212,o),
(108,187,cs),
(108,163,o),
(43,136,o),
(43,85,cs),
(43,52,o),
(83,38,o),
(83,22,cs),
(83,12,o),
(75,7,o),
(58,-8,cs),
(31,-32,o),
(0,-61,o),
(0,-108,cs),
(0,-189,o),
(74,-246,o),
(201,-246,cs)
);
},
{
closed = 1;
nodes = (
(167,-164,o),
(93,-132,o),
(93,-73,cs),
(93,-45,o),
(119,-11,o),
(154,-11,cs),
(192,-11,o),
(209,-16,o),
(249,-23,cs),
(331,-38,o),
(363,-51,o),
(363,-90,cs),
(363,-129,o),
(316,-164,o),
(240,-164,cs)
);
},
{
closed = 1;
nodes = (
(215,215,o),
(161,258,o),
(161,328,cs),
(161,379,o),
(194,423,o),
(232,423,cs),
(293,423,o),
(328,359,o),
(328,300,cs),
(328,246,o),
(295,215,o),
(264,215,cs)
);
}
);
width = 505;
},
{
associatedMasterId = m01;
backgroundImage = {
imagePath = "/Downloads/scan-nuisibles-regular 6.jpeg";
locked = 1;
pos = (-109,-338);
scale = (2.7998,2.7998);
};
layerId = "7B1C74A0-7B4E-40D2-9545-4A053836BB10";
name = "29 mai 25 à 10:47";
shapes = (
{
closed = 1;
nodes = (
(362,-246,o),
(453,-148,o),
(453,-47,cs),
(453,48,o),
(358,57,o),
(290,67,cs),
(201,80,o),
(152,84,o),
(152,126,cs),
(152,142,o),
(161,151,o),
(173,151,cs),
(195,151,o),
(204,143,o),
(260,143,cs),
(343,143,o),
(419,219,o),
(419,302,cs),
(419,322,o),
(416,333,o),
(416,345,cs),
(416,358,o),
(421,370,o),
(438,378,cs),
(472,395,o),
(514,379,o),
(514,433,cs),
(514,468,o),
(496,487,o),
(473,487,cs),
(435,487,o),
(416,448,o),
(380,446,cs),
(336,444,o),
(306,481,o),
(246,481,cs),
(125,481,o),
(63,373,o),
(63,312,cs),
(63,228,o),
(101,201,o),
(101,175,cs),
(101,146,o),
(48,136,o),
(48,85,cs),
(48,52,o),
(88,38,o),
(88,22,cs),
(88,12,o),
(80,7,o),
(63,-8,cs),
(36,-32,o),
(5,-61,o),
(5,-108,cs),
(5,-189,o),
(79,-246,o),
(206,-246,cs)
);
},
{
closed = 1;
nodes = (
(172,-164,o),
(98,-132,o),
(98,-73,cs),
(98,-45,o),
(124,-11,o),
(159,-11,cs),
(197,-11,o),
(214,-16,o),
(254,-23,cs),
(336,-38,o),
(368,-51,o),
(368,-90,cs),
(368,-129,o),
(321,-164,o),
(245,-164,cs)
);
},
{
closed = 1;
nodes = (
(213,204,o),
(156,249,o),
(156,322,cs),
(156,375,o),
(192,414,o),
(231,414,cs),
(295,414,o),
(330,354,o),
(330,293,cs),
(330,237,o),
(296,204,o),
(264,204,cs)
);
}
);
width = 519;
},
{
associatedMasterId = m01;
backgroundImage = {
imagePath = "/Downloads/scan-nuisibles-regular 6.jpeg";
locked = 1;
pos = (-109,-338);
scale = (2.7998,2.7998);
};
layerId = "C6F3D377-5F02-4BD9-AD0D-A62E5E1BA687";
name = "29 mai 25 à 10:51";
shapes = (
{
closed = 1;
nodes = (
(362,-246,o),
(453,-148,o),
(453,-47,cs),
(453,28,o),
(358,53,o),
(290,63,cs),
(201,76,o),
(152,84,o),
(152,126,cs),
(152,142,o),
(172,164,o),
(186,164,cs),
(207,164,o),
(216,156,o),
(270,156,cs),
(349,156,o),
(423,229,o),
(423,309,cs),
(423,328,o),
(420,339,o),
(420,350,cs),
(420,363,o),
(425,374,o),
(441,382,cs),
(474,398,o),
(514,383,o),
(514,435,cs),
(514,469,o),
(497,487,o),
(475,487,cs),
(438,487,o),
(420,449,o),
(385,448,cs),
(343,446,o),
(314,481,o),
(256,481,cs),
(140,481,o),
(80,377,o),
(80,319,cs),
(80,238,o),
(117,212,o),
(117,187,cs),
(117,163,o),
(48,136,o),
(48,85,cs),
(48,52,o),
(88,38,o),
(88,22,cs),
(88,12,o),
(80,7,o),
(63,-8,cs),
(36,-32,o),
(5,-61,o),
(5,-108,cs),
(5,-189,o),
(79,-246,o),
(206,-246,cs)
);
},
{
closed = 1;
nodes = (
(172,-164,o),
(98,-132,o),
(98,-73,cs),
(98,-45,o),
(124,-11,o),
(159,-11,cs),
(197,-11,o),
(214,-16,o),
(254,-23,cs),
(336,-38,o),
(368,-51,o),
(368,-90,cs),
(368,-129,o),
(321,-164,o),
(245,-164,cs)
);
},
{
closed = 1;
nodes = (
(224,215,o),
(170,258,o),
(170,328,cs),
(170,379,o),
(203,423,o),
(241,423,cs),
(302,423,o),
(337,359,o),
(337,300,cs),
(337,246,o),
(304,215,o),
(273,215,cs)
);
}
);
width = 519;
}
);
unicode = 103;
},
{
glyphname = h;
lastChange = "2025-06-01 21:24:14 +0000";
layers = (
{
anchors = (
{
name = bottom;
pos = (261,0);
},
{
name = center;
pos = (261,360);
},
{
name = top;
pos = (261,720);
}
);
layerId = m01;
shapes = (
{
closed = 1;
nodes = (
(157,0,ls),
(205,0,o),
(222,4,o),
(222,26,cs),
(222,64,o),
(166,62,o),
(166,174,cs),
(166,222,ls),
(166,332,o),
(216,389,o),
(276,389,cs),
(334,389,o),
(355,332,o),
(355,241,cs),
(355,173,ls),
(355,62,o),
(299,64,o),
(299,25,cs),
(299,-2,o),
(325,0,o),
(354,0,cs),
(432,0,ls),
(480,0,o),
(497,4,o),
(497,26,cs),
(497,64,o),
(441,62,o),
(441,174,cs),
(441,331,ls),
(441,422,o),
(412,481,o),
(334,481,cs),
(255,481,o),
(208,412,o),
(182,412,cs),
(170,412,o),
(166,422,o),
(166,444,cs),
(166,571,ls),
(166,663,o),
(156,736,o),
(124,736,cs),
(95,736,o),
(79,703,o),
(55,676,cs),
(30,648,o),
(15,643,o),
(15,620,cs),
(15,585,o),
(80,592,o),
(80,525,cs),
(80,173,ls),
(80,62,o),
(24,64,o),
(24,25,cs),
(24,-2,o),
(50,0,o),
(79,0,cs)
);
}
);
width = 522;
},
{
associatedMasterId = m01;
layerId = "C34596BD-F50B-4F7D-9DA2-CD1900C188CC";
name = "28 mai 25 à 15:02";
shapes = (
{
alignment = -1;
ref = l;
},
{
alignment = -1;
pos = (-104,0);
ref = jambage;
},
{
pos = (268,0);
ref = "empattement-bas";
}
);
width = 542;
}
);
metricLeft = l;
metricRight = n;
unicode = 104;
},
{
glyphname = idotless;
lastChange = "2025-06-01 21:25:47 +0000";
layers = (
{
anchors = (
{
name = bottom;
pos = (141,0);
},
{
name = ogonek;
pos = (130,0);
},
{
name = top;
pos = (133,465);
}
);
layerId = m01;
shapes = (
{
closed = 1;
nodes = (
(157,0,o),
(159,0,o),
(182,0,cs),
(230,0,o),
(251,4,o),
(251,26,cs),
(251,64,o),
(186,62,o),
(186,174,cs),
(186,303,ls),
(186,378,o),
(186,481,o),
(142,481,cs),
(116,481,o),
(97,446,o),
(75,421,cs),
(54,397,o),
(35,388,o),
(35,367,cs),
(35,328,o),
(100,338,o),
(100,260,cs),
(100,173,ls),
(100,62,o),
(44,61,o),
(44,24,cs),
(44,-2,o),
(72,0,o),
(99,0,cs)
);
}
);
width = 281;
},
{
associatedMasterId = m01;
layerId = "931DCC1E-8EEA-4F2A-9873-8C1FC40E9B3C";
name = "29 mai 25 à 11:42";
shapes = (
{
alignment = -1;
pos = (44,0);
ref = "empattement-bas";
},
{
alignment = -1;
pos = (45,0);
ref = "empattement-haut";
},
{
alignment = -1;
pos = (44,-39);
ref = fut;
}
);
width = 344;
}
);
metricLeft = n;
unicode = 305;
},
{
glyphname = jdotless;
lastChange = "2025-06-01 21:27:45 +0000";
layers = (
{
associatedMasterId = m01;
layerId = "1BCCCDF4-44D3-412A-B862-0472F3B02373";
width = 228;
},
{
associatedMasterId = m01;
layerId = "F5D549B3-1D7E-497B-A135-6643DB2C53B0";
width = 228;
},
{
anchors = (
{
name = bottom;
pos = (94,-230);
},
{
name = top;
pos = (118,465);
}
);
layerId = m01;
shapes = (
{
closed = 1;
nodes = (
(96,-246,o),
(149,-151,o),
(171,-83,cs),
(192,-17,o),
(188,97,o),
(188,132,cs),
(188,200,l),
(102,176,l),
(102,109,o),
(103,-33,o),
(91,-85,cs),
(83,-120,o),
(70,-154,o),
(38,-154,cs),
(3,-154,o),
(-3,-126,o),
(-44,-126,cs),
(-77,-126,o),
(-105,-159,o),
(-105,-189,cs),
(-105,-220,o),
(-74,-246,o),
(-16,-246,cs)
);
},
{
pos = (20,-53);
ref = fut;
},
{
alignment = -1;
pos = (21,0);
ref = "empattement-haut";
}
);
width = 263;
}
);
unicode = 567;
},
{
glyphname = k;
lastChange = "2025-06-01 21:24:14 +0000";
layers = (
{
anchors = (
{
name = bottom;
pos = (334,0);
},
{
name = top;
pos = (259,720);
}
);
layerId = m01;
shapes = (
{
closed = 1;
nodes = (
(501,-2,o),
(522,4,o),
(522,20,cs),
(522,28,o),
(513,37,o),
(492,51,cs),
(441,85,o),
(406,136,o),
(363,193,cs),
(320,250,o),
(310,260,o),
(310,284,cs),
(310,308,o),
(344,368,o),
(397,386,cs),
(448,404,o),
(485,413,o),
(485,439,cs),
(485,466,o),
(443,471,o),
(399,471,cs),
(367,471,o),
(342,470,o),
(311,467,cs),
(284,464,o),
(269,457,o),
(269,441,cs),
(269,421,o),
(287,417,o),
(287,396,cs),
(287,360,o),
(228,290,o),
(197,290,cs),
(175,290,o),
(166,300,o),
(166,357,cs),
(166,571,ls),
(166,663,o),
(156,736,o),
(124,736,cs),
(95,736,o),
(79,703,o),
(55,676,cs),
(30,648,o),
(15,643,o),
(15,620,cs),
(15,585,o),
(80,592,o),
(80,525,cs),
(80,173,ls),
(80,62,o),
(24,64,o),
(24,25,cs),
(24,-2,o),
(50,0,o),
(79,0,cs),
(157,0,ls),
(205,0,o),
(222,4,o),
(222,26,cs),
(222,64,o),
(168,61,o),
(168,172,cs),
(168,203,o),
(180,225,o),
(208,225,cs),
(258,225,o),
(304,112,o),
(333,60,cs),
(362,8,o),
(387,0,o),
(424,0,cs),
(436,0,o),
(470,-2,o),
(485,-2,cs)
);
}
);
width = 517;
},
{
associatedMasterId = m01;
backgroundImage = {
imagePath = "../../../../Downloads/Images/k-17 avr. 25 à 15:44.tif";
locked = 1;
pos = (-37,-74);
scale = (2.5142,2.7319);
};
layerId = "437E689F-8C21-4BB4-85FF-A132065B5844";
name = "17 avr. 25 à 15:44";
shapes = (
{
alignment = -1;
ref = l;
},
{
closed = 1;
nodes = (
(168,300,o),
(175,290,o),
(197,290,cs),
(228,290,o),
(287,360,o),
(287,396,cs),
(287,422,o),
(269,429,o),
(269,449,cs),
(269,465,o),
(284,477,o),
(311,477,cs),
(342,477,o),
(359,458,o),
(391,458,cs),
(420,458,o),
(424,476,o),
(454,476,cs),
(475,476,o),
(489,463,o),
(489,448,cs),
(489,410,o),
(448,400,o),
(397,382,cs),
(344,364,o),
(310,308,o),
(310,284,cs),
(310,260,o),
(320,250,o),
(363,193,cs),
(406,136,o),
(462,63,o),
(492,48,cs),
(515,37,o),
(522,28,o),
(522,20,cs),
(522,4,o),
(501,0,o),
(485,0,cs),
(470,0,o),
(436,0,o),
(412,0,cs),
(387,0,o),
(362,8,o),
(333,60,cs),
(304,112,o),
(258,225,o),
(208,225,cs),
(180,225,o),
(168,203,o),
(168,172,c),
(135,185,l),
(139,360,l),
(168,357,l)
);
}
);
width = 501;
},
{
associatedMasterId = m01;
backgroundImage = {
imagePath = "../../../../Downloads/Images/k-Regular.tif";
locked = 1;
pos = (-37,-74);
scale = (2.5142,2.7319);
};
layerId = "5CED460E-3152-4508-8F69-F38D31F89265";
name = "28 mai 25 à 17:53";
shapes = (
{
alignment = -1;
ref = l;
},
{
closed = 1;
nodes = (
(168,300,o),
(175,290,o),
(197,290,cs),
(228,290,o),
(287,360,o),
(287,396,cs),
(287,417,o),
(269,421,o),
(269,441,cs),
(269,457,o),
(284,466,o),
(311,468,cs),
(342,470,o),
(359,469,o),
(391,469,cs),
(420,469,o),
(437,470,o),
(454,467,cs),
(475,463,o),
(485,454,o),
(485,439,cs),
(485,412,o),
(448,404,o),
(397,386,cs),
(344,368,o),
(310,308,o),
(310,284,cs),
(310,260,o),
(320,250,o),
(363,193,cs),
(406,136,o),
(441,85,o),
(492,51,cs),
(513,37,o),
(522,28,o),
(522,20,cs),
(522,4,o),
(501,-2,o),
(485,-2,cs),
(470,-2,o),
(436,0,o),
(424,0,cs),
(387,0,o),
(362,8,o),
(333,60,cs),
(304,112,o),
(258,225,o),
(208,225,cs),
(180,225,o),
(168,203,o),
(168,172,c),
(135,185,l),
(139,360,l),
(168,357,l)
);
}
);
width = 522;
},
{
associatedMasterId = m01;
layerId = "AAB75C29-137A-43BA-8045-582C0A319993";
name = "29 mai 25 à 11:45";
shapes = (
{
closed = 1;
nodes = (
(501,-2,o),
(522,4,o),
(522,20,cs),
(522,28,o),
(513,37,o),
(492,51,cs),
(441,85,o),
(406,136,o),
(363,193,cs),
(320,250,o),
(310,260,o),
(310,284,cs),
(310,308,o),
(344,368,o),
(397,386,cs),
(448,404,o),
(485,412,o),
(485,439,cs),
(485,454,o),
(475,463,o),
(454,467,cs),
(437,470,o),
(420,469,o),
(391,469,cs),
(359,469,o),
(342,470,o),
(311,468,cs),
(284,466,o),
(269,457,o),
(269,441,cs),
(269,421,o),
(287,417,o),
(287,396,cs),
(287,360,o),
(228,290,o),
(197,290,cs),
(175,290,o),
(166,300,o),
(166,357,cs),
(166,571,ls),
(166,663,o),
(156,736,o),
(124,736,cs),
(95,736,o),
(79,703,o),
(55,676,cs),
(30,648,o),
(15,643,o),
(15,620,cs),
(15,585,o),
(80,592,o),
(80,525,cs),
(80,173,ls),
(80,62,o),
(24,64,o),
(24,25,cs),
(24,-2,o),
(50,0,o),
(79,0,cs),
(157,0,ls),
(205,0,o),
(222,4,o),
(222,26,cs),
(222,64,o),
(168,61,o),
(168,172,cs),
(168,203,o),
(180,225,o),
(208,225,cs),
(258,225,o),
(304,112,o),
(333,60,cs),
(362,8,o),
(387,0,o),
(424,0,cs),
(436,0,o),
(470,-2,o),
(485,-2,cs)
);
}
);
width = 522;
}
);
metricLeft = l;
unicode = 107;
},
{
glyphname = l;
lastChange = "2025-06-01 21:24:14 +0000";
layers = (
{
anchors = (
{
name = bottom;
pos = (177,0);
},
{
name = center;
pos = (126,360);
},
{
name = top;
pos = (126,720);
},
{
name = topright;
pos = (237,720);
}
);
layerId = m01;
shapes = (
{
closed = 1;
nodes = (
(157,0,ls),
(205,0,o),
(222,4,o),
(222,26,cs),
(222,64,o),
(166,62,o),
(166,174,cs),
(166,571,ls),
(166,663,o),
(156,736,o),
(122,736,cs),
(95,736,o),
(79,703,o),
(55,676,cs),
(30,648,o),
(15,643,o),
(15,622,cs),
(15,585,o),
(80,592,o),
(80,485,cs),
(80,173,ls),
(80,62,o),
(24,62,o),
(24,25,cs),
(24,-2,o),
(50,0,o),
(79,0,cs)
);
}
);
width = 252;
},
{
associatedMasterId = m01;
layerId = "A6DD150C-5CF2-4CEE-BB9F-2637725EA119";
name = "29 mai 25 à 11:32";
shapes = (
{
closed = 1;
nodes = (
(157,0,ls),
(205,0,o),
(222,4,o),
(222,26,cs),
(222,64,o),
(166,62,o),
(166,174,cs),
(166,571,ls),
(166,663,o),
(156,736,o),
(124,736,cs),
(95,736,o),
(79,703,o),
(55,676,cs),
(30,648,o),
(15,643,o),
(15,620,cs),
(15,585,o),
(80,592,o),
(80,525,cs),
(80,173,ls),
(80,62,o),
(24,64,o),
(24,25,cs),
(24,-2,o),
(50,0,o),
(79,0,cs)
);
}
);
width = 256;
}
);
unicode = 108;
},
{
glyphname = lslash;
lastChange = "2025-06-01 21:24:14 +0000";
layers = (
{
anchors = (
{
name = bottom;
pos = (197,0);
},
{
name = center;
pos = (146,360);
},
{
name = top;
pos = (146,720);
},
{
name = topright;
pos = (257,720);
}
);
background = {
shapes = (
{
closed = 1;
nodes = (
(150,493,o),
(142,453,o),
(130,404,cs),
(124,380,o),
(116,369,o),
(104,366,cs),
(83,362,o),
(62,358,o),
(46,353,cs),
(17,345,o),
(-4,322,o),
(6,297,cs),
(13,279,o),
(34,277,o),
(58,284,cs),
(65,286,o),
(72,289,o),
(80,292,cs),
(92,297,o),
(98,288,o),
(93,270,cs),
(67,175,o),
(42,82,o),
(42,50,cs),
(42,8,o),
(70,-14,o),
(91,-14,cs),
(119,-14,o),
(141,16,o),
(173,46,cs),
(199,71,o),
(235,94,o),
(235,124,cs),
(235,137,o),
(231,147,o),
(217,147,cs),
(203,147,o),
(178,126,o),
(161,126,cs),
(146,126,o),
(141,142,o),
(141,166,cs),
(141,213,o),
(152,266,o),
(163,310,cs),
(167,326,o),
(172,331,o),
(184,334,cs),
(201,339,o),
(240,342,o),
(272,353,cs),
(298,362,o),
(318,385,o),
(311,404,cs),
(306,422,o),
(287,429,o),
(265,422,cs),
(251,418,o),
(234,410,o),
(216,402,cs),
(199,395,o),
(189,404,o),
(194,422,cs),
(229,530,o),
(267,633,o),
(267,695,cs),
(267,723,o),
(257,732,o),
(244,732,cs),
(223,732,o),
(202,702,o),
(170,684,cs),
(148,671,o),
(108,665,o),
(108,636,cs),
(108,607,o),
(150,598,o),
(150,514,cs)
);
}
);
};
layerId = m01;
shapes = (
{
closed = 1;
nodes = (
(177,0,ls),
(225,0,o),
(242,4,o),
(242,26,cs),
(242,64,o),
(186,62,o),
(186,174,cs),
(186,312,ls),
(186,320,o),
(186,324,o),
(193,329,cs),
(202,336,o),
(245,344,o),
(263,353,cs),
(286,364,o),
(292,386,o),
(284,407,cs),
(278,422,o),
(266,429,o),
(254,429,cs),
(228,429,o),
(209,408,o),
(192,413,cs),
(185,415,o),
(186,425,o),
(186,435,cs),
(186,571,ls),
(186,663,o),
(176,736,o),
(142,736,cs),
(115,736,o),
(99,703,o),
(75,676,cs),
(50,648,o),
(35,643,o),
(35,622,cs),
(35,585,o),
(100,592,o),
(100,485,cs),
(100,407,ls),
(100,399,o),
(100,389,o),
(93,382,cs),
(84,373,o),
(51,363,o),
(34,357,cs),
(7,348,o),
(-3,319,o),
(11,296,cs),
(24,275,o),
(47,275,o),
(69,282,cs),
(76,284,o),
(88,291,o),
(94,290,cs),
(99,289,o),
(100,283,o),
(100,277,cs),
(100,173,ls),
(100,62,o),
(44,62,o),
(44,25,cs),
(44,-2,o),
(70,0,o),
(99,0,cs)
);
}
);
width = 292;
},
{
associatedMasterId = m01;
layerId = "B66FB7FD-B16C-4409-9052-C30ABE67F228";
width = 295;
},
{
associatedMasterId = m01;
layerId = "81DD9964-EEE0-4B57-898C-E26BA687A835";
name = "29 mai 25 à 17:05";
shapes = (
{
pos = (16,0);
ref = l;
},
{
closed = 1;
nodes = (
(2,321,o),
(16,298,cs),
(29,277,o),
(52,277,o),
(74,284,cs),
(95,290,o),
(131,316,o),
(172,330,cs),
(206,342,o),
(243,343,o),
(264,353,cs),
(287,364,o),
(295,383,o),
(285,404,cs),
(276,423,o),
(253,434,o),
(234,427,cs),
(208,419,o),
(180,400,o),
(142,385,cs),
(110,372,o),
(68,369,o),
(39,358,cs),
(14,348,o)
);
}
);
width = 299;
}
);
unicode = 322;
},
{
glyphname = m;
lastChange = "2025-06-01 21:24:14 +0000";
layers = (
{
anchors = (
{
name = bottom;
pos = (404,0);
},
{
name = top;
pos = (404,465);
}
);
layerId = m01;
shapes = (
{
closed = 1;
nodes = (
(157,0,o),
(159,0,o),
(182,0,cs),
(230,0,o),
(251,4,o),
(251,26,cs),
(251,64,o),
(186,62,o),
(186,174,cs),
(186,222,ls),
(186,331,o),
(236,389,o),
(296,389,cs),
(345,389,o),
(366,332,o),
(366,241,cs),
(366,173,ls),
(366,62,o),
(310,64,o),
(310,25,cs),
(310,-2,o),
(336,0,o),
(365,0,cs),
(423,0,o),
(425,0,o),
(448,0,cs),
(496,0,o),
(517,4,o),
(517,26,cs),
(517,64,o),
(452,62,o),
(452,174,cs),
(452,222,ls),
(452,331,o),
(496,389,o),
(556,389,cs),
(611,389,o),
(632,332,o),
(632,241,cs),
(632,173,ls),
(632,62,o),
(576,64,o),
(576,25,cs),
(576,-2,o),
(602,0,o),
(631,0,cs),
(689,0,o),
(691,0,o),
(714,0,cs),
(762,0,o),
(783,4,o),
(783,26,cs),
(783,64,o),
(718,62,o),
(718,174,cs),
(718,331,ls),
(718,422,o),
(689,481,o),
(614,481,cs),
(545,481,o),
(486,409,o),
(460,409,cs),
(449,409,o),
(442,417,o),
(434,431,cs),
(418,463,o),
(392,481,o),
(354,481,cs),
(285,481,o),
(226,409,o),
(200,409,cs),
(188,409,o),
(181,418,o),
(174,441,cs),
(167,464,o),
(159,481,o),
(140,481,cs),
(115,481,o),
(99,448,o),
(75,421,cs),
(50,393,o),
(35,388,o),
(35,365,cs),
(35,330,o),
(100,337,o),
(100,260,cs),
(100,173,ls),
(100,62,o),
(44,64,o),
(44,25,cs),
(44,-2,o),
(70,0,o),
(99,0,cs)
);
}
);
width = 808;
},
{
associatedMasterId = m01;
layerId = "3A47DF60-E232-410B-BDB3-123AB2C48902";
name = "29 mai 25 à 10:57";
shapes = (
{
alignment = -1;
pos = (-26,0);
ref = idotless;
},
{
alignment = -1;
pos = (-79,0);
ref = jambage;
},
{
pos = (293,0);
ref = "empattement-bas";
},
{
alignment = -1;
pos = (181,0);
ref = jambage;
},
{
pos = (553,0);
ref = "empattement-bas";
}
);
width = 827;
}
);
metricLeft = n;
metricRight = n;
unicode = 109;
},
{
glyphname = n;
lastChange = "2025-06-01 21:24:14 +0000";
layers = (
{
anchors = (
{
name = bottom;
pos = (335,0);
},
{
name = top;
pos = (276,465);
}
);
background = {
backgroundImage = {
imagePath = "/Downloads/scan-nuisibles-regular 3.jpeg";
pos = (-480,-440);
scale = (2.8685,2.8685);
};
};
layerId = m01;
shapes = (
{
closed = 1;
nodes = (
(157,0,o),
(159,0,o),
(182,0,cs),
(230,0,o),
(251,4,o),
(251,26,cs),
(251,64,o),
(186,62,o),
(186,174,cs),
(186,222,ls),
(186,331,o),
(236,389,o),
(296,389,cs),
(354,389,o),
(375,332,o),
(375,241,cs),
(375,173,ls),
(375,62,o),
(319,64,o),
(319,25,cs),
(319,-2,o),
(345,0,o),
(374,0,cs),
(432,0,o),
(434,0,o),
(457,0,cs),
(505,0,o),
(526,4,o),
(526,26,cs),
(526,64,o),
(461,62,o),
(461,174,cs),
(461,331,ls),
(461,422,o),
(432,481,o),
(354,481,cs),
(285,481,o),
(226,409,o),
(200,409,cs),
(188,409,o),
(181,418,o),
(173,446,cs),
(167,466,o),
(159,481,o),
(139,481,cs),
(115,481,o),
(99,448,o),
(75,421,cs),
(50,393,o),
(35,388,o),
(35,368,cs),
(35,330,o),
(100,337,o),
(100,270,cs),
(100,173,ls),
(100,62,o),
(44,64,o),
(44,25,cs),
(44,-2,o),
(70,0,o),
(99,0,cs)
);
}
);
width = 551;
},
{
associatedMasterId = m01;
layerId = "EF1E8811-DDCD-4718-8C10-5F1C85DADAEB";
width = 506;
},
{
associatedMasterId = m01;
background = {
backgroundImage = {
imagePath = "/Downloads/scan-nuisibles-regular 3.jpeg";
pos = (-480,-440);
scale = (2.8685,2.8685);
};
shapes = (
{
closed = 0;
nodes = (
(225,446,ls),
(192,445,o),
(192,516,o),
(153,516,cs),
(114,516,o),
(100,483,o),
(71,461,cs),
(42,439,o),
(-7,435,o),
(-7,399,cs),
(-7,363,o),
(24,360,o),
(45,357,cs),
(66,354,o),
(104,339,o),
(111,298,cs)
);
}
);
};
layerId = "77459EA1-2A1F-4378-A6BF-4CE055E8AD83";
name = "28 mai 25 à 13:09";
shapes = (
{
alignment = -1;
pos = (-26,0);
ref = idotless;
},
{
alignment = -1;
pos = (-79,0);
ref = jambage;
},
{
pos = (287,0);
ref = "empattement-bas";
}
);
width = 565;
},
{
associatedMasterId = m01;
background = {
backgroundImage = {
imagePath = "/Downloads/scan-nuisibles-regular 3.jpeg";
pos = (-480,-440);
scale = (2.8685,2.8685);
};
};
layerId = "00D62C15-27AB-4275-B0DC-34CDFDFCDDB0";
name = "29 mai 25 à 10:54";
shapes = (
{
alignment = -1;
pos = (-26,0);
ref = idotless;
},
{
pos = (293,0);
ref = "empattement-bas";
},
{
pos = (-79,0);
ref = jambage;
}
);
width = 567;
}
);
unicode = 110;
},
{
glyphname = o;
lastChange = "2025-06-01 21:24:14 +0000";
layers = (
{
anchors = (
{
name = bottom;
pos = (248,0);
},
{
name = center;
pos = (248,233);
},
{
name = ogonek;
pos = (450,10);
},
{
name = top;
pos = (245,465);
},
{
name = topright;
pos = (481,465);
}
);
layerId = m01;
shapes = (
{
closed = 1;
nodes = (
(395,-14,o),
(461,122,o),
(461,242,cs),
(461,356,o),
(383,480,o),
(238,480,cs),
(117,480,o),
(35,376,o),
(35,244,cs),
(35,113,o),
(113,-14,o),
(254,-14,cs)
);
},
{
closed = 1;
nodes = (
(199,58,o),
(140,179,o),
(140,281,cs),
(140,363,o),
(171,416,o),
(225,416,cs),
(313,416,o),
(356,280,o),
(356,191,cs),
(356,119,o),
(331,58,o),
(280,58,cs)
);
}
);
width = 496;
},
{
associatedMasterId = m01;
layerId = "8352F601-C0FC-4263-917E-0745103BF73A";
width = 495;
},
{
associatedMasterId = m01;
layerId = "D1B5203D-22E5-40C4-8325-EC38FFC0080C";
name = "29 mai 25 à 11:23";
shapes = (
{
closed = 1;
nodes = (
(390,-14,o),
(456,122,o),
(456,242,cs),
(456,356,o),
(378,480,o),
(233,480,cs),
(112,480,o),
(30,376,o),
(30,244,cs),
(30,113,o),
(98,-14,o),
(249,-14,cs)
);
},
{
closed = 1;
nodes = (
(198,56,o),
(141,159,o),
(141,259,cs),
(141,354,o),
(170,417,o),
(228,417,cs),
(304,417,o),
(344,310,o),
(344,214,cs),
(344,131,o),
(321,56,o),
(267,56,cs)
);
}
);
width = 486;
}
);
unicode = 111;
},
{
glyphname = oe;
lastChange = "2025-06-01 21:24:14 +0000";
layers = (
{
background = {
shapes = (
{
closed = 1;
nodes = (
(324,-14,o),
(374,16,o),
(408,59,c),
(446,12,o),
(499,-14,o),
(560,-14,cs),
(642,-14,o),
(709,40,o),
(709,66,cs),
(709,75,o),
(703,84,o),
(692,84,cs),
(673,84,o),
(653,62,o),
(597,62,cs),
(513,62,o),
(466,138,o),
(466,227,cs),
(466,265,o),
(480,280,o),
(504,280,cs),
(537,280,o),
(591,276,o),
(630,276,cs),
(688,276,o),
(728,318,o),
(728,375,cs),
(728,422,o),
(680,479,o),
(600,479,cs),
(528,479,o),
(461,449,o),
(415,396,c),
(377,446,o),
(319,480,o),
(243,480,cs),
(122,480,o),
(40,376,o),
(40,244,cs),
(40,113,o),
(118,-14,o),
(259,-14,cs)
);
},
{
closed = 1;
nodes = (
(204,58,o),
(145,179,o),
(145,281,cs),
(145,363,o),
(176,416,o),
(230,416,cs),
(318,416,o),
(361,280,o),
(361,191,cs),
(361,119,o),
(336,58,o),
(285,58,cs)
);
},
{
closed = 1;
nodes = (
(513,330,o),
(491,337,o),
(491,360,cs),
(491,390,o),
(525,420,o),
(567,420,cs),
(603,420,o),
(628,400,o),
(628,367,cs),
(628,332,o),
(592,330,o),
(541,330,cs)
);
}
);
};
layerId = m01;
shapes = (
{
closed = 1;
nodes = (
(363,-14,o),
(381,59,o),
(404,59,cs),
(426,59,o),
(441,-14,o),
(555,-14,cs),
(637,-14,o),
(704,40,o),
(704,66,cs),
(704,75,o),
(698,84,o),
(687,84,cs),
(668,84,o),
(648,62,o),
(592,62,cs),
(508,62,o),
(461,138,o),
(461,227,cs),
(461,265,o),
(475,280,o),
(499,280,cs),
(532,280,o),
(586,276,o),
(625,276,cs),
(683,276,o),
(723,318,o),
(723,375,cs),
(723,422,o),
(675,479,o),
(595,479,cs),
(468,479,o),
(439,398,o),
(411,398,cs),
(382,398,o),
(356,480,o),
(238,480,cs),
(117,480,o),
(35,376,o),
(35,244,cs),
(35,113,o),
(113,-14,o),
(254,-14,cs)
);
},
{
closed = 1;
nodes = (
(199,58,o),
(140,179,o),
(140,281,cs),
(140,363,o),
(171,416,o),
(225,416,cs),
(313,416,o),
(356,280,o),
(356,191,cs),
(356,119,o),
(331,58,o),
(280,58,cs)
);
},
{
closed = 1;
nodes = (
(508,330,o),
(486,337,o),
(486,360,cs),
(486,390,o),
(520,420,o),
(562,420,cs),
(598,420,o),
(623,400,o),
(623,367,cs),
(623,332,o),
(587,330,o),
(536,330,cs)
);
}
);
width = 753;
}
);
metricLeft = o;
metricRight = e;
unicode = 339;
},
{
glyphname = p;
lastChange = "2025-06-01 21:24:14 +0000";
layers = (
{
anchors = (
{
name = bottom;
pos = (261,0);
},
{
name = top;
pos = (261,465);
}
);
layerId = m01;
shapes = (
{
closed = 1;
nodes = (
(176,-230,ls),
(224,-230,o),
(241,-226,o),
(241,-204,cs),
(241,-166,o),
(165,-178,o),
(165,-56,cs),
(165,-18,ls),
(165,9,o),
(171,23,o),
(189,23,cs),
(217,23,o),
(234,-10,o),
(295,-10,cs),
(397,-10,o),
(487,87,o),
(487,229,cs),
(487,393,o),
(382,481,o),
(311,481,cs),
(240,481,o),
(215,433,o),
(181,433,cs),
(139,433,o),
(153,481,o),
(115,481,cs),
(84,481,o),
(15,403,o),
(15,365,cs),
(15,327,o),
(78,348,o),
(78,271,cs),
(78,72,ls),
(78,0,o),
(79,-38,o),
(79,-61,cs),
(77,-168,o),
(23,-177,o),
(23,-205,cs),
(23,-232,o),
(49,-230,o),
(78,-230,cs)
);
},
{
closed = 1;
nodes = (
(221,56,o),
(171,146,o),
(171,259,cs),
(171,340,o),
(209,400,o),
(268,400,cs),
(329,400,o),
(384,333,o),
(384,205,cs),
(384,112,o),
(346,56,o),
(291,56,cs)
);
}
);
width = 522;
},
{
associatedMasterId = m01;
layerId = "56D8A70A-57C3-435B-A98E-BCCD07049DAE";
name = "28 mai 25 à 16:30";
shapes = (
{
alignment = -1;
angle = 180;
pos = (594,468);
ref = panse;
},
{
alignment = -1;
pos = (18,-230);
ref = "empattement-bas";
},
{
alignment = -1;
pos = (19,0);
ref = "empattement-haut";
},
{
pos = (-30,-238);
ref = "fut-long";
scale = (1,1.0371);
}
);
width = 541;
},
{
associatedMasterId = m01;
layerId = "B9890220-03DD-4A65-A3D3-85B440F20243";
name = "29 mai 25 à 11:55";
shapes = (
{
closed = 1;
nodes = (
(183,-230,ls),
(231,-230,o),
(248,-226,o),
(248,-204,cs),
(248,-166,o),
(192,-168,o),
(192,-56,cs),
(192,-32,o),
(192,-22,o),
(192,-8,cs),
(192,9,o),
(197,25,o),
(215,25,cs),
(243,25,o),
(261,-10,o),
(322,-10,cs),
(424,-10,o),
(514,87,o),
(514,229,cs),
(514,393,o),
(409,481,o),
(338,481,cs),
(267,481,o),
(256,439,o),
(212,439,cs),
(177,439,o),
(191,481,o),
(149,481,cs),
(120,481,o),
(104,448,o),
(80,421,cs),
(55,393,o),
(40,388,o),
(40,365,cs),
(40,330,o),
(105,337,o),
(105,270,cs),
(105,72,ls),
(105,0,o),
(106,-38,o),
(106,-61,cs),
(104,-168,o),
(50,-167,o),
(50,-205,cs),
(50,-232,o),
(76,-230,o),
(105,-230,cs)
);
},
{
closed = 1;
nodes = (
(248,49,o),
(198,139,o),
(198,252,cs),
(198,333,o),
(227,395,o),
(281,395,cs),
(349,395,o),
(411,326,o),
(411,198,cs),
(411,105,o),
(373,49,o),
(313,49,cs)
);
}
);
width = 544;
}
);
metricRight = o;
unicode = 112;
},
{
glyphname = q;
lastChange = "2025-06-01 21:24:14 +0000";
layers = (
{
anchors = (
{
name = bottom;
pos = (255,0);
},
{
name = top;
pos = (255,465);
}
);
layerId = m01;
shapes = (
{
closed = 1;
nodes = (
(438,-230,ls),
(467,-230,o),
(495,-232,o),
(495,-205,cs),
(495,-166,o),
(437,-168,o),
(437,-57,cs),
(436,189,ls),
(435,361,o),
(452,402,o),
(452,445,cs),
(452,471,o),
(437,481,o),
(409,481,cs),
(364,481,o),
(376,446,o),
(339,446,cs),
(306,446,o),
(288,478,o),
(227,478,cs),
(125,478,o),
(35,381,o),
(35,239,cs),
(35,75,o),
(140,-13,o),
(211,-13,cs),
(282,-13,o),
(301,31,o),
(331,31,cs),
(342,31,o),
(352,26,o),
(352,1,cs),
(352,-56,ls),
(352,-168,o),
(292,-166,o),
(292,-204,cs),
(292,-226,o),
(312,-230,o),
(360,-230,cs)
);
},
{
closed = 1;
nodes = (
(198,67,o),
(136,136,o),
(136,264,cs),
(136,357,o),
(174,413,o),
(234,413,cs),
(299,413,o),
(349,323,o),
(349,220,cs),
(349,129,o),
(320,67,o),
(266,67,cs)
);
}
);
width = 510;
},
{
associatedMasterId = m01;
layerId = "EB454188-F9A1-4470-A0B9-AB65497E896A";
name = "28 mai 25 à 15:12";
shapes = (
{
alignment = -1;
pos = (-53,0);
ref = panse;
},
{
alignment = -1;
pos = (526,-230);
ref = "empattement-bas";
scale = (-1,1);
},
{
closed = 1;
nodes = (
(347,333,l),
(347,428,o),
(350,481,o),
(392,481,cs),
(432,481,o),
(452,463,o),
(452,433,cs),
(452,392,o),
(440,359,o),
(440,278,c)
);
},
{
pos = (574,-248);
ref = "fut-long";
scale = (-1,1.0531);
}
);
width = 520;
},
{
associatedMasterId = m01;
layerId = "510BB4D0-C2AB-4C42-B5EE-ABCD5A1F085D";
name = "28 mai 25 à 17:11";
shapes = (
{
alignment = -1;
pos = (-53,0);
ref = panse;
},
{
alignment = -1;
pos = (519,-230);
ref = "empattement-bas";
scale = (-1,1);
},
{
closed = 1;
nodes = (
(347,333,l),
(347,386,o),
(321,439,o),
(346,442,cs),
(366,444,o),
(363,481,o),
(404,481,cs),
(432,481,o),
(447,471,o),
(447,445,cs),
(447,393,o),
(433,372,o),
(433,278,c)
);
},
{
pos = (-1,480);
ref = "fut-bdpq";
scale = (1,-1);
}
);
width = 523;
}
);
metricLeft = o;
unicode = 113;
},
{
glyphname = r;
lastChange = "2025-06-01 21:24:14 +0000";
layers = (
{
anchors = (
{
name = bottom;
pos = (207,0);
},
{
name = top;
pos = (197,465);
}
);
layerId = m01;
shapes = (
{
closed = 1;
nodes = (
(182,0,ls),
(230,0,o),
(251,4,o),
(251,26,cs),
(251,63,o),
(190,62,o),
(186,162,cs),
(182,257,o),
(206,296,o),
(256,326,cs),
(307,356,o),
(393,344,o),
(393,418,cs),
(393,453,o),
(375,480,o),
(335,480,cs),
(263,480,o),
(257,372,o),
(214,372,cs),
(202,372,o),
(189,379,o),
(185,405,cs),
(178,448,o),
(173,481,o),
(146,481,cs),
(118,481,o),
(105,448,o),
(81,421,cs),
(56,393,o),
(35,388,o),
(35,365,cs),
(35,327,o),
(101,337,o),
(101,246,cs),
(101,160,ls),
(101,60,o),
(44,64,o),
(44,25,cs),
(44,-2,o),
(70,0,o),
(99,0,cs)
);
}
);
width = 393;
},
{
associatedMasterId = m01;
backgroundImage = {
imagePath = "/Downloads/scan-nuisibles-regular 2.jpeg";
locked = 1;
pos = (-321,-355);
scale = (2.936,2.936);
};
layerId = "20C5D502-A9BE-454E-AB87-8D14FA492DBC";
name = "3 avr. 25 à 18:33";
shapes = (
{
alignment = -1;
ref = idotless;
},
{
closed = 1;
nodes = (
(279,409,o),
(293,516,o),
(372,516,cs),
(416,516,o),
(429,484,o),
(429,462,cs),
(429,431,o),
(409,400,o),
(354,381,cs),
(274,354,o),
(227,298,o),
(227,166,c),
(227,268,o),
(220,443,o),
(223,456,c),
(225,443,o),
(226,409,o),
(246,409,cs)
);
}
);
width = 449;
},
{
associatedMasterId = m01;
backgroundImage = {
imagePath = "/Downloads/scan-nuisibles-regular 2.jpeg";
locked = 1;
pos = (-321,-355);
scale = (2.936,2.936);
};
layerId = "BEA0E2FE-7CDD-4184-82BB-0DE0C35A1E22";
name = "3 avr. 25 à 18:35";
shapes = (
{
closed = 1;
nodes = (
(234,0,ls),
(282,0,o),
(303,4,o),
(303,26,cs),
(303,66,o),
(221,61,o),
(221,176,cs),
(221,309,o),
(260,349,o),
(354,381,cs),
(409,400,o),
(429,431,o),
(429,462,cs),
(429,484,o),
(416,516,o),
(372,516,cs),
(293,516,o),
(279,409,o),
(246,409,cs),
(230,409,o),
(226,432,o),
(224,447,cs),
(220,490,o),
(209,516,o),
(182,516,cs),
(148,516,o),
(134,483,o),
(110,456,cs),
(85,428,o),
(50,423,o),
(50,400,cs),
(50,365,o),
(134,384,o),
(134,303,cs),
(134,173,ls),
(134,62,o),
(59,64,o),
(59,25,cs),
(59,-4,o),
(85,0,o),
(124,0,cs)
);
}
);
width = 449;
},
{
associatedMasterId = m01;
layerId = "B1DA5C5D-13C6-4962-986D-399191331104";
name = "28 mai 25 à 12:57";
shapes = (
{
pos = (18,0);
ref = "empattement-bas";
},
{
closed = 1;
nodes = (
(196,381,o),
(205,372,o),
(220,372,cs),
(262,372,o),
(268,480,o),
(340,480,cs),
(378,480,o),
(400,451,o),
(400,417,cs),
(400,345,o),
(326,357,o),
(276,326,cs),
(227,296,o),
(196,243,o),
(196,149,c),
(105,148,l),
(105,267,l),
(194,398,l)
);
},
{
pos = (19,0);
ref = "empattement-haut";
}
);
width = 395;
},
{
associatedMasterId = m01;
layerId = "FCAD1DCD-C1CD-4778-8946-C63742AA006B";
name = "29 mai 25 à 11:36";
shapes = (
{
closed = 1;
nodes = (
(187,0,ls),
(235,0,o),
(256,4,o),
(256,26,cs),
(256,63,o),
(197,62,o),
(193,152,cs),
(189,257,o),
(222,298,o),
(272,328,cs),
(323,358,o),
(398,354,o),
(398,418,cs),
(398,453,o),
(380,480,o),
(340,480,cs),
(268,480,o),
(262,372,o),
(219,372,cs),
(207,372,o),
(196,379,o),
(194,400,cs),
(190,448,o),
(181,481,o),
(151,481,cs),
(119,481,o),
(106,446,o),
(82,419,cs),
(57,391,o),
(40,388,o),
(40,365,cs),
(40,330,o),
(105,339,o),
(105,258,cs),
(105,152,ls),
(105,62,o),
(49,64,o),
(49,25,cs),
(49,-2,o),
(75,0,o),
(104,0,cs)
);
}
);
width = 395;
}
);
metricLeft = n;
unicode = 114;
},
{
glyphname = s;
lastChange = "2025-06-01 21:24:14 +0000";
layers = (
{
anchors = (
{
name = bottom;
pos = (276,0);
},
{
name = top;
pos = (214,465);
}
);
layerId = m01;
shapes = (
{
closed = 1;
nodes = (
(324,-16,o),
(382,49,o),
(382,124,cs),
(382,192,o),
(334,220,o),
(258,271,cs),
(194,314,o),
(169,335,o),
(169,369,cs),
(169,401,o),
(191,418,o),
(218,418,cs),
(282,418,o),
(296,324,o),
(332,324,cs),
(361,324,o),
(370,383,o),
(370,406,cs),
(370,427,o),
(363,443,o),
(351,452,cs),
(335,464,o),
(288,480,o),
(236,480,cs),
(137,480,o),
(67,422,o),
(67,344,cs),
(67,282,o),
(110,251,o),
(178,207,cs),
(251,160,o),
(284,142,o),
(284,102,cs),
(284,67,o),
(260,47,o),
(227,47,cs),
(194,47,o),
(144,66,o),
(130,126,cs),
(122,160,o),
(113,174,o),
(95,174,cs),
(56,174,o),
(45,106,o),
(45,75,cs),
(45,45,o),
(55,22,o),
(80,8,cs),
(107,-7,o),
(160,-16,o),
(204,-16,cs)
);
}
);
width = 427;
},
{
associatedMasterId = m01;
layerId = "9EF3341B-372D-4294-BD20-C0771F302CB5";
name = "17 avr. 25 à 16:10";
shapes = (
{
closed = 1;
nodes = (
(309,-16,o),
(378,41,o),
(378,125,cs),
(378,205,o),
(309,233,o),
(257,269,cs),
(205,305,o),
(168,326,o),
(168,365,cs),
(168,402,o),
(196,417,o),
(217,417,cs),
(286,417,o),
(291,334,o),
(334,334,cs),
(358,334,o),
(367,381,o),
(367,407,cs),
(367,428,o),
(358,441,o),
(347,449,cs),
(331,461,o),
(291,480,o),
(227,480,cs),
(141,480,o),
(66,426,o),
(66,351,cs),
(66,273,o),
(123,241,o),
(177,207,cs),
(236,170,o),
(283,149,o),
(283,94,cs),
(283,63,o),
(259,42,o),
(228,42,cs),
(190,42,o),
(140,65,o),
(125,133,cs),
(118,167,o),
(109,181,o),
(90,181,cs),
(53,181,o),
(45,111,o),
(45,73,cs),
(45,16,o),
(123,-16,o),
(213,-16,cs)
);
}
);
width = 428;
}
);
unicode = 115;
},
{
glyphname = t;
lastChange = "2025-06-01 21:24:14 +0000";
layers = (
{
anchors = (
{
name = bottom;
pos = (246,0);
},
{
name = center;
pos = (178,233);
},
{
name = top;
pos = (178,465);
},
{
name = topright;
pos = (341,720);
}
);
layerId = m01;
shapes = (
{
closed = 1;
nodes = (
(243,-14,o),
(330,30,o),
(330,71,cs),
(330,80,o),
(325,94,o),
(310,94,cs),
(295,94,o),
(268,72,o),
(238,72,cs),
(196,72,o),
(169,96,o),
(169,148,cs),
(169,318,ls),
(169,374,o),
(204,381,o),
(225,381,cs),
(238,381,o),
(257,378,o),
(270,378,cs),
(319,378,o),
(341,416,o),
(341,448,cs),
(341,469,o),
(331,475,o),
(320,475,cs),
(304,475,o),
(276,462,o),
(246,462,cs),
(222,462,o),
(188,470,o),
(188,524,cs),
(188,572,o),
(177,590,o),
(155,590,cs),
(117,590,o),
(117,534,o),
(88,498,cs),
(59,462,o),
(10,456,o),
(10,421,cs),
(10,378,o),
(83,410,o),
(83,299,cs),
(83,206,o),
(80,164,o),
(80,101,cs),
(80,45,o),
(116,-14,o),
(193,-14,cs)
);
}
);
width = 356;
},
{
associatedMasterId = m01;
backgroundImage = {
imagePath = "../../../../Downloads/Nuisibles Regular/Images/t-Regular.tif";
locked = 1;
pos = (-39,-93);
scale = (2.933,2.933);
};
layerId = "621430DE-C9C4-4A7C-ACBC-CE67CDC05889";
name = "29 mai 25 à 11:40";
shapes = (
{
closed = 1;
nodes = (
(174,325,l),
(174,370,o),
(212,378,o),
(231,378,cs),
(250,378,o),
(259,375,o),
(276,375,cs),
(323,375,o),
(346,415,o),
(346,449,cs),
(346,469,o),
(335,475,o),
(326,475,cs),
(307,475,o),
(285,462,o),
(248,462,cs),
(227,462,o),
(193,471,o),
(193,524,cs),
(193,574,o),
(182,590,o),
(157,590,cs),
(125,590,o),
(114,527,o),
(92,497,cs),
(74,474,o),
(15,454,o),
(15,423,cs),
(15,376,o),
(88,408,o),
(88,296,c)
);
},
{
closed = 1;
nodes = (
(256,-11,o),
(295,20,o),
(309,31,cs),
(328,46,o),
(335,63,o),
(335,74,cs),
(335,83,o),
(331,95,o),
(319,95,cs),
(307,95,o),
(277,73,o),
(248,73,cs),
(201,73,o),
(174,95,o),
(174,149,cs),
(174,174,l),
(88,174,l),
(88,147,o),
(85,130,o),
(85,104,cs),
(85,48,o),
(123,-11,o),
(194,-11,cs)
);
},
{
pos = (1,0);
ref = fut;
}
);
width = 366;
},
{
associatedMasterId = m01;
backgroundImage = {
imagePath = "../../../../Downloads/Nuisibles Regular/Images/t-Regular.tif";
locked = 1;
pos = (-39,-93);
scale = (2.933,2.933);
};
layerId = "0E525F84-273F-4F20-80EA-2CB2AD0E4D6F";
name = "29 mai 25 à 12:17";
shapes = (
{
closed = 1;
nodes = (
(88,206,o),
(85,164,o),
(85,101,cs),
(85,45,o),
(121,-14,o),
(198,-14,cs),
(260,-14,o),
(305,25,o),
(309,28,cs),
(328,43,o),
(335,60,o),
(335,71,cs),
(335,80,o),
(331,92,o),
(320,92,cs),
(304,92,o),
(283,70,o),
(243,70,cs),
(201,70,o),
(174,94,o),
(174,146,cs),
(174,318,ls),
(174,374,o),
(209,381,o),
(230,381,cs),
(243,381,o),
(262,378,o),
(275,378,cs),
(324,378,o),
(346,416,o),
(346,448,cs),
(346,469,o),
(336,475,o),
(325,475,cs),
(309,475,o),
(281,462,o),
(251,462,cs),
(227,462,o),
(193,470,o),
(193,524,cs),
(193,572,o),
(182,590,o),
(160,590,cs),
(122,590,o),
(122,534,o),
(93,498,cs),
(64,462,o),
(15,456,o),
(15,421,cs),
(15,378,o),
(88,410,o),
(88,299,cs)
);
}
);
width = 366;
}
);
unicode = 116;
},
{
glyphname = u;
lastChange = "2025-06-01 21:24:14 +0000";
layers = (
{
anchors = (
{
name = ogonek;
pos = (236,0);
},
{
name = top;
pos = (279,465);
},
{
name = topright;
pos = (542,465);
}
);
layerId = m01;
shapes = (
{
closed = 1;
nodes = (
(283,-16,o),
(332,44,o),
(364,44,cs),
(397,44,o),
(397,-13,o),
(431,-13,cs),
(451,-13,o),
(462,2,o),
(486,29,cs),
(511,57,o),
(522,74,o),
(522,95,cs),
(522,142,o),
(458,102,o),
(458,191,cs),
(458,305,ls),
(458,402,o),
(451,481,o),
(415,481,cs),
(393,481,o),
(383,459,o),
(359,432,cs),
(334,404,o),
(308,398,o),
(308,375,cs),
(308,340,o),
(372,337,o),
(372,260,cs),
(372,233,ls),
(372,134,o),
(322,79,o),
(262,79,cs),
(204,79,o),
(183,133,o),
(183,224,cs),
(183,283,ls),
(183,387,o),
(177,481,o),
(140,481,cs),
(113,481,o),
(99,453,o),
(75,426,cs),
(50,398,o),
(35,393,o),
(35,370,cs),
(35,335,o),
(97,337,o),
(97,260,cs),
(97,134,ls),
(97,43,o),
(136,-16,o),
(204,-16,cs)
);
}
);
width = 557;
},
{
associatedMasterId = m01;
layerId = "AE1F22D0-7F88-4294-8C0B-470EC3349287";
name = "29 mai 25 à 11:13";
shapes = (
{
alignment = -1;
angle = 180;
pos = (552,465);
ref = "empattement-haut";
},
{
alignment = -1;
pos = (293,-26);
ref = fut;
},
{
alignment = -1;
angle = 180;
pos = (650,465);
ref = jambage;
},
{
alignment = -1;
pos = (19,0);
ref = "empattement-haut";
},
{
alignment = -1;
pos = (294,0);
ref = "empattement-haut";
}
);
width = 567;
},
{
associatedMasterId = m01;
layerId = "71FAE835-9788-4C4A-99E1-F50CE1A552DC";
name = "29 mai 25 à 11:18";
shapes = (
{
closed = 1;
nodes = (
(466,305,ls),
(466,402,o),
(456,481,o),
(424,481,cs),
(395,481,o),
(379,448,o),
(355,421,cs),
(330,393,o),
(315,388,o),
(315,365,cs),
(315,330,o),
(380,337,o),
(380,260,cs),
(380,243,ls),
(380,134,o),
(330,76,o),
(270,76,cs),
(212,76,o),
(191,133,o),
(191,224,cs),
(191,283,ls),
(191,387,o),
(184,481,o),
(149,481,cs),
(120,481,o),
(104,448,o),
(80,421,cs),
(55,393,o),
(40,388,o),
(40,365,cs),
(40,330,o),
(105,337,o),
(105,270,cs),
(105,134,ls),
(105,43,o),
(134,-16,o),
(212,-16,cs),
(281,-16,o),
(340,56,o),
(366,56,cs),
(378,56,o),
(385,47,o),
(391,27,cs),
(399,1,o),
(407,-16,o),
(425,-16,cs),
(451,-16,o),
(467,17,o),
(491,44,cs),
(516,72,o),
(531,77,o),
(531,100,cs),
(531,135,o),
(466,128,o),
(466,195,cs)
);
}
);
width = 567;
},
{
associatedMasterId = m01;
layerId = "11F78A29-AEAF-44AB-9C88-411F235C5C3F";
name = "29 mai 25 à 12:20";
shapes = (
{
closed = 1;
nodes = (
(463,305,ls),
(463,402,o),
(456,481,o),
(420,481,cs),
(398,481,o),
(388,459,o),
(364,432,cs),
(339,404,o),
(313,398,o),
(313,375,cs),
(313,340,o),
(377,337,o),
(377,260,cs),
(377,243,ls),
(377,134,o),
(327,76,o),
(267,76,cs),
(209,76,o),
(188,133,o),
(188,224,cs),
(188,283,ls),
(188,387,o),
(182,481,o),
(145,481,cs),
(118,481,o),
(104,453,o),
(80,426,cs),
(55,398,o),
(40,393,o),
(40,370,cs),
(40,335,o),
(102,337,o),
(102,260,cs),
(102,134,ls),
(102,43,o),
(131,-16,o),
(209,-16,cs),
(278,-16,o),
(337,56,o),
(363,56,cs),
(375,56,o),
(382,47,o),
(388,27,cs),
(396,1,o),
(404,-16,o),
(422,-16,cs),
(448,-16,o),
(464,17,o),
(488,44,cs),
(513,72,o),
(528,77,o),
(528,100,cs),
(528,135,o),
(463,128,o),
(463,195,cs)
);
}
);
width = 558;
},
{
associatedMasterId = m01;
layerId = "2B1949C1-874F-4715-820A-03645AA1B08A";
name = "29 mai 25 à 12:23";
shapes = (
{
closed = 1;
nodes = (
(402,44,o),
(402,-13,o),
(436,-13,cs),
(456,-13,o),
(467,2,o),
(491,29,cs),
(516,57,o),
(527,74,o),
(527,95,cs),
(527,142,o),
(463,102,o),
(463,191,cs),
(463,305,ls),
(463,402,o),
(456,481,o),
(420,481,cs),
(398,481,o),
(388,459,o),
(364,432,cs),
(339,404,o),
(313,398,o),
(313,375,cs),
(313,340,o),
(377,337,o),
(377,260,cs),
(377,243,ls),
(377,134,o),
(327,76,o),
(267,76,cs),
(209,76,o),
(188,133,o),
(188,224,cs),
(188,283,ls),
(188,387,o),
(182,481,o),
(145,481,cs),
(118,481,o),
(104,453,o),
(80,426,cs),
(55,398,o),
(40,393,o),
(40,370,cs),
(40,335,o),
(102,337,o),
(102,260,cs),
(102,134,ls),
(102,43,o),
(131,-16,o),
(209,-16,cs),
(278,-16,o),
(337,44,o),
(369,44,cs)
);
}
);
width = 567;
}
);
metricLeft = n;
unicode = 117;
},
{
glyphname = v;
lastChange = "2025-06-01 21:24:14 +0000";
layers = (
{
anchors = (
{
name = bottom;
pos = (258,0);
},
{
name = top;
pos = (258,465);
}
);
layerId = m01;
shapes = (
{
closed = 1;
nodes = (
(291,-10,o),
(316,22,o),
(339,85,cs),
(407,274,ls),
(423,318,o),
(435,363,o),
(458,385,cs),
(481,407,o),
(510,419,o),
(510,439,cs),
(510,459,o),
(496,467,o),
(472,467,cs),
(348,467,ls),
(321,467,o),
(304,458,o),
(304,440,cs),
(304,417,o),
(363,405,o),
(363,364,cs),
(363,342,o),
(355,321,o),
(344,290,cs),
(308,185,ls),
(296,149,o),
(287,136,o),
(271,136,cs),
(255,136,o),
(248,159,o),
(238,190,cs),
(171,393,ls),
(150,458,o),
(127,474,o),
(57,474,cs),
(14,474,o),
(-10,455,o),
(-10,437,cs),
(-10,419,o),
(16,410,o),
(39,390,cs),
(62,370,o),
(76,344,o),
(89,308,cs),
(176,72,ls),
(194,22,o),
(216,-10,o),
(252,-10,cs)
);
}
);
width = 515;
},
{
associatedMasterId = m01;
layerId = "CFCF9750-30E6-4DAB-9BCE-9AC6576C9A26";
name = "17 avr. 25 à 15:49";
shapes = (
{
closed = 1;
nodes = (
(113,477,o),
(139,460,o),
(159,396,cs),
(224,190,ls),
(232,164,o),
(242,133,o),
(258,133,cs),
(274,133,o),
(283,160,o),
(295,190,cs),
(337,296,ls),
(349,326,o),
(357,348,o),
(357,365,cs),
(357,404,o),
(300,410,o),
(300,442,cs),
(300,462,o),
(319,472,o),
(346,474,cs),
(356,475,o),
(382,475,o),
(409,475,cs),
(438,475,o),
(463,476,o),
(479,474,cs),
(503,471,o),
(522,462,o),
(522,440,cs),
(522,401,o),
(483,399,o),
(452,369,cs),
(407,326,o),
(353,158,o),
(321,88,cs),
(289,18,o),
(271,-7,o),
(238,-7,cs),
(208,-7,o),
(181,22,o),
(165,65,cs),
(72,311,ls),
(37,402,o),
(-20,420,o),
(-20,450,cs),
(-20,468,o),
(-3,477,o),
(40,477,cs)
);
}
);
width = 512;
},
{
associatedMasterId = m01;
layerId = "AE3F868B-869E-47DC-AE06-B9FF52435F9D";
name = "29 mai 25 à 12:24";
shapes = (
{
closed = 1;
nodes = (
(291,-7,o),
(309,27,o),
(336,88,cs),
(367,159,o),
(410,326,o),
(460,374,cs),
(486,399,o),
(517,400,o),
(517,435,cs),
(517,455,o),
(501,465,o),
(477,468,cs),
(452,471,o),
(375,470,o),
(348,468,cs),
(321,466,o),
(302,456,o),
(302,436,cs),
(302,405,o),
(363,405,o),
(363,364,cs),
(363,342,o),
(355,321,o),
(344,290,cs),
(308,188,ls),
(295,152,o),
(287,139,o),
(271,139,cs),
(255,139,o),
(247,162,o),
(238,193,cs),
(179,390,ls),
(159,455,o),
(133,471,o),
(60,471,cs),
(17,471,o),
(-10,452,o),
(-10,434,cs),
(-10,416,o),
(19,405,o),
(42,385,cs),
(65,365,o),
(79,341,o),
(92,305,cs),
(176,75,ls),
(194,25,o),
(216,-7,o),
(252,-7,cs)
);
}
);
width = 527;
}
);
unicode = 118;
},
{
glyphname = w;
lastChange = "2025-06-01 21:24:14 +0000";
layers = (
{
anchors = (
{
name = bottom;
pos = (386,0);
},
{
name = top;
pos = (386,465);
}
);
layerId = m01;
shapes = (
{
closed = 1;
nodes = (
(274,-7,o),
(297,25,o),
(318,88,cs),
(356,204,ls),
(364,227,o),
(370,236,o),
(381,236,cs),
(390,236,o),
(397,226,o),
(403,206,cs),
(444,75,ls),
(460,25,o),
(480,-7,o),
(516,-7,cs),
(555,-7,o),
(577,25,o),
(600,88,cs),
(674,289,ls),
(685,318,o),
(697,363,o),
(720,385,cs),
(743,407,o),
(772,419,o),
(772,439,cs),
(772,459,o),
(758,467,o),
(734,467,cs),
(610,467,ls),
(583,467,o),
(566,458,o),
(566,440,cs),
(566,417,o),
(625,405,o),
(625,364,cs),
(625,342,o),
(616,321,o),
(606,290,cs),
(572,188,ls),
(560,152,o),
(552,139,o),
(538,139,cs),
(520,139,o),
(515,162,o),
(504,193,cs),
(472,287,ls),
(458,328,o),
(444,358,o),
(444,375,cs),
(444,410,o),
(477,415,o),
(477,437,cs),
(477,464,o),
(440,470,o),
(380,470,cs),
(342,470,o),
(299,465,o),
(299,436,cs),
(299,414,o),
(346,405,o),
(346,364,cs),
(346,342,o),
(338,321,o),
(327,290,cs),
(292,188,ls),
(280,152,o),
(273,139,o),
(257,139,cs),
(241,139,o),
(232,162,o),
(224,193,cs),
(171,393,ls),
(154,459,o),
(127,474,o),
(57,474,cs),
(14,474,o),
(-10,455,o),
(-10,437,cs),
(-10,419,o),
(16,410,o),
(39,390,cs),
(62,370,o),
(78,345,o),
(89,308,cs),
(159,75,ls),
(174,24,o),
(199,-7,o),
(235,-7,cs)
);
}
);
width = 772;
},
{
associatedMasterId = m01;
layerId = "AB2B0140-7576-40FE-AA5F-9864AB77770F";
name = "17 avr. 25 à 16:31";
shapes = (
{
closed = 1;
nodes = (
(117,471,o),
(136,456,o),
(153,390,cs),
(203,193,ls),
(211,162,o),
(220,139,o),
(236,139,cs),
(252,139,o),
(261,152,o),
(273,188,cs),
(307,290,ls),
(317,321,o),
(326,342,o),
(326,364,cs),
(326,405,o),
(265,405,o),
(265,436,cs),
(265,456,o),
(284,466,o),
(311,468,cs),
(338,470,o),
(405,471,o),
(430,468,cs),
(454,465,o),
(470,455,o),
(470,435,cs),
(470,405,o),
(449,399,o),
(423,374,cs),
(373,326,o),
(330,159,o),
(299,88,cs),
(272,27,o),
(254,-7,o),
(215,-7,cs),
(179,-7,o),
(155,24,o),
(139,75,cs),
(66,305,ls),
(55,341,o),
(44,369,o),
(26,385,cs),
(3,405,o),
(-26,417,o),
(-26,435,cs),
(-26,453,o),
(1,471,o),
(44,471,cs)
);
},
{
closed = 1;
nodes = (
(482,193,ls),
(492,162,o),
(499,139,o),
(515,139,cs),
(531,139,o),
(540,152,o),
(552,188,cs),
(587,290,ls),
(598,321,o),
(606,342,o),
(606,364,cs),
(606,405,o),
(545,405,o),
(545,436,cs),
(545,456,o),
(564,466,o),
(591,468,cs),
(618,470,o),
(695,471,o),
(720,468,cs),
(744,465,o),
(760,455,o),
(760,435,cs),
(760,400,o),
(729,399,o),
(703,374,cs),
(653,326,o),
(611,159,o),
(580,88,cs),
(553,27,o),
(535,-7,o),
(496,-7,cs),
(460,-7,o),
(440,25,o),
(422,75,cs),
(402,129,o),
(384,183,o),
(373,221,cs),
(366,247,o),
(368,252,o),
(358,256,cs),
(344,261,o),
(330,244,o),
(326,256,c),
(421,385,l)
);
}
);
width = 766;
},
{
associatedMasterId = m01;
layerId = "AEC291BD-BB7B-4911-A8AF-48278EFF7542";
name = "29 mai 25 à 12:33";
shapes = (
{
closed = 1;
nodes = (
(686,318,o),
(698,363,o),
(721,385,cs),
(744,407,o),
(773,419,o),
(773,439,cs),
(773,459,o),
(759,467,o),
(735,467,cs),
(611,467,ls),
(584,467,o),
(567,458,o),
(567,440,cs),
(567,417,o),
(626,405,o),
(626,364,cs),
(626,342,o),
(617,321,o),
(607,290,cs),
(573,188,ls),
(561,152,o),
(552,139,o),
(536,139,cs),
(520,139,o),
(514,162,o),
(503,193,cs),
(471,287,ls),
(457,328,o),
(445,358,o),
(445,375,cs),
(445,410,o),
(476,405,o),
(476,435,cs),
(476,465,o),
(441,470,o),
(381,470,cs),
(343,470,o),
(298,465,o),
(298,436,cs),
(298,405,o),
(347,405,o),
(347,364,cs),
(347,342,o),
(338,321,o),
(328,290,cs),
(295,188,ls),
(283,152,o),
(274,139,o),
(258,139,cs),
(242,139,o),
(233,162,o),
(225,193,cs),
(174,390,ls),
(157,456,o),
(138,471,o),
(65,471,cs),
(22,471,o),
(-5,453,o),
(-5,435,cs),
(-5,417,o),
(24,405,o),
(47,385,cs),
(65,369,o),
(76,341,o),
(87,305,cs),
(160,75,ls),
(176,24,o),
(200,-7,o),
(236,-7,cs),
(275,-7,o),
(297,25,o),
(320,88,cs),
(358,194,ls),
(366,217,o),
(370,236,o),
(381,236,cs),
(390,236,o),
(395,216,o),
(402,196,cs),
(443,75,ls),
(460,25,o),
(481,-7,o),
(517,-7,cs),
(556,-7,o),
(578,25,o),
(601,88,cs),
(675,289,ls)
);
}
);
width = 783;
}
);
metricLeft = v;
metricRight = "=v-5";
unicode = 119;
},
{
glyphname = x;
lastChange = "2025-06-01 21:24:14 +0000";
layers = (
{
associatedMasterId = m01;
backgroundImage = {
angle = 2;
imagePath = "/Downloads/scan-nuisibles-regular.jpeg";
locked = 1;
pos = (-314,-344);
scale = (2.5587,2.7289);
};
layerId = "9F1E8436-C147-4C51-9F09-45F28683FE79";
name = "17 avr. 25 à 16:24";
shapes = (
{
closed = 1;
nodes = (
(10,76,o),
(206,226,o),
(206,256,cs),
(206,275,o),
(182,299,o),
(138,365,cs),
(106,413,o),
(75,388,o),
(75,429,cs),
(75,452,o),
(94,477,o),
(134,477,cs),
(168,477,o),
(195,462,o),
(220,425,cs),
(245,388,o),
(279,306,o),
(304,306,cs),
(321,306,o),
(340,333,o),
(369,366,cs),
(409,411,o),
(364,418,o),
(364,445,cs),
(364,470,o),
(395,465,o),
(438,465,cs),
(481,465,o),
(513,470,o),
(513,444,cs),
(513,419,o),
(490,403,o),
(440,349,cs),
(390,295,o),
(354,259,o),
(354,231,cs),
(354,205,o),
(389,157,o),
(433,107,cs),
(462,74,o),
(488,78,o),
(507,78,cs),
(526,78,o),
(534,70,o),
(534,50,cs),
(534,19,o),
(515,-8,o),
(465,-8,cs),
(413,-8,o),
(373,8,o),
(337,60,cs),
(301,112,o),
(271,173,o),
(254,173,cs),
(238,173,o),
(212,142,o),
(172,98,cs),
(134,56,o),
(183,49,o),
(183,22,cs),
(183,-4,o),
(151,0,o),
(102,0,cs),
(53,0,o),
(10,-7,o),
(10,21,cs)
);
}
);
width = 544;
},
{
associatedMasterId = m01;
backgroundImage = {
angle = 2;
imagePath = "/Downloads/scan-nuisibles-regular.jpeg";
locked = 1;
pos = (-324,-344);
scale = (2.5587,2.7289);
};
layerId = "7462969A-BF46-4D1C-A6BC-67C4BEFE2441";
name = "17 avr. 25 à 16:36";
shapes = (
{
closed = 1;
nodes = (
(75,408,o),
(73,401,o),
(62,401,cs),
(53,401,o),
(48,408,o),
(48,418,cs),
(48,444,o),
(78,476,o),
(124,476,cs),
(158,476,o),
(185,462,o),
(210,425,cs),
(235,388,o),
(269,306,o),
(294,306,cs),
(311,306,o),
(330,333,o),
(359,366,cs),
(399,411,o),
(354,418,o),
(354,445,cs),
(354,470,o),
(385,465,o),
(428,465,cs),
(471,465,o),
(503,470,o),
(503,444,cs),
(503,419,o),
(480,403,o),
(430,349,cs),
(380,295,o),
(344,259,o),
(344,233,cs),
(344,198,o),
(429,65,o),
(478,65,cs),
(495,65,o),
(501,71,o),
(513,71,cs),
(522,71,o),
(527,64,o),
(527,54,cs),
(527,28,o),
(486,-8,o),
(440,-8,cs),
(402,-8,o),
(363,8,o),
(327,60,cs),
(291,112,o),
(268,165,o),
(246,165,cs),
(228,165,o),
(210,140,o),
(172,98,cs),
(134,55,o),
(183,49,o),
(183,22,cs),
(183,-4,o),
(151,0,o),
(84,0,cs),
(37,0,o),
(10,-6,o),
(10,26,cs),
(10,50,o),
(31,57,o),
(60,86,cs),
(139,166,o),
(204,232,o),
(204,250,cs),
(204,273,o),
(133,408,o),
(91,408,cs)
);
}
);
width = 537;
},
{
associatedMasterId = m01;
backgroundImage = {
angle = 2;
imagePath = "/Downloads/scan-nuisibles-regular.jpeg";
locked = 1;
pos = (-314,-344);
scale = (2.5587,2.7289);
};
layerId = "9271BEB6-9400-4EA4-A8BC-B6B43AB1CACF";
name = "17 avr. 25 à 16:50";
shapes = (
{
closed = 1;
nodes = (
(10,76,o),
(206,219,o),
(206,256,cs),
(206,275,o),
(183,299,o),
(138,365,cs),
(106,413,o),
(75,388,o),
(75,434,cs),
(75,454,o),
(91,477,o),
(131,477,cs),
(172,477,o),
(200,457,o),
(238,397,cs),
(255,370,o),
(279,320,o),
(304,320,cs),
(325,320,o),
(345,347,o),
(365,370,cs),
(397,408,o),
(361,413,o),
(361,444,cs),
(361,472,o),
(395,465,o),
(438,465,cs),
(481,465,o),
(513,470,o),
(513,444,cs),
(513,419,o),
(490,403,o),
(440,349,cs),
(390,295,o),
(364,259,o),
(364,231,cs),
(364,205,o),
(401,159,o),
(443,107,cs),
(468,76,o),
(496,88,o),
(517,88,cs),
(536,88,o),
(544,70,o),
(544,50,cs),
(544,19,o),
(525,-8,o),
(465,-8,cs),
(413,-8,o),
(373,8,o),
(337,60,cs),
(301,112,o),
(271,172,o),
(251,172,cs),
(238,172,o),
(210,144,o),
(172,97,cs),
(145,64,o),
(183,49,o),
(183,22,cs),
(183,-4,o),
(151,0,o),
(102,0,cs),
(53,0,o),
(10,-7,o),
(10,21,cs)
);
}
);
width = 564;
},
{
anchors = (
{
name = bottom;
pos = (266,0);
},
{
name = top;
pos = (266,465);
}
);
backgroundImage = {
angle = 2;
imagePath = "/Downloads/scan-nuisibles-regular.jpeg";
locked = 1;
pos = (-319,-344);
scale = (2.5587,2.7289);
};
layerId = m01;
name = Regular;
shapes = (
{
closed = 1;
nodes = (
(459,-7,o),
(512,30,o),
(512,55,cs),
(512,66,o),
(503,74,o),
(493,76,cs),
(481,79,o),
(471,77,o),
(457,82,cs),
(438,89,o),
(426,101,o),
(407,128,cs),
(367,185,ls),
(353,205,o),
(343,225,o),
(343,236,cs),
(343,249,o),
(348,257,o),
(361,271,cs),
(430,349,ls),
(479,404,o),
(503,424,o),
(503,446,cs),
(503,464,o),
(485,466,o),
(458,466,cs),
(398,466,ls),
(385,466,o),
(354,467,o),
(354,445,cs),
(354,426,o),
(376,417,o),
(376,398,cs),
(376,390,o),
(371,380,o),
(359,366,cs),
(330,333,o),
(311,304,o),
(294,304,cs),
(283,304,o),
(278,310,o),
(267,328,cs),
(218,411,ls),
(189,461,o),
(161,476,o),
(131,476,cs),
(85,476,o),
(33,443,o),
(33,418,cs),
(33,407,o),
(42,399,o),
(52,397,cs),
(64,394,o),
(74,396,o),
(88,391,cs),
(101,386,o),
(112,377,o),
(129,354,cs),
(168,302,ls),
(184,280,o),
(197,261,o),
(197,246,cs),
(197,235,o),
(194,227,o),
(181,213,cs),
(156,186,o),
(113,140,o),
(60,86,cs),
(31,57,o),
(10,38,o),
(10,21,cs),
(10,-3,o),
(32,0,o),
(49,0,cs),
(126,0,ls),
(164,0,o),
(183,2,o),
(183,22,cs),
(183,49,o),
(134,55,o),
(172,98,cs),
(188,116,o),
(199,129,o),
(209,140,cs),
(222,154,o),
(232,161,o),
(244,161,cs),
(257,161,o),
(269,147,o),
(286,122,cs),
(325,63,ls),
(360,11,o),
(385,-7,o),
(423,-7,cs)
);
}
);
width = 532;
},
{
associatedMasterId = m01;
background = {
shapes = (
{
closed = 1;
nodes = (
(70,408,o),
(68,401,o),
(57,401,cs),
(48,401,o),
(43,408,o),
(43,418,cs),
(43,444,o),
(73,476,o),
(119,476,cs),
(153,476,o),
(180,462,o),
(205,425,cs),
(230,388,o),
(264,306,o),
(289,306,cs),
(306,306,o),
(325,333,o),
(354,366,cs),
(394,411,o),
(349,418,o),
(349,445,cs),
(349,470,o),
(380,465,o),
(423,465,cs),
(466,465,o),
(498,470,o),
(498,444,cs),
(498,419,o),
(475,403,o),
(425,349,cs),
(375,295,o),
(339,259,o),
(339,233,cs),
(339,198,o),
(424,65,o),
(473,65,cs),
(490,65,o),
(496,71,o),
(508,71,cs),
(517,71,o),
(522,64,o),
(522,54,cs),
(522,28,o),
(481,-8,o),
(435,-8,cs),
(397,-8,o),
(358,8,o),
(322,60,cs),
(286,112,o),
(263,165,o),
(241,165,cs),
(223,165,o),
(205,140,o),
(167,98,cs),
(129,55,o),
(178,49,o),
(178,22,cs),
(178,-4,o),
(146,0,o),
(79,0,cs),
(32,0,o),
(5,-6,o),
(5,26,cs),
(5,50,o),
(26,57,o),
(55,86,cs),
(134,166,o),
(199,232,o),
(199,250,cs),
(199,273,o),
(128,408,o),
(86,408,cs)
);
}
);
};
backgroundImage = {
angle = 2;
imagePath = "/Downloads/scan-nuisibles-regular.jpeg";
locked = 1;
pos = (-329,-344);
scale = (2.5587,2.7289);
};
layerId = "3F9141B7-6642-48CA-ADAA-606EA8F7188F";
name = "28 mai 25 à 15:55";
shapes = (
{
closed = 1;
nodes = (
(65,406,o),
(63,399,o),
(52,399,cs),
(43,399,o),
(38,406,o),
(38,416,cs),
(38,442,o),
(70,476,o),
(116,476,cs),
(156,476,o),
(183,461,o),
(217,409,cs),
(246,365,o),
(268,312,o),
(293,312,cs),
(310,312,o),
(325,333,o),
(354,366,cs),
(394,411,o),
(349,418,o),
(349,445,cs),
(349,470,o),
(380,465,o),
(423,465,cs),
(466,465,o),
(498,470,o),
(498,444,cs),
(498,419,o),
(475,403,o),
(425,349,cs),
(375,295,o),
(340,260,o),
(340,234,cs),
(340,198,o),
(428,66,o),
(473,66,cs),
(490,66,o),
(496,72,o),
(508,72,cs),
(517,72,o),
(522,64,o),
(522,54,cs),
(522,28,o),
(482,-8,o),
(436,-8,cs),
(389,-8,o),
(357,14,o),
(311,79,cs),
(283,119,o),
(262,164,o),
(242,164,cs),
(221,164,o),
(205,140,o),
(167,98,cs),
(129,55,o),
(178,49,o),
(178,22,cs),
(178,-4,o),
(146,0,o),
(79,0,cs),
(32,0,o),
(5,-6,o),
(5,26,cs),
(5,50,o),
(26,57,o),
(55,86,cs),
(134,166,o),
(198,229,o),
(198,250,cs),
(198,261,o),
(178,293,o),
(155,327,cs),
(130,365,o),
(103,406,o),
(81,406,cs)
);
}
);
width = 542;
},
{
associatedMasterId = m01;
background = {
shapes = (
{
closed = 1;
nodes = (
(70,408,o),
(68,401,o),
(57,401,cs),
(48,401,o),
(43,408,o),
(43,418,cs),
(43,444,o),
(73,476,o),
(119,476,cs),
(153,476,o),
(180,462,o),
(205,425,cs),
(230,388,o),
(264,306,o),
(289,306,cs),
(306,306,o),
(325,333,o),
(354,366,cs),
(394,411,o),
(349,418,o),
(349,445,cs),
(349,470,o),
(380,465,o),
(423,465,cs),
(466,465,o),
(498,470,o),
(498,444,cs),
(498,419,o),
(475,403,o),
(425,349,cs),
(375,295,o),
(339,259,o),
(339,233,cs),
(339,198,o),
(424,65,o),
(473,65,cs),
(490,65,o),
(496,71,o),
(508,71,cs),
(517,71,o),
(522,64,o),
(522,54,cs),
(522,28,o),
(481,-8,o),
(435,-8,cs),
(397,-8,o),
(358,8,o),
(322,60,cs),
(286,112,o),
(263,165,o),
(241,165,cs),
(223,165,o),
(205,140,o),
(167,98,cs),
(129,55,o),
(178,49,o),
(178,22,cs),
(178,-4,o),
(146,0,o),
(79,0,cs),
(32,0,o),
(5,-6,o),
(5,26,cs),
(5,50,o),
(26,57,o),
(55,86,cs),
(134,166,o),
(199,232,o),
(199,250,cs),
(199,273,o),
(128,408,o),
(86,408,cs)
);
}
);
};
backgroundImage = {
angle = 2;
imagePath = "/Downloads/scan-nuisibles-regular.jpeg";
locked = 1;
pos = (-329,-344);
scale = (2.5587,2.7289);
};
layerId = "F2BD7E20-A13E-44A9-B374-6B7BF9AC7EF3";
name = "29 mai 25 à 11:49";
shapes = (
{
closed = 1;
nodes = (
(484,-8,o),
(522,28,o),
(522,54,cs),
(522,64,o),
(517,72,o),
(508,72,cs),
(496,72,o),
(490,66,o),
(473,66,cs),
(428,66,o),
(340,198,o),
(340,234,cs),
(340,260,o),
(375,295,o),
(425,349,cs),
(475,403,o),
(498,419,o),
(498,444,cs),
(498,470,o),
(466,465,o),
(423,465,cs),
(380,465,o),
(349,470,o),
(349,445,cs),
(349,418,o),
(394,411,o),
(354,366,cs),
(325,333,o),
(310,312,o),
(293,312,cs),
(268,312,o),
(245,367,o),
(218,411,cs),
(185,464,o),
(156,476,o),
(116,476,cs),
(70,476,o),
(32,435,o),
(32,410,cs),
(32,402,o),
(37,395,o),
(44,395,cs),
(54,395,o),
(59,404,o),
(75,404,cs),
(97,404,o),
(126,360,o),
(151,322,cs),
(174,288,o),
(194,256,o),
(194,245,cs),
(194,224,o),
(134,166,o),
(55,86,cs),
(26,57,o),
(5,50,o),
(5,26,cs),
(5,-6,o),
(32,0,o),
(79,0,cs),
(146,0,o),
(178,-4,o),
(178,22,cs),
(178,49,o),
(129,55,o),
(167,98,cs),
(205,140,o),
(218,161,o),
(239,161,cs),
(259,161,o),
(281,116,o),
(308,75,cs),
(349,12,o),
(385,-8,o),
(436,-8,cs)
);
}
);
width = 542;
},
{
associatedMasterId = m01;
backgroundImage = {
angle = 2;
imagePath = "/Downloads/scan-nuisibles-regular.jpeg";
locked = 1;
pos = (-324,-344);
scale = (2.5587,2.7289);
};
layerId = "9D77B6D5-9CAE-4F66-873D-6A17949AE247";
name = "29 mai 25 à 12:37";
shapes = (
{
closed = 1;
nodes = (
(489,-8,o),
(527,28,o),
(527,54,cs),
(527,64,o),
(522,72,o),
(513,72,cs),
(501,72,o),
(495,66,o),
(478,66,cs),
(433,66,o),
(345,198,o),
(345,234,cs),
(345,260,o),
(380,295,o),
(430,349,cs),
(480,403,o),
(503,424,o),
(503,446,cs),
(503,464,o),
(485,466,o),
(458,466,cs),
(398,466,ls),
(385,466,o),
(354,467,o),
(354,445,cs),
(354,426,o),
(376,417,o),
(376,398,cs),
(376,390,o),
(371,380,o),
(359,366,cs),
(330,333,o),
(315,312,o),
(298,312,cs),
(273,312,o),
(250,367,o),
(223,411,cs),
(190,464,o),
(161,476,o),
(121,476,cs),
(75,476,o),
(37,435,o),
(37,410,cs),
(37,402,o),
(42,395,o),
(49,395,cs),
(59,395,o),
(64,404,o),
(80,404,cs),
(102,404,o),
(132,360,o),
(156,322,cs),
(176,291,o),
(199,261,o),
(199,244,cs),
(199,235,o),
(194,227,o),
(181,213,cs),
(156,186,o),
(113,140,o),
(60,86,cs),
(31,57,o),
(10,38,o),
(10,21,cs),
(10,-3,o),
(32,0,o),
(49,0,cs),
(126,0,ls),
(164,0,o),
(183,2,o),
(183,22,cs),
(183,49,o),
(134,55,o),
(172,98,cs),
(210,140,o),
(223,161,o),
(244,161,cs),
(264,161,o),
(286,116,o),
(313,75,cs),
(354,12,o),
(390,-8,o),
(441,-8,cs)
);
}
);
width = 542;
}
);
unicode = 120;
},
{
glyphname = y;
lastChange = "2025-06-01 21:24:14 +0000";
layers = (
{
associatedMasterId = m01;
layerId = "66982EEB-2FD5-4C50-A309-09EFE2C60394";
name = "28 mai 25 à 17:47";
shapes = (
{
closed = 1;
nodes = (
(297,-246,o),
(392,237,o),
(490,359,cs),
(522,399,o),
(561,400,o),
(561,435,cs),
(561,455,o),
(545,465,o),
(521,468,cs),
(496,471,o),
(419,470,o),
(392,468,cs),
(365,466,o),
(346,456,o),
(346,436,cs),
(346,405,o),
(402,407,o),
(402,366,cs),
(402,344,o),
(392,320,o),
(365,260,cs),
(336,195,o),
(319,169,o),
(303,169,cs),
(287,169,o),
(273,192,o),
(262,223,cs),
(203,390,ls),
(180,455,o),
(157,471,o),
(84,471,cs),
(41,471,o),
(19,452,o),
(19,434,cs),
(19,416,o),
(48,405,o),
(71,385,cs),
(94,365,o),
(106,341,o),
(121,305,cs),
(180,163,ls),
(197,121,o),
(231,44,o),
(231,20,cs),
(231,-40,o),
(172,-154,o),
(126,-154,cs),
(91,-154,o),
(88,-129,o),
(47,-129,cs),
(14,-129,o),
(-10,-153,o),
(-10,-185,cs),
(-10,-224,o),
(24,-246,o),
(82,-246,cs)
);
}
);
width = 571;
},
{
anchors = (
{
name = bottom;
pos = (271,0);
},
{
name = top;
pos = (271,465);
}
);
layerId = m01;
name = Regular;
shapes = (
{
closed = 1;
nodes = (
(192,-246,o),
(251,-107,o),
(326,58,cs),
(365,143,o),
(399,214,o),
(426,274,cs),
(445,317,o),
(462,363,o),
(485,385,cs),
(508,407,o),
(537,419,o),
(537,439,cs),
(537,459,o),
(523,467,o),
(499,467,cs),
(375,467,ls),
(348,467,o),
(331,458,o),
(331,440,cs),
(331,417,o),
(390,405,o),
(390,364,cs),
(390,339,o),
(361,283,o),
(353,266,cs),
(335,228,o),
(323,203,o),
(312,185,cs),
(304,173,o),
(295,169,o),
(286,169,cs),
(271,169,o),
(263,180,o),
(253,207,cs),
(187,393,ls),
(166,458,o),
(143,474,o),
(73,474,cs),
(30,474,o),
(6,455,o),
(6,437,cs),
(6,419,o),
(32,410,o),
(55,390,cs),
(78,370,o),
(90,343,o),
(105,308,cs),
(208,61,ls),
(215,43,o),
(219,31,o),
(219,19,cs),
(219,7,o),
(217,-4,o),
(209,-22,cs),
(191,-63,o),
(149,-154,o),
(105,-154,cs),
(66,-154,o),
(62,-129,o),
(24,-129,cs),
(-1,-129,o),
(-25,-147,o),
(-25,-179,cs),
(-25,-218,o),
(19,-246,o),
(67,-246,cs)
);
}
);
width = 542;
}
);
metricRight = v;
unicode = 121;
},
{
glyphname = z;
lastChange = "2025-06-01 21:24:14 +0000";
layers = (
{
associatedMasterId = m01;
backgroundImage = {
angle = 2;
imagePath = "/Downloads/scan-nuisibles-regular.jpeg";
locked = 1;
pos = (-909,-352);
scale = (2.565,2.7356);
};
layerId = "19D378D7-5739-4F3B-950D-ADD8CDE409FC";
name = "17 avr. 25 à 15:27";
shapes = (
{
closed = 1;
nodes = (
(40,102,o),
(92,123,o),
(159,192,cs),
(241,275,o),
(317,345,o),
(317,376,cs),
(317,397,o),
(298,395,o),
(263,394,cs),
(220,393,o),
(193,382,o),
(172,366,cs),
(151,351,o),
(125,318,o),
(99,318,cs),
(72,318,o),
(65,345,o),
(75,364,cs),
(85,383,o),
(90,407,o),
(90,432,cs),
(90,468,o),
(118,472,o),
(140,472,cs),
(157,472,o),
(216,465,o),
(263,465,cs),
(310,465,o),
(349,474,o),
(376,474,cs),
(423,474,o),
(440,448,o),
(440,415,cs),
(440,322,o),
(229,200,o),
(229,129,cs),
(229,93,o),
(269,76,o),
(329,76,cs),
(430,76,o),
(418,134,o),
(447,134,cs),
(474,134,o),
(469,91,o),
(469,65,cs),
(469,21,o),
(450,-6,o),
(386,-6,cs),
(256,-6,o),
(233,31,o),
(182,31,cs),
(136,31,o),
(130,-6,o),
(89,-6,cs),
(61,-6,o),
(40,9,o),
(40,47,cs)
);
}
);
width = 500;
},
{
associatedMasterId = m01;
backgroundImage = {
angle = 2;
imagePath = "/Downloads/scan-nuisibles-regular.jpeg";
locked = 1;
pos = (-909,-352);
scale = (2.565,2.7356);
};
layerId = "E5A96340-1C6F-413F-98CE-679E59DFB129";
name = "17 avr. 25 à 15:33";
shapes = (
{
closed = 1;
nodes = (
(40,106,o),
(91,128,o),
(159,196,cs),
(242,279,o),
(317,342,o),
(317,378,cs),
(317,396,o),
(298,395,o),
(263,394,cs),
(220,393,o),
(193,382,o),
(172,366,cs),
(151,351,o),
(129,318,o),
(102,318,cs),
(73,318,o),
(67,342,o),
(76,367,cs),
(82,384,o),
(89,407,o),
(89,432,cs),
(89,468,o),
(118,472,o),
(140,472,cs),
(157,472,o),
(216,465,o),
(263,465,cs),
(310,465,o),
(349,474,o),
(376,474,cs),
(423,474,o),
(440,450,o),
(440,417,cs),
(440,313,o),
(229,190,o),
(229,129,cs),
(229,93,o),
(269,81,o),
(329,81,cs),
(420,81,o),
(418,134,o),
(447,134,cs),
(474,134,o),
(469,91,o),
(469,65,cs),
(469,21,o),
(450,-6,o),
(386,-6,cs),
(256,-6,o),
(233,26,o),
(182,26,cs),
(136,26,o),
(130,-6,o),
(89,-6,cs),
(61,-6,o),
(40,9,o),
(40,47,cs)
);
}
);
width = 500;
},
{
associatedMasterId = m01;
backgroundImage = {
angle = 2;
imagePath = "/Downloads/scan-nuisibles-regular.jpeg";
pos = (-909,-352);
scale = (2.565,2.7356);
};
layerId = "307046AD-9BF2-47A1-A7BD-1E8564D396A5";
name = "28 mai 25 à 16:06";
shapes = (
{
closed = 1;
nodes = (
(40,117,o),
(90,129,o),
(159,196,cs),
(243,278,o),
(322,343,o),
(322,379,cs),
(322,397,o),
(302,399,o),
(267,398,cs),
(224,397,o),
(192,385,o),
(171,369,cs),
(150,354,o),
(129,318,o),
(102,318,cs),
(73,318,o),
(66,343,o),
(76,367,cs),
(85,388,o),
(89,407,o),
(89,432,cs),
(89,468,o),
(118,472,o),
(140,472,cs),
(157,472,o),
(216,465,o),
(263,465,cs),
(310,465,o),
(349,474,o),
(376,474,cs),
(423,474,o),
(440,450,o),
(440,417,cs),
(440,313,o),
(209,177,o),
(209,113,cs),
(209,81,o),
(239,72,o),
(296,72,cs),
(407,72,o),
(418,134,o),
(447,134,cs),
(474,134,o),
(469,91,o),
(469,65,cs),
(469,21,o),
(450,-6,o),
(386,-6,cs),
(256,-6,o),
(235,20,o),
(184,20,cs),
(138,20,o),
(130,-6,o),
(89,-6,cs),
(61,-6,o),
(40,29,o),
(40,67,cs)
);
}
);
width = 509;
},
{
anchors = (
{
name = bottom;
pos = (246,0);
},
{
name = center;
pos = (246,233);
},
{
name = top;
pos = (246,465);
}
);
backgroundImage = {
angle = 2;
imagePath = "/Downloads/scan-nuisibles-regular.jpeg";
pos = (-912,-352);
scale = (2.565,2.7356);
};
layerId = m01;
name = Regular;
shapes = (
{
closed = 1;
nodes = (
(437,-6,o),
(456,21,o),
(456,65,cs),
(456,91,o),
(461,144,o),
(430,144,cs),
(405,144,o),
(391,81,o),
(324,81,cs),
(264,81,o),
(221,91,o),
(221,127,cs),
(221,188,o),
(432,313,o),
(432,417,cs),
(432,450,o),
(415,474,o),
(368,474,cs),
(341,474,o),
(302,465,o),
(255,465,cs),
(208,465,o),
(149,472,o),
(132,472,cs),
(110,472,o),
(81,468,o),
(81,432,cs),
(81,407,o),
(77,388,o),
(68,367,cs),
(58,343,o),
(65,318,o),
(94,318,cs),
(121,318,o),
(142,354,o),
(163,369,cs),
(184,385,o),
(216,397,o),
(259,398,cs),
(294,399,o),
(314,397,o),
(314,379,cs),
(314,343,o),
(238,278,o),
(154,196,cs),
(85,129,o),
(35,110,o),
(35,55,cs),
(35,17,o),
(62,-3,o),
(89,-3,cs),
(135,-3,o),
(140,28,o),
(186,28,cs),
(237,28,o),
(253,-6,o),
(373,-6,cs)
);
}
);
width = 491;
},
{
associatedMasterId = m01;
backgroundImage = {
angle = 2;
imagePath = "/Downloads/scan-nuisibles-regular.jpeg";
pos = (-909,-352);
scale = (2.565,2.7356);
};
layerId = "FA152119-F0F5-4DBE-9CDB-55BBF3DCBA84";
name = "28 mai 25 à 16:06";
shapes = (
{
closed = 1;
nodes = (
(40,106,o),
(90,129,o),
(159,196,cs),
(243,278,o),
(322,343,o),
(322,379,cs),
(322,397,o),
(302,399,o),
(267,398,cs),
(224,397,o),
(192,385,o),
(171,369,cs),
(150,354,o),
(129,318,o),
(102,318,cs),
(73,318,o),
(66,343,o),
(76,367,cs),
(85,388,o),
(89,407,o),
(89,432,cs),
(89,468,o),
(118,472,o),
(140,472,cs),
(157,472,o),
(216,465,o),
(263,465,cs),
(310,465,o),
(349,474,o),
(376,474,cs),
(423,474,o),
(440,450,o),
(440,417,cs),
(440,313,o),
(226,188,o),
(226,127,cs),
(226,91,o),
(269,81,o),
(329,81,cs),
(425,81,o),
(418,134,o),
(447,134,cs),
(474,134,o),
(469,91,o),
(469,65,cs),
(469,21,o),
(450,-6,o),
(386,-6,cs),
(256,-6,o),
(235,28,o),
(184,28,cs),
(138,28,o),
(130,-6,o),
(89,-6,cs),
(61,-6,o),
(40,9,o),
(40,47,cs)
);
}
);
width = 509;
}
);
unicode = 122;
},
{
glyphname = lslash.001;
lastChange = "2025-06-01 21:24:14 +0000";
layers = (
{
anchors = (
{
name = bottom;
pos = (95,-10);
},
{
name = center;
pos = (148,250);
},
{
name = top;
pos = (220,720);
},
{
name = topright;
pos = (289,720);
}
);
layerId = m01;
shapes = (
{
closed = 1;
nodes = (
(114,-14,o),
(136,16,o),
(168,46,cs),
(194,71,o),
(230,94,o),
(230,124,cs),
(230,137,o),
(226,147,o),
(212,147,cs),
(198,147,o),
(173,126,o),
(156,126,cs),
(141,126,o),
(136,142,o),
(136,166,cs),
(136,213,o),
(147,266,o),
(158,310,cs),
(162,326,o),
(167,331,o),
(179,334,cs),
(196,339,o),
(235,342,o),
(267,353,cs),
(293,362,o),
(313,385,o),
(306,404,cs),
(301,422,o),
(282,429,o),
(260,422,cs),
(246,418,o),
(229,410,o),
(211,402,cs),
(194,395,o),
(184,404,o),
(189,422,cs),
(224,530,o),
(262,633,o),
(262,695,cs),
(262,723,o),
(252,732,o),
(239,732,cs),
(218,732,o),
(197,702,o),
(165,684,cs),
(143,671,o),
(103,665,o),
(103,636,cs),
(103,607,o),
(145,598,o),
(145,514,cs),
(145,493,o),
(137,453,o),
(125,404,cs),
(119,380,o),
(111,369,o),
(99,366,cs),
(78,362,o),
(57,358,o),
(41,353,cs),
(12,345,o),
(-9,322,o),
(1,297,cs),
(8,279,o),
(29,277,o),
(53,284,cs),
(60,286,o),
(67,289,o),
(75,292,cs),
(87,297,o),
(93,288,o),
(88,270,cs),
(62,175,o),
(37,82,o),
(37,50,cs),
(37,8,o),
(65,-14,o),
(86,-14,cs)
);
}
);
width = 285;
},
{
anchors = (
{
name = bottom;
pos = (100,-10);
},
{
name = center;
pos = (153,250);
},
{
name = top;
pos = (225,720);
},
{
name = topright;
pos = (294,720);
}
);
associatedMasterId = m01;
layerId = "B66FB7FD-B16C-4409-9052-C30ABE67F228";
name = "12 mars 25 à 11:25";
shapes = (
{
closed = 1;
nodes = (
(42,117,o),
(42,50,cs),
(42,8,o),
(70,-14,o),
(91,-14,cs),
(119,-14,o),
(141,16,o),
(173,46,cs),
(199,71,o),
(235,94,o),
(235,124,cs),
(235,137,o),
(231,147,o),
(217,147,cs),
(203,147,o),
(178,126,o),
(161,126,cs),
(146,126,o),
(141,142,o),
(141,166,cs),
(141,334,o),
(267,582,o),
(267,695,cs),
(267,723,o),
(257,732,o),
(244,732,cs),
(223,732,o),
(202,702,o),
(170,684,cs),
(148,671,o),
(108,665,o),
(108,636,cs),
(108,607,o),
(150,598,o),
(150,514,cs),
(150,438,o)
);
},
{
closed = 1;
nodes = (
(-4,322,o),
(6,297,cs),
(13,279,o),
(34,277,o),
(58,284,cs),
(81,290,o),
(126,316,o),
(172,330,cs),
(208,341,o),
(248,346,o),
(272,353,cs),
(298,362,o),
(318,385,o),
(311,404,cs),
(306,422,o),
(287,429,o),
(265,422,cs),
(237,414,o),
(202,393,o),
(159,380,cs),
(123,368,o),
(76,362,o),
(46,353,cs),
(17,345,o)
);
}
);
width = 295;
}
);
},
{
glyphname = c_h.liga;
lastChange = "2025-06-01 21:24:14 +0000";
layers = (
{
layerId = m01;
shapes = (
{
closed = 1;
nodes = (
(320,-14,o),
(385,40,o),
(385,66,cs),
(385,75,o),
(380,83,o),
(370,83,cs),
(352,83,o),
(329,64,o),
(288,64,cs),
(211,64,o),
(144,146,o),
(144,259,cs),
(144,349,o),
(176,410,o),
(231,410,cs),
(287,410,o),
(306,326,o),
(344,326,cs),
(369,326,o),
(402,364,o),
(402,401,cs),
(402,465,o),
(326,504,o),
(326,574,cs),
(326,620,o),
(358,671,o),
(417,671,cs),
(483,671,o),
(507,596,o),
(507,485,cs),
(507,173,ls),
(507,62,o),
(451,64,o),
(451,25,cs),
(451,-2,o),
(477,0,o),
(506,0,cs),
(584,0,ls),
(632,0,o),
(649,4,o),
(649,26,cs),
(649,64,o),
(593,62,o),
(593,174,cs),
(593,222,ls),
(593,332,o),
(643,389,o),
(703,389,cs),
(761,389,o),
(782,332,o),
(782,241,cs),
(782,173,ls),
(782,62,o),
(726,64,o),
(726,25,cs),
(726,-2,o),
(752,0,o),
(781,0,cs),
(859,0,ls),
(907,0,o),
(924,4,o),
(924,26,cs),
(924,64,o),
(868,62,o),
(868,174,cs),
(868,331,ls),
(868,422,o),
(839,481,o),
(761,481,cs),
(682,481,o),
(635,412,o),
(609,412,cs),
(597,412,o),
(593,422,o),
(593,444,cs),
(593,571,ls),
(593,663,o),
(591,735,o),
(477,735,cs),
(352,735,o),
(222,646,o),
(222,561,cs),
(222,521,o),
(247,501,o),
(247,489,cs),
(247,481,o),
(244,477,o),
(228,473,cs),
(114,445,o),
(35,349,o),
(35,232,cs),
(35,89,o),
(127,-14,o),
(251,-14,cs)
);
}
);
width = 949;
},
{
associatedMasterId = m01;
layerId = "0774E479-C7AD-4E41-B0D9-B689497D6B2D";
name = "29 mai 25 à 15:16";
shapes = (
{
closed = 1;
nodes = (
(357,735,o),
(237,646,o),
(237,561,cs),
(237,521,o),
(263,505,o),
(263,493,cs),
(263,485,o),
(259,478,o),
(233,473,cs),
(121,448,o),
(40,349,o),
(40,232,cs),
(40,89,o),
(132,-14,o),
(256,-14,cs),
(325,-14,o),
(390,40,o),
(390,66,cs),
(390,75,o),
(385,83,o),
(375,83,cs),
(357,83,o),
(334,64,o),
(293,64,cs),
(216,64,o),
(149,146,o),
(149,259,cs),
(149,349,o),
(181,410,o),
(236,410,cs),
(292,410,o),
(311,326,o),
(349,326,cs),
(374,326,o),
(407,364,o),
(407,401,cs),
(407,465,o),
(331,504,o),
(331,574,cs),
(331,620,o),
(363,671,o),
(422,671,cs),
(477,671,o),
(512,632,o),
(512,525,cs),
(512,173,ls),
(512,62,o),
(456,64,o),
(456,25,cs),
(456,-2,o),
(482,0,o),
(511,0,cs),
(589,0,ls),
(637,0,o),
(654,4,o),
(654,26,cs),
(654,64,o),
(598,62,o),
(598,174,cs),
(598,222,ls),
(598,332,o),
(648,389,o),
(708,389,cs),
(766,389,o),
(787,332,o),
(787,241,cs),
(787,173,ls),
(787,62,o),
(731,64,o),
(731,25,cs),
(731,-2,o),
(757,0,o),
(786,0,cs),
(864,0,ls),
(912,0,o),
(929,4,o),
(929,26,cs),
(929,64,o),
(873,62,o),
(873,174,cs),
(873,331,ls),
(873,422,o),
(844,481,o),
(766,481,cs),
(687,481,o),
(640,412,o),
(614,412,cs),
(602,412,o),
(598,422,o),
(598,444,cs),
(598,591,ls),
(598,683,o),
(585,735,o),
(457,735,cs)
);
}
);
width = 959;
}
);
metricLeft = c;
metricRight = h;
},
{
glyphname = c_t.liga;
lastChange = "2025-06-01 21:24:14 +0000";
layers = (
{
layerId = m01;
shapes = (
{
closed = 1;
nodes = (
(325,-14,o),
(385,40,o),
(385,67,cs),
(385,75,o),
(380,83,o),
(369,83,cs),
(353,83,o),
(327,64,o),
(289,64,cs),
(211,64,o),
(144,143,o),
(144,262,cs),
(144,345,o),
(176,410,o),
(229,410,cs),
(289,410,o),
(305,326,o),
(343,326,cs),
(369,326,o),
(383,363,o),
(383,394,cs),
(383,456,o),
(326,504,o),
(326,565,cs),
(326,609,o),
(356,659,o),
(422,659,cs),
(508,659,o),
(522,572,o),
(522,539,cs),
(522,460,o),
(439,462,o),
(439,420,cs),
(439,380,o),
(512,409,o),
(512,299,cs),
(512,206,o),
(509,164,o),
(509,101,cs),
(509,45,o),
(548,-14,o),
(616,-14,cs),
(675,-14,o),
(759,30,o),
(759,70,cs),
(759,81,o),
(753,94,o),
(740,94,cs),
(722,94,o),
(700,72,o),
(664,72,cs),
(626,72,o),
(598,96,o),
(598,148,cs),
(598,318,ls),
(598,374,o),
(633,381,o),
(654,381,cs),
(667,381,o),
(686,378,o),
(699,378,cs),
(748,378,o),
(770,416,o),
(770,448,cs),
(770,469,o),
(760,475,o),
(749,475,cs),
(733,475,o),
(704,462,o),
(676,462,cs),
(651,462,o),
(613,472,o),
(613,536,cs),
(613,638,o),
(570,713,o),
(445,713,cs),
(317,713,o),
(227,634,o),
(227,563,cs),
(227,526,o),
(252,508,o),
(252,491,cs),
(252,486,o),
(250,478,o),
(228,473,cs),
(115,447,o),
(35,351,o),
(35,227,cs),
(35,94,o),
(128,-14,o),
(243,-14,cs)
);
}
);
width = 785;
}
);
metricLeft = c;
metricRight = t;
},
{
glyphname = f_f.liga;
lastChange = "2025-06-01 21:24:18 +0000";
layers = (
{
layerId = m01;
shapes = (
{
ref = "f-liga";
},
{
pos = (339,0);
ref = f;
}
);
width = 674;
},
{
associatedMasterId = m01;
layerId = "80070E97-43BB-44C4-9063-23A1747AFFA8";
name = "29 mai 25 à 13:35";
shapes = (
{
closed = 1;
nodes = (
(184,317,l),
(184,391,o),
(254,390,o),
(304,390,cs),
(376,390,o),
(412,396,o),
(430,368,c),
(428,495,l),
(390,451,o),
(314,455,o),
(273,455,cs),
(231,455,o),
(198,464,o),
(198,525,cs),
(198,587,o),
(237,644,o),
(272,644,cs),
(317,644,o),
(333,611,o),
(374,611,cs),
(415,611,o),
(435,657,o),
(435,690,cs),
(435,719,o),
(414,736,o),
(356,736,cs),
(198,736,o),
(139,596,o),
(104,534,cs),
(63,462,o),
(25,458,o),
(25,427,cs),
(25,380,o),
(98,412,o),
(98,294,c)
);
},
{
alignment = -1;
pos = (11,0);
ref = "empattement-bas";
},
{
alignment = -1;
pos = (11,0);
ref = fut;
},
{
alignment = -1;
pos = (349,0);
ref = f;
}
);
width = 694;
}
);
metricLeft = f;
metricRight = f;
},
{
glyphname = f_i.liga;
lastChange = "2025-06-01 21:30:11 +0000";
layers = (
{
background = {
shapes = (
{
ref = f;
}
);
};
layerId = m01;
shapes = (
{
closed = 1;
nodes = (
(477,0,o),
(479,0,o),
(502,0,cs),
(550,0,o),
(571,4,o),
(571,26,cs),
(571,64,o),
(506,62,o),
(506,174,cs),
(506,323,ls),
(506,398,o),
(506,481,o),
(452,481,cs),
(414,481,o),
(364,466,o),
(302,466,cs),
(214,466,o),
(194,473,o),
(194,502,cs),
(194,579,o),
(247,661,o),
(332,661,cs),
(405,661,o),
(384,576,o),
(451,576,cs),
(488,576,o),
(514,608,o),
(514,646,cs),
(514,703,o),
(462,736,o),
(389,736,cs),
(186,736,o),
(147,615,o),
(99,534,cs),
(58,465,o),
(20,458,o),
(20,427,cs),
(20,380,o),
(93,412,o),
(93,294,c),
(179,324,l),
(179,388,o),
(247,394,o),
(301,394,cs),
(373,394,o),
(420,384,o),
(420,290,cs),
(420,173,ls),
(420,62,o),
(364,61,o),
(364,24,cs),
(364,-2,o),
(392,0,o),
(419,0,cs)
);
},
{
alignment = -1;
pos = (11,0);
ref = "empattement-bas";
},
{
alignment = -1;
pos = (11,0);
ref = fut;
}
);
width = 601;
},
{
associatedMasterId = m01;
background = {
shapes = (
{
ref = f;
}
);
};
layerId = "3F207912-82C5-41C6-9EC0-5CF6F07960A1";
name = "29 mai 25 à 14:17";
shapes = (
{
closed = 1;
nodes = (
(184,324,l),
(184,375,o),
(212,382,o),
(228,382,cs),
(234,382,o),
(253,379,o),
(270,379,cs),
(317,379,o),
(350,419,o),
(350,453,cs),
(350,473,o),
(339,481,o),
(320,481,cs),
(301,481,o),
(269,466,o),
(238,466,cs),
(219,466,o),
(199,473,o),
(199,502,cs),
(199,579,o),
(282,661,o),
(347,661,cs),
(440,661,o),
(379,573,o),
(452,573,cs),
(503,573,o),
(559,618,o),
(559,666,cs),
(559,713,o),
(504,736,o),
(404,736,cs),
(226,736,o),
(152,615,o),
(104,534,cs),
(63,465,o),
(25,458,o),
(25,427,cs),
(25,380,o),
(98,412,o),
(98,294,c)
);
},
{
alignment = -1;
pos = (11,0);
ref = "empattement-bas";
},
{
alignment = -1;
pos = (11,0);
ref = fut;
},
{
alignment = -1;
pos = (314,0);
ref = idotless;
}
);
width = 626;
},
{
associatedMasterId = m01;
background = {
shapes = (
{
ref = f;
}
);
};
layerId = "84FA2A3F-1B9B-4E8B-8D3A-9C4A95844C1E";
name = "29 mai 25 à 14:18";
shapes = (
{
closed = 1;
nodes = (
(184,324,l),
(184,375,o),
(212,382,o),
(228,382,cs),
(234,382,o),
(253,379,o),
(270,379,cs),
(317,379,o),
(350,419,o),
(350,453,cs),
(350,473,o),
(339,481,o),
(320,481,cs),
(301,481,o),
(269,466,o),
(238,466,cs),
(219,466,o),
(199,473,o),
(199,502,cs),
(199,579,o),
(252,661,o),
(337,661,cs),
(420,661,o),
(399,576,o),
(466,576,cs),
(503,576,o),
(529,608,o),
(529,646,cs),
(529,703,o),
(477,736,o),
(394,736,cs),
(206,736,o),
(152,615,o),
(104,534,cs),
(63,465,o),
(25,458,o),
(25,427,cs),
(25,380,o),
(98,412,o),
(98,294,c)
);
},
{
alignment = -1;
pos = (11,0);
ref = "empattement-bas";
},
{
alignment = -1;
pos = (11,0);
ref = fut;
},
{
alignment = -1;
pos = (314,0);
ref = idotless;
}
);
width = 626;
}
);
metricLeft = f;
metricRight = i;
},
{
glyphname = f_l.liga;
lastChange = "2025-06-01 21:24:14 +0000";
layers = (
{
layerId = m01;
shapes = (
{
closed = 1;
nodes = (
(175,0,ls),
(223,0,o),
(244,4,o),
(244,26,cs),
(244,64,o),
(179,62,o),
(179,174,cs),
(179,324,ls),
(179,375,o),
(205,382,o),
(221,382,cs),
(233,382,o),
(248,379,o),
(265,379,cs),
(312,379,o),
(345,419,o),
(345,453,cs),
(345,473,o),
(334,481,o),
(315,481,cs),
(296,481,o),
(264,466,o),
(233,466,cs),
(212,466,o),
(193,467,o),
(193,525,cs),
(193,587,o),
(242,654,o),
(317,654,cs),
(400,654,o),
(425,596,o),
(425,485,cs),
(425,173,ls),
(425,62,o),
(369,62,o),
(369,25,cs),
(369,-2,o),
(395,0,o),
(424,0,cs),
(502,0,ls),
(550,0,o),
(567,4,o),
(567,26,cs),
(567,64,o),
(511,62,o),
(511,174,cs),
(511,571,ls),
(511,663,o),
(511,736,o),
(417,736,cs),
(163,736,o),
(134,596,o),
(99,534,cs),
(58,462,o),
(20,458,o),
(20,427,cs),
(20,380,o),
(93,408,o),
(93,300,cs),
(93,173,ls),
(93,62,o),
(37,58,o),
(37,23,cs),
(37,0,o),
(63,0,o),
(92,0,cs)
);
}
);
width = 597;
}
);
metricLeft = f;
metricRight = l;
},
{
glyphname = s_t.liga;
lastChange = "2025-06-01 21:24:14 +0000";
layers = (
{
layerId = m01;
shapes = (
{
closed = 1;
nodes = (
(324,-16,o),
(382,49,o),
(382,124,cs),
(382,192,o),
(334,220,o),
(258,271,cs),
(194,314,o),
(169,335,o),
(169,369,cs),
(169,401,o),
(191,418,o),
(218,418,cs),
(282,418,o),
(296,324,o),
(332,324,cs),
(361,324,o),
(371,383,o),
(371,408,cs),
(371,456,o),
(334,508,o),
(334,562,cs),
(334,611,o),
(365,659,o),
(429,659,cs),
(516,659,o),
(530,572,o),
(530,540,cs),
(530,463,o),
(447,461,o),
(447,419,cs),
(447,380,o),
(520,409,o),
(520,299,cs),
(520,206,o),
(517,164,o),
(517,101,cs),
(517,45,o),
(556,-14,o),
(624,-14,cs),
(683,-14,o),
(767,30,o),
(767,70,cs),
(767,81,o),
(761,94,o),
(748,94,cs),
(730,94,o),
(708,72,o),
(672,72,cs),
(634,72,o),
(606,96,o),
(606,148,cs),
(606,318,ls),
(606,374,o),
(641,381,o),
(662,381,cs),
(675,381,o),
(694,378,o),
(707,378,cs),
(756,378,o),
(778,416,o),
(778,448,cs),
(778,469,o),
(768,475,o),
(757,475,cs),
(741,475,o),
(712,462,o),
(684,462,cs),
(659,462,o),
(621,472,o),
(621,536,cs),
(621,638,o),
(578,713,o),
(453,713,cs),
(325,713,o),
(235,635,o),
(235,568,cs),
(235,532,o),
(261,506,o),
(261,491,cs),
(261,485,o),
(256,478,o),
(236,478,cs),
(137,478,o),
(67,422,o),
(67,344,cs),
(67,282,o),
(110,251,o),
(178,207,cs),
(251,160,o),
(284,142,o),
(284,102,cs),
(284,67,o),
(260,47,o),
(227,47,cs),
(194,47,o),
(144,66,o),
(130,126,cs),
(122,160,o),
(113,174,o),
(95,174,cs),
(56,174,o),
(45,106,o),
(45,75,cs),
(45,45,o),
(55,22,o),
(80,8,cs),
(107,-7,o),
(160,-16,o),
(204,-16,cs)
);
}
);
width = 793;
},
{
associatedMasterId = m01;
layerId = "F08A6E5E-A9DA-49D2-AFB6-0FC35FB2E267";
name = "29 mai 25 à 14:53";
shapes = (
{
closed = 1;
nodes = (
(634,658,o),
(561,703,o),
(462,703,cs),
(334,703,o),
(244,639,o),
(244,574,cs),
(244,530,o),
(292,505,o),
(292,488,cs),
(292,481,o),
(288,478,o),
(279,478,cs),
(271,478,o),
(254,480,o),
(241,480,cs),
(142,480,o),
(72,422,o),
(72,344,cs),
(72,282,o),
(115,251,o),
(183,207,cs),
(256,160,o),
(289,142,o),
(289,102,cs),
(289,67,o),
(265,47,o),
(232,47,cs),
(199,47,o),
(149,66,o),
(135,126,cs),
(127,160,o),
(118,174,o),
(100,174,cs),
(61,174,o),
(50,106,o),
(50,75,cs),
(50,45,o),
(60,22,o),
(85,8,cs),
(112,-7,o),
(165,-16,o),
(209,-16,cs),
(329,-16,o),
(387,49,o),
(387,124,cs),
(387,192,o),
(339,220,o),
(263,271,cs),
(199,314,o),
(174,335,o),
(174,369,cs),
(174,401,o),
(196,418,o),
(223,418,cs),
(287,418,o),
(301,324,o),
(337,324,cs),
(366,324,o),
(376,383,o),
(376,406,cs),
(376,460,o),
(326,504,o),
(326,564,cs),
(326,600,o),
(351,645,o),
(422,645,cs),
(513,645,o),
(545,582,o),
(545,546,cs),
(545,475,o),
(452,458,o),
(452,421,cs),
(452,378,o),
(525,410,o),
(525,299,cs),
(525,206,o),
(522,164,o),
(522,101,cs),
(522,45,o),
(558,-14,o),
(635,-14,cs),
(685,-14,o),
(772,30,o),
(772,71,cs),
(772,80,o),
(767,94,o),
(752,94,cs),
(737,94,o),
(710,72,o),
(680,72,cs),
(638,72,o),
(611,96,o),
(611,148,cs),
(611,318,ls),
(611,374,o),
(646,381,o),
(667,381,cs),
(680,381,o),
(699,378,o),
(712,378,cs),
(761,378,o),
(783,416,o),
(783,448,cs),
(783,469,o),
(773,475,o),
(762,475,cs),
(746,475,o),
(718,462,o),
(688,462,cs),
(664,462,o),
(628,472,o),
(630,526,cs)
);
}
);
width = 803;
},
{
associatedMasterId = m01;
layerId = "16B0FD4A-4362-4014-84A5-1E3E4326DC95";
name = "29 mai 25 à 15:35";
shapes = (
{
closed = 1;
nodes = (
(626,638,o),
(581,703,o),
(442,703,cs),
(364,703,o),
(245,646,o),
(245,561,cs),
(245,521,o),
(271,505,o),
(271,493,cs),
(271,485,o),
(267,478,o),
(241,478,cs),
(142,478,o),
(72,422,o),
(72,344,cs),
(72,282,o),
(115,251,o),
(183,207,cs),
(256,160,o),
(289,142,o),
(289,102,cs),
(289,67,o),
(265,47,o),
(232,47,cs),
(199,47,o),
(149,66,o),
(135,126,cs),
(127,160,o),
(118,174,o),
(100,174,cs),
(61,174,o),
(50,106,o),
(50,75,cs),
(50,45,o),
(60,22,o),
(85,8,cs),
(112,-7,o),
(165,-16,o),
(209,-16,cs),
(329,-16,o),
(387,49,o),
(387,124,cs),
(387,192,o),
(339,220,o),
(263,271,cs),
(199,314,o),
(174,335,o),
(174,369,cs),
(174,401,o),
(196,418,o),
(223,418,cs),
(287,418,o),
(301,324,o),
(337,324,cs),
(366,324,o),
(376,383,o),
(376,406,cs),
(376,460,o),
(339,504,o),
(339,564,cs),
(339,600,o),
(371,649,o),
(432,649,cs),
(523,649,o),
(535,572,o),
(535,536,cs),
(535,465,o),
(452,458,o),
(452,421,cs),
(452,378,o),
(525,410,o),
(525,299,cs),
(525,206,o),
(522,164,o),
(522,101,cs),
(522,45,o),
(558,-14,o),
(635,-14,cs),
(685,-14,o),
(772,30,o),
(772,71,cs),
(772,80,o),
(767,94,o),
(752,94,cs),
(737,94,o),
(710,72,o),
(680,72,cs),
(638,72,o),
(611,96,o),
(611,148,cs),
(611,318,ls),
(611,374,o),
(646,381,o),
(667,381,cs),
(680,381,o),
(699,378,o),
(712,378,cs),
(761,378,o),
(783,416,o),
(783,448,cs),
(783,469,o),
(773,475,o),
(762,475,cs),
(746,475,o),
(718,462,o),
(688,462,cs),
(664,462,o),
(626,472,o),
(626,536,cs)
);
}
);
width = 803;
}
);
metricLeft = s;
metricRight = t;
},
{
glyphname = t_t.liga;
lastChange = "2025-06-01 21:24:14 +0000";
layers = (
{
layerId = m01;
shapes = (
{
closed = 1;
nodes = (
(243,-14,o),
(330,30,o),
(330,71,cs),
(330,80,o),
(325,94,o),
(310,94,cs),
(295,94,o),
(268,72,o),
(238,72,cs),
(196,72,o),
(169,96,o),
(169,148,cs),
(169,318,ls),
(169,396,o),
(245,389,o),
(311,389,cs),
(396,389,o),
(428,378,o),
(428,309,cs),
(428,206,o),
(425,164,o),
(425,101,cs),
(425,45,o),
(461,-14,o),
(538,-14,cs),
(588,-14,o),
(675,30,o),
(675,71,cs),
(675,80,o),
(670,94,o),
(655,94,cs),
(640,94,o),
(613,72,o),
(583,72,cs),
(541,72,o),
(514,96,o),
(514,148,cs),
(514,318,ls),
(514,374,o),
(549,381,o),
(570,381,cs),
(583,381,o),
(602,378,o),
(615,378,cs),
(664,378,o),
(686,416,o),
(686,448,cs),
(686,469,o),
(676,475,o),
(665,475,cs),
(649,475,o),
(621,462,o),
(591,462,cs),
(567,462,o),
(533,470,o),
(533,524,cs),
(533,572,o),
(522,590,o),
(500,590,cs),
(462,590,o),
(462,534,o),
(433,498,cs),
(405,463,o),
(360,454,o),
(314,454,cs),
(264,454,o),
(188,446,o),
(188,524,cs),
(188,572,o),
(177,590,o),
(155,590,cs),
(117,590,o),
(117,534,o),
(88,498,cs),
(59,462,o),
(10,456,o),
(10,421,cs),
(10,378,o),
(83,410,o),
(83,299,cs),
(83,206,o),
(80,164,o),
(80,101,cs),
(80,45,o),
(116,-14,o),
(193,-14,cs)
);
}
);
width = 701;
}
);
metricLeft = t;
metricRight = t;
},
{
export = 0;
glyphname = f_r.liga;
lastChange = "2025-06-01 21:24:14 +0000";
layers = (
{
layerId = m01;
shapes = (
{
closed = 1;
nodes = (
(518,0,ls),
(566,0,o),
(587,4,o),
(587,26,cs),
(587,63,o),
(528,62,o),
(524,152,cs),
(520,257,o),
(553,298,o),
(603,328,cs),
(654,358,o),
(729,354,o),
(729,418,cs),
(729,453,o),
(711,480,o),
(671,480,cs),
(599,480,o),
(593,372,o),
(550,372,cs),
(538,372,o),
(527,379,o),
(525,400,cs),
(521,448,o),
(512,491,o),
(478,491,cs),
(428,491,o),
(418,456,o),
(317,456,cs),
(208,456,o),
(193,476,o),
(193,525,cs),
(193,587,o),
(232,644,o),
(267,644,cs),
(312,644,o),
(328,611,o),
(369,611,cs),
(410,611,o),
(430,657,o),
(430,690,cs),
(430,719,o),
(409,736,o),
(351,736,cs),
(193,736,o),
(134,596,o),
(99,534,cs),
(58,462,o),
(20,458,o),
(20,427,cs),
(20,380,o),
(93,412,o),
(93,294,c),
(179,324,l),
(179,392,o),
(255,391,o),
(304,391,cs),
(375,391,o),
(436,379,o),
(436,298,cs),
(436,152,ls),
(436,62,o),
(380,64,o),
(380,25,cs),
(380,-2,o),
(406,0,o),
(435,0,cs)
);
},
{
alignment = -1;
pos = (11,0);
ref = "empattement-bas";
},
{
pos = (11,0);
ref = fut;
}
);
width = 729;
},
{
associatedMasterId = m01;
layerId = "6251CCCD-1A93-4072-AD7A-CDCA1B71A07C";
name = "29 mai 25 à 14:29";
shapes = (
{
closed = 1;
nodes = (
(490,0,ls),
(538,0,o),
(559,4,o),
(559,26,cs),
(559,63,o),
(500,62,o),
(496,152,cs),
(492,257,o),
(525,298,o),
(575,328,cs),
(626,358,o),
(701,354,o),
(701,418,cs),
(701,453,o),
(683,480,o),
(643,480,cs),
(571,480,o),
(565,372,o),
(522,372,cs),
(510,372,o),
(499,379,o),
(497,400,cs),
(493,448,o),
(484,491,o),
(450,491,cs),
(400,491,o),
(381,435,o),
(255,456,cs),
(214,463,o),
(198,476,o),
(198,525,cs),
(198,587,o),
(237,644,o),
(272,644,cs),
(317,644,o),
(333,611,o),
(374,611,cs),
(415,611,o),
(435,657,o),
(435,690,cs),
(435,719,o),
(414,736,o),
(356,736,cs),
(198,736,o),
(139,596,o),
(104,534,cs),
(63,462,o),
(25,458,o),
(25,427,cs),
(25,380,o),
(98,412,o),
(98,294,c),
(184,324,l),
(184,375,o),
(205,389,o),
(228,389,cs),
(250,389,o),
(323,386,o),
(353,370,cs),
(385,353,o),
(408,339,o),
(408,258,cs),
(408,152,ls),
(408,62,o),
(352,64,o),
(352,25,cs),
(352,-2,o),
(378,0,o),
(407,0,cs)
);
},
{
alignment = -1;
pos = (11,0);
ref = "empattement-bas";
},
{
pos = (11,0);
ref = fut;
}
);
width = 706;
}
);
metricLeft = f;
metricRight = r;
},
{
glyphname = zero;
lastChange = "2025-06-01 21:24:14 +0000";
layers = (
{
layerId = m01;
shapes = (
{
closed = 1;
nodes = (
(521,-16,o),
(598,173,o),
(598,371,cs),
(598,560,o),
(481,696,o),
(335,696,cs),
(144,696,o),
(40,535,o),
(40,322,cs),
(40,126,o),
(161,-16,o),
(310,-16,cs)
);
},
{
closed = 1;
nodes = (
(230,56,o),
(170,215,o),
(170,353,cs),
(170,508,o),
(205,627,o),
(312,627,cs),
(417,627,o),
(467,479,o),
(467,340,cs),
(467,188,o),
(436,56,o),
(335,56,cs)
);
}
);
width = 638;
}
);
metricLeft = O;
metricRight = O;
unicode = 48;
},
{
glyphname = one;
lastChange = "2025-06-01 21:24:14 +0000";
layers = (
{
layerId = m01;
shapes = (
{
closed = 1;
nodes = (
(278,-6,o),
(333,-6,o),
(333,21,cs),
(333,36,o),
(319,39,o),
(295,54,cs),
(247,83,o),
(250,150,o),
(251,250,cs),
(253,447,ls),
(254,539,o),
(259,625,o),
(251,659,cs),
(245,681,o),
(234,691,o),
(215,691,cs),
(173,691,o),
(162,647,o),
(119,617,cs),
(84,592,o),
(30,575,o),
(30,547,cs),
(30,522,o),
(70,519,o),
(93,519,cs),
(160,519,o),
(156,459,o),
(156,389,cs),
(156,240,ls),
(156,160,o),
(150,90,o),
(117,65,cs),
(89,44,o),
(68,41,o),
(68,23,cs),
(68,0,o),
(106,-6,o),
(197,-6,cs)
);
}
);
width = 363;
}
);
metricLeft = I;
metricRight = I;
unicode = 49;
},
{
glyphname = two;
lastChange = "2025-06-01 21:24:14 +0000";
layers = (
{
layerId = m01;
shapes = (
{
closed = 1;
nodes = (
(154,-15,o),
(202,-4,o),
(251,-4,cs),
(305,-4,o),
(348,-12,o),
(412,-12,cs),
(471,-12,o),
(531,51,o),
(531,122,cs),
(531,134,o),
(528,155,o),
(509,155,cs),
(491,155,o),
(477,122,o),
(430,109,cs),
(393,99,o),
(309,99,o),
(268,99,cs),
(232,99,o),
(197,97,o),
(197,122,cs),
(197,135,o),
(206,152,o),
(232,178,cs),
(392,340,ls),
(413,362,o),
(506,439,o),
(506,529,cs),
(506,621,o),
(417,696,o),
(301,696,cs),
(197,696,o),
(69,623,o),
(69,522,cs),
(69,483,o),
(92,450,o),
(129,450,cs),
(167,450,o),
(186,482,o),
(194,518,cs),
(207,569,o),
(235,633,o),
(299,633,cs),
(353,633,o),
(384,581,o),
(384,523,cs),
(384,467,o),
(359,426,o),
(318,385,cs),
(167,234,ls),
(107,174,o),
(45,117,o),
(45,73,cs),
(45,35,o),
(72,-15,o),
(111,-15,cs)
);
}
);
width = 581;
}
);
unicode = 50;
},
{
glyphname = three;
lastChange = "2025-06-01 21:24:14 +0000";
layers = (
{
layerId = m01;
shapes = (
{
closed = 1;
nodes = (
(386,-15,o),
(509,64,o),
(509,195,cs),
(509,275,o),
(473,315,o),
(416,352,cs),
(392,368,o),
(377,377,o),
(377,385,cs),
(377,394,o),
(390,401,o),
(410,413,cs),
(439,431,o),
(482,471,o),
(482,531,cs),
(482,630,o),
(391,700,o),
(278,700,cs),
(173,700,o),
(61,626,o),
(61,547,cs),
(61,510,o),
(82,487,o),
(123,487,cs),
(157,487,o),
(177,518,o),
(184,550,cs),
(193,591,o),
(209,634,o),
(267,634,cs),
(336,634,o),
(365,570,o),
(365,510,cs),
(365,462,o),
(339,428,o),
(291,410,cs),
(272,403,o),
(250,399,o),
(229,396,cs),
(185,389,o),
(140,380,o),
(140,349,cs),
(140,326,o),
(159,315,o),
(179,315,cs),
(207,315,o),
(240,331,o),
(274,331,cs),
(345,331,o),
(393,252,o),
(393,184,cs),
(393,107,o),
(351,49,o),
(276,49,cs),
(205,49,o),
(176,86,o),
(162,137,cs),
(148,183,o),
(125,199,o),
(96,199,cs),
(53,199,o),
(35,161,o),
(35,133,cs),
(35,36,o),
(164,-15,o),
(260,-15,cs)
);
}
);
width = 544;
},
{
associatedMasterId = m01;
layerId = "228A6B6E-80C3-4E73-98EF-F6C393D58264";
name = "29 mai 25 à 16:39";
shapes = (
{
closed = 1;
nodes = (
(384,-15,o),
(507,64,o),
(507,185,cs),
(507,265,o),
(471,315,o),
(414,352,cs),
(390,368,o),
(375,377,o),
(375,385,cs),
(375,394,o),
(388,401,o),
(408,413,cs),
(437,431,o),
(480,464,o),
(480,524,cs),
(480,613,o),
(389,700,o),
(276,700,cs),
(171,700,o),
(59,622,o),
(59,544,cs),
(59,506,o),
(80,478,o),
(121,478,cs),
(155,478,o),
(175,514,o),
(182,546,cs),
(191,587,o),
(207,640,o),
(263,640,cs),
(334,640,o),
(363,570,o),
(363,510,cs),
(363,462,o),
(337,428,o),
(289,410,cs),
(270,403,o),
(248,399,o),
(227,396,cs),
(183,389,o),
(138,380,o),
(138,349,cs),
(138,326,o),
(157,315,o),
(177,315,cs),
(205,315,o),
(238,333,o),
(272,333,cs),
(343,333,o),
(391,252,o),
(391,184,cs),
(391,107,o),
(349,49,o),
(274,49,cs),
(193,49,o),
(171,96,o),
(157,147,cs),
(143,193,o),
(115,209,o),
(86,209,cs),
(43,209,o),
(30,169,o),
(30,141,cs),
(30,46,o),
(152,-15,o),
(258,-15,cs)
);
}
);
width = 537;
}
);
unicode = 51;
},
{
glyphname = four;
lastChange = "2025-06-01 21:24:14 +0000";
layers = (
{
layerId = m01;
shapes = (
{
closed = 1;
nodes = (
(457,-7,o),
(488,-3,o),
(488,16,cs),
(488,32,o),
(476,43,o),
(463,52,cs),
(415,84,o),
(415,124,o),
(415,172,cs),
(415,201,o),
(419,219,o),
(439,219,cs),
(459,219,o),
(485,203,o),
(510,203,cs),
(538,203,o),
(557,225,o),
(557,264,cs),
(557,285,o),
(558,315,o),
(522,315,cs),
(496,315,o),
(471,307,o),
(445,307,cs),
(422,307,o),
(426,328,o),
(425,361,cs),
(424,399,o),
(429,517,o),
(429,588,cs),
(429,650,o),
(410,696,o),
(353,696,cs),
(293,696,o),
(215,591,o),
(159,517,cs),
(112,455,o),
(20,328,o),
(20,279,cs),
(20,241,o),
(38,212,o),
(93,212,cs),
(140,212,o),
(223,219,o),
(271,219,cs),
(311,219,o),
(326,201,o),
(326,155,cs),
(326,82,o),
(288,64,o),
(259,51,cs),
(242,43,o),
(226,31,o),
(226,17,cs),
(226,-1,o),
(238,-7,o),
(352,-7,cs)
);
},
{
closed = 1;
nodes = (
(165,306,o),
(136,305,o),
(136,328,cs),
(136,352,o),
(164,400,o),
(206,464,cs),
(248,528,o),
(290,589,o),
(313,588,cs),
(323,588,o),
(331,581,o),
(332,568,cs),
(335,543,o),
(334,414,o),
(331,373,cs),
(328,327,o),
(321,306,o),
(281,306,cs),
(201,306,ls)
);
}
);
width = 582;
}
);
unicode = 52;
},
{
glyphname = five;
lastChange = "2025-06-01 21:24:14 +0000";
layers = (
{
layerId = m01;
shapes = (
{
closed = 1;
nodes = (
(397,-16,o),
(499,99,o),
(499,231,cs),
(499,369,o),
(378,434,o),
(281,434,cs),
(235,434,o),
(209,421,o),
(175,421,cs),
(155,421,o),
(148,434,o),
(148,462,cs),
(148,489,o),
(155,528,o),
(158,543,cs),
(163,569,o),
(174,574,o),
(203,574,cs),
(246,574,o),
(303,560,o),
(355,560,cs),
(427,560,o),
(484,628,o),
(484,673,cs),
(484,687,o),
(478,695,o),
(465,695,cs),
(444,695,o),
(386,674,o),
(329,674,cs),
(272,674,o),
(192,690,o),
(152,690,cs),
(117,690,o),
(93,672,o),
(89,609,cs),
(87,577,o),
(75,443,o),
(75,389,cs),
(75,360,o),
(82,333,o),
(113,333,cs),
(152,333,o),
(188,359,o),
(247,359,cs),
(325,359,o),
(387,302,o),
(387,203,cs),
(387,124,o),
(342,50,o),
(272,50,cs),
(205,50,o),
(183,107,o),
(169,157,cs),
(155,202,o),
(144,219,o),
(114,219,cs),
(73,219,o),
(50,176,o),
(50,147,cs),
(50,58,o),
(140,-16,o),
(260,-16,cs)
);
}
);
width = 544;
}
);
unicode = 53;
},
{
glyphname = six;
lastChange = "2025-06-01 21:24:14 +0000";
layers = (
{
layerId = m01;
shapes = (
{
closed = 1;
nodes = (
(471,-16,o),
(572,98,o),
(572,221,cs),
(572,365,o),
(433,413,o),
(343,413,cs),
(290,413,o),
(248,396,o),
(248,366,cs),
(248,352,o),
(257,338,o),
(279,338,cs),
(296,338,o),
(305,347,o),
(333,347,cs),
(413,347,o),
(458,275,o),
(458,192,cs),
(458,133,o),
(437,51,o),
(349,51,cs),
(229,51,o),
(169,191,o),
(169,330,cs),
(169,468,o),
(227,626,o),
(346,626,cs),
(426,626,o),
(444,535,o),
(486,535,cs),
(514,535,o),
(546,572,o),
(546,603,cs),
(546,648,o),
(479,696,o),
(381,696,cs),
(155,696,o),
(45,491,o),
(45,313,cs),
(45,152,o),
(132,-16,o),
(324,-16,cs)
);
}
);
width = 617;
},
{
associatedMasterId = m01;
layerId = "B89CDB7D-32FD-4F63-84D2-07D9521FD9D1";
name = "29 mai 25 à 16:55";
shapes = (
{
closed = 1;
nodes = (
(190,696,o),
(39,527,o),
(39,318,cs),
(39,138,o),
(150,-16,o),
(316,-16,cs),
(465,-16,o),
(567,99,o),
(567,225,cs),
(567,380,o),
(423,433,o),
(339,433,cs),
(284,433,o),
(242,416,o),
(242,386,cs),
(242,368,o),
(256,358,o),
(271,358,cs),
(292,358,o),
(300,367,o),
(326,367,cs),
(408,367,o),
(458,285,o),
(458,210,cs),
(458,123,o),
(416,51,o),
(316,51,cs),
(220,51,o),
(159,177,o),
(159,318,cs),
(159,504,o),
(271,628,o),
(380,628,cs),
(430,628,o),
(448,585,o),
(490,585,cs),
(513,585,o),
(530,601,o),
(530,624,cs),
(530,668,o),
(464,696,o),
(382,696,cs)
);
}
);
width = 599;
}
);
unicode = 54;
},
{
glyphname = seven;
lastChange = "2025-06-01 21:24:14 +0000";
layers = (
{
layerId = m01;
shapes = (
{
closed = 1;
nodes = (
(271,-9,o),
(283,30,o),
(299,82,cs),
(327,173,o),
(366,291,o),
(401,378,cs),
(447,493,o),
(485,587,o),
(485,634,cs),
(485,667,o),
(472,688,o),
(435,688,cs),
(398,688,o),
(332,676,o),
(269,676,cs),
(192,676,o),
(128,693,o),
(81,693,cs),
(43,693,o),
(20,605,o),
(20,558,cs),
(20,528,o),
(29,511,o),
(50,511,cs),
(64,511,o),
(78,522,o),
(90,535,cs),
(117,565,o),
(153,594,o),
(252,594,cs),
(327,594,o),
(369,582,o),
(369,542,cs),
(369,471,o),
(202,165,o),
(167,116,cs),
(135,71,o),
(117,53,o),
(117,25,cs),
(117,1,o),
(152,-9,o),
(197,-9,cs)
);
}
);
width = 520;
}
);
unicode = 55;
},
{
glyphname = eight;
lastChange = "2025-06-01 21:24:14 +0000";
layers = (
{
layerId = m01;
shapes = (
{
closed = 1;
nodes = (
(428,-19,o),
(547,57,o),
(547,159,cs),
(547,245,o),
(473,298,o),
(426,330,cs),
(402,346,o),
(385,359,o),
(385,369,cs),
(385,376,o),
(400,388,o),
(422,402,cs),
(466,430,o),
(518,476,o),
(518,540,cs),
(518,640,o),
(426,701,o),
(323,701,cs),
(200,701,o),
(98,628,o),
(98,534,cs),
(98,469,o),
(149,430,o),
(179,405,cs),
(197,390,o),
(208,380,o),
(208,371,cs),
(208,361,o),
(189,345,o),
(163,325,cs),
(117,290,o),
(55,244,o),
(55,166,cs),
(55,62,o),
(157,-19,o),
(292,-19,cs)
);
},
{
closed = 1;
nodes = (
(242,42,o),
(174,109,o),
(174,179,cs),
(174,269,o),
(259,306,o),
(275,306,cs),
(286,306,o),
(294,305,o),
(307,296,cs),
(350,265,o),
(430,202,o),
(430,146,cs),
(430,101,o),
(398,42,o),
(318,42,cs)
);
},
{
closed = 1;
nodes = (
(287,420,o),
(216,509,o),
(216,566,cs),
(216,605,o),
(245,643,o),
(300,643,cs),
(372,643,o),
(405,595,o),
(405,546,cs),
(405,495,o),
(365,420,o),
(328,420,cs)
);
}
);
width = 602;
}
);
unicode = 56;
},
{
glyphname = zero.osf;
lastChange = "2025-06-01 21:24:14 +0000";
layers = (
{
layerId = m01;
shapes = (
{
closed = 1;
nodes = (
(434,-16,o),
(496,135,o),
(496,237,cs),
(496,338,o),
(434,481,o),
(275,481,cs),
(121,481,o),
(35,346,o),
(35,229,cs),
(35,115,o),
(118,-16,o),
(270,-16,cs)
);
},
{
closed = 1;
nodes = (
(192,49,o),
(143,161,o),
(143,256,cs),
(143,350,o),
(191,417,o),
(260,417,cs),
(350,417,o),
(387,300,o),
(387,209,cs),
(387,124,o),
(355,49,o),
(281,49,cs)
);
}
);
width = 531;
}
);
metricLeft = o;
metricRight = o;
},
{
glyphname = one.osf;
lastChange = "2025-06-01 21:24:14 +0000";
layers = (
{
backgroundImage = {
imagePath = "/Volumes/MEDICIS/20241119122657029_0003.jpg";
locked = 1;
pos = (-959,-791);
scale = (3.0772,3.0772);
};
layerId = m01;
shapes = (
{
closed = 1;
nodes = (
(239,0,ls),
(286,0,o),
(308,5,o),
(308,26,cs),
(308,63,o),
(246,50,o),
(246,174,cs),
(246,257,ls),
(246,339,o),
(261,392,o),
(261,431,cs),
(261,459,o),
(251,481,o),
(222,481,cs),
(184,481,o),
(175,440,o),
(135,412,cs),
(90,380,o),
(45,380,o),
(45,349,cs),
(45,325,o),
(72,317,o),
(105,317,cs),
(149,317,o),
(160,303,o),
(160,254,cs),
(160,173,ls),
(160,50,o),
(78,63,o),
(78,25,cs),
(78,2,o),
(109,0,o),
(143,0,cs)
);
}
);
width = 358;
},
{
associatedMasterId = m01;
backgroundImage = {
imagePath = "/Volumes/MEDICIS/20241119122657029_0003.jpg";
locked = 1;
pos = (-1167,-791);
scale = (3.0772,3.0772);
};
layerId = "09CCB633-67EE-4300-A64C-26DE0C004F64";
name = "5 déc. 24 à 11:11";
shapes = (
{
closed = 1;
nodes = (
(316,516,o),
(287,435,o),
(257,353,cs),
(227,271,o),
(216,100,o),
(216,50,cs),
(216,0,o),
(196,-20,o),
(161,-20,cs),
(126,-20,o),
(105,13,o),
(105,56,cs),
(105,99,o),
(172,251,o),
(172,306,cs),
(172,377,o),
(46,312,o),
(46,372,cs),
(46,392,o),
(60,400,o),
(113,414,cs),
(206,438,o),
(229,516,o),
(271,516,cs)
);
}
);
width = 322;
}
);
},
{
glyphname = two.osf;
lastChange = "2025-06-01 21:24:14 +0000";
layers = (
{
layerId = m01;
shapes = (
{
closed = 1;
nodes = (
(148,-10,o),
(167,-1,o),
(209,-1,cs),
(249,-1,o),
(263,-9,o),
(313,-9,cs),
(373,-9,o),
(440,84,o),
(440,113,cs),
(440,132,o),
(431,143,o),
(416,143,cs),
(385,143,o),
(365,89,o),
(271,89,cs),
(229,89,o),
(191,87,o),
(191,113,cs),
(191,135,o),
(225,162,o),
(263,196,cs),
(318,245,o),
(404,313,o),
(404,375,cs),
(404,435,o),
(344,481,o),
(257,481,cs),
(163,481,o),
(71,406,o),
(71,341,cs),
(71,300,o),
(101,284,o),
(127,284,cs),
(170,284,o),
(178,315,o),
(185,346,cs),
(190,371,o),
(201,424,o),
(249,424,cs),
(278,424,o),
(305,405,o),
(305,372,cs),
(305,303,o),
(168,208,o),
(126,168,cs),
(82,126,o),
(45,78,o),
(45,42,cs),
(45,13,o),
(66,-10,o),
(106,-10,cs)
);
}
);
width = 475;
},
{
associatedMasterId = m01;
backgroundImage = {
imagePath = "/Volumes/MEDICIS/20241119122657029_0003.jpg";
locked = 1;
pos = (-204,-772);
scale = (3.0201,3.0201);
};
layerId = "C2BCAD2E-F080-42DE-89C3-D9C98231F8DD";
name = "5 déc. 24 à 10:50";
shapes = (
{
closed = 1;
nodes = (
(301,436,o),
(318,416,o),
(318,387,cs),
(318,330,o),
(177,207,o),
(106,140,cs),
(51,89,o),
(16,63,o),
(16,34,cs),
(16,-15,o),
(59,-16,o),
(84,-16,cs),
(109,-16,o),
(156,-6,o),
(189,-6,cs),
(222,-6,o),
(250,-15,o),
(286,-15,cs),
(334,-15,o),
(386,25,o),
(418,63,cs),
(443,92,o),
(460,108,o),
(460,123,cs),
(460,134,o),
(453,142,o),
(441,142,cs),
(428,142,o),
(404,115,o),
(375,103,cs),
(348,92,o),
(311,87,o),
(270,87,cs),
(254,87,o),
(184,80,o),
(184,114,cs),
(184,130,o),
(204,158,o),
(238,194,cs),
(299,259,o),
(415,356,o),
(415,422,cs),
(415,492,o),
(357,515,o),
(316,515,cs),
(219,515,o),
(99,422,o),
(99,356,cs),
(99,314,o),
(128,305,o),
(144,305,cs),
(227,305,o),
(185,436,o),
(273,436,cs)
);
}
);
width = 494;
}
);
},
